<svg width="389" height="242" viewBox="0 0 389 242" fill="none" xmlns="http://www.w3.org/2000/svg">
<g filter="url(#filter0_d_4182_3655)">
<rect x="45" y="41" width="299" height="75" rx="17" fill="black"/>
<path d="M120.275 84V72.1H122.332L127.041 80.736V72.1H128.911V84H126.854L122.145 75.364V84H120.275ZM131.464 84V72.1H138.332V73.851H133.419V77.217H138.332V78.968H133.419V82.249H138.332V84H131.464ZM143.551 84L139.437 72.1H141.494L144.316 80.753L146.985 72.1H148.43L151.099 80.753L153.921 72.1H155.978L151.864 84H150.453L147.716 75.517L144.962 84H143.551ZM162.074 84.289C160.17 84.289 158.663 83.711 157.552 82.555C156.441 81.399 155.886 79.8973 155.886 78.05C155.886 76.2027 156.441 74.701 157.552 73.545C158.663 72.389 160.17 71.811 162.074 71.811C163.672 71.811 164.987 72.219 166.018 73.035C167.049 73.8397 167.656 74.888 167.837 76.18H165.695C165.502 75.364 165.094 74.7237 164.471 74.259C163.859 73.7943 163.066 73.562 162.091 73.562C160.788 73.562 159.768 73.97 159.031 74.786C158.306 75.5907 157.943 76.6787 157.943 78.05C157.943 79.4213 158.306 80.515 159.031 81.331C159.768 82.1357 160.788 82.538 162.091 82.538C163.066 82.538 163.859 82.3057 164.471 81.841C165.094 81.3763 165.502 80.736 165.695 79.92H167.837C167.656 81.212 167.049 82.266 166.018 83.082C164.987 83.8867 163.672 84.289 162.074 84.289ZM177.026 83.201C176.233 83.9263 175.156 84.289 173.796 84.289C172.436 84.289 171.36 83.9263 170.566 83.201C169.773 82.4643 169.376 81.416 169.376 80.056V72.1H171.331V79.937C171.331 80.7757 171.552 81.4217 171.994 81.875C172.436 82.317 173.037 82.538 173.796 82.538C174.556 82.538 175.156 82.317 175.598 81.875C176.04 81.4217 176.261 80.7757 176.261 79.937V72.1H178.216V80.056C178.216 81.416 177.82 82.4643 177.026 83.201ZM184.075 84.289C182.693 84.289 181.622 83.9263 180.862 83.201C180.114 82.4757 179.74 81.4443 179.74 80.107H181.695C181.695 80.8777 181.905 81.484 182.324 81.926C182.744 82.368 183.322 82.589 184.058 82.589C184.704 82.589 185.197 82.4473 185.537 82.164C185.889 81.8693 186.064 81.4557 186.064 80.923C186.064 80.4697 185.934 80.107 185.673 79.835C185.424 79.563 184.965 79.291 184.296 79.019L182.358 78.237C180.84 77.6477 180.08 76.5937 180.08 75.075C180.08 74.1117 180.432 73.3297 181.134 72.729C181.848 72.117 182.766 71.811 183.888 71.811C185.067 71.811 186.013 72.151 186.727 72.831C187.453 73.511 187.815 74.412 187.815 75.534H185.86C185.86 74.8767 185.685 74.3723 185.333 74.021C184.982 73.6583 184.478 73.477 183.82 73.477C183.265 73.477 182.829 73.613 182.511 73.885C182.205 74.1457 182.052 74.5027 182.052 74.956C182.052 75.364 182.205 75.7153 182.511 76.01C182.817 76.3047 183.322 76.5937 184.024 76.877L185.775 77.591C187.271 78.203 188.019 79.2967 188.019 80.872C188.019 81.892 187.657 82.7193 186.931 83.354C186.206 83.9773 185.254 84.289 184.075 84.289ZM191.814 84V73.936H188.363V72.1H197.237V73.936H193.769V84H191.814ZM207.783 82.487C206.672 83.6883 205.182 84.289 203.312 84.289C201.442 84.289 199.946 83.6883 198.824 82.487C197.713 81.2857 197.158 79.8067 197.158 78.05C197.158 76.2933 197.713 74.8143 198.824 73.613C199.946 72.4117 201.442 71.811 203.312 71.811C205.182 71.811 206.672 72.4117 207.783 73.613C208.905 74.8143 209.466 76.2933 209.466 78.05C209.466 79.8067 208.905 81.2857 207.783 82.487ZM200.286 81.263C201.022 82.113 202.031 82.538 203.312 82.538C204.592 82.538 205.595 82.113 206.321 81.263C207.057 80.4017 207.42 79.3307 207.409 78.05C207.42 76.7693 207.057 75.704 206.321 74.854C205.595 73.9927 204.592 73.562 203.312 73.562C202.031 73.562 201.022 73.9927 200.286 74.854C199.56 75.704 199.203 76.7693 199.215 78.05C199.203 79.3307 199.56 80.4017 200.286 81.263ZM211.335 84V72.1H213.205L217.013 81.212L220.804 72.1H222.674V84H220.804V76.129L217.744 84H216.265L213.205 76.044V84H211.335ZM225.23 84V72.1H232.098V73.851H227.185V77.217H232.098V78.968H227.185V82.249H232.098V84H225.23ZM242.943 76.265C242.943 77.183 242.711 77.9877 242.246 78.679C241.793 79.3703 241.181 79.8633 240.41 80.158L242.756 84H240.529L238.353 80.43H236.432V84H234.477V72.1H238.863C240.053 72.1 241.028 72.491 241.787 73.273C242.558 74.055 242.943 75.0523 242.943 76.265ZM236.432 73.851V78.679H238.744C239.39 78.679 239.923 78.4523 240.342 77.999C240.773 77.5343 240.988 76.9563 240.988 76.265C240.988 75.5737 240.773 75.0013 240.342 74.548C239.923 74.0833 239.39 73.851 238.744 73.851H236.432ZM246.588 84V76.044H244.14V74.412C245.183 74.412 245.88 74.2703 246.231 73.987C246.582 73.6923 246.758 73.1767 246.758 72.44H248.526V84H246.588ZM258.818 82.691C258.07 83.6997 256.971 84.204 255.52 84.204C254.07 84.204 252.965 83.6997 252.205 82.691C251.457 81.671 251.083 80.1807 251.083 78.22C251.083 76.2593 251.457 74.7747 252.205 73.766C252.965 72.746 254.07 72.236 255.52 72.236C256.971 72.236 258.07 72.746 258.818 73.766C259.578 74.7747 259.957 76.2593 259.957 78.22C259.957 80.1807 259.578 81.671 258.818 82.691ZM252.936 78.22C252.936 81.076 253.798 82.504 255.52 82.504C257.243 82.504 258.104 81.076 258.104 78.22C258.104 75.364 257.243 73.936 255.52 73.936C253.798 73.936 252.936 75.364 252.936 78.22Z" fill="white"/>
<rect x="64" y="58" width="42" height="42" rx="11" fill="#2F2F2F"/>
<path d="M82 76H82.01M88 82H88.01M89 75L81 83M82.2019 87.6009C82.5297 87.5575 82.8607 87.6464 83.1218 87.8475L84.3251 88.7708C84.7228 89.0764 85.2761 89.0764 85.6727 88.7708L86.9215 87.812C87.1548 87.6331 87.4492 87.5542 87.7403 87.5931L89.3024 87.7986C89.799 87.8642 90.2779 87.5875 90.4701 87.1242L91.0712 85.6709C91.1834 85.3987 91.3989 85.1832 91.6711 85.0709L93.1243 84.4698C93.5876 84.2787 93.8643 83.7988 93.7987 83.3021L93.601 81.7966C93.5576 81.4688 93.6465 81.1377 93.8476 80.8766L94.7709 79.6733C95.0764 79.2755 95.0764 78.7222 94.7709 78.3256L93.812 77.0767C93.6332 76.8434 93.5543 76.549 93.5932 76.2579L93.7987 74.6957C93.8643 74.199 93.5876 73.7201 93.1243 73.5279L91.6711 72.9268C91.3989 72.8146 91.1834 72.5991 91.0712 72.3269L90.4701 70.8736C90.279 70.4102 89.799 70.1336 89.3024 70.1991L87.7403 70.4047C87.4492 70.4447 87.1548 70.3658 86.9226 70.188L85.6738 69.2292C85.2761 68.9236 84.7228 68.9236 84.3262 69.2292L83.0774 70.188C82.8441 70.3658 82.5496 70.4447 82.2586 70.4069L80.6965 70.2014C80.1998 70.1358 79.721 70.4125 79.5288 70.8758L78.9288 72.3291C78.8155 72.6002 78.6 72.8157 78.3289 72.9291L76.8757 73.529C76.4124 73.7213 76.1357 74.2001 76.2013 74.6968L76.4068 76.259C76.4446 76.5501 76.3657 76.8445 76.188 77.0767L75.2291 78.3256C74.9236 78.7233 74.9236 79.2767 75.2291 79.6733L76.188 80.9222C76.3668 81.1555 76.4457 81.4499 76.4068 81.741L76.2013 83.3032C76.1357 83.7999 76.4124 84.2787 76.8757 84.471L78.3289 85.0721C78.6011 85.1843 78.8166 85.3998 78.9288 85.672L79.5299 87.1253C79.721 87.5887 80.201 87.8653 80.6976 87.7998L82.2019 87.6009ZM82.5 76C82.5 76.2761 82.2761 76.5 82 76.5C81.7239 76.5 81.5 76.2761 81.5 76C81.5 75.7239 81.7239 75.5 82 75.5C82.2761 75.5 82.5 75.7239 82.5 76ZM88.5 82C88.5 82.2761 88.2761 82.5 88 82.5C87.7239 82.5 87.5 82.2761 87.5 82C87.5 81.7239 87.7239 81.5 88 81.5C88.2761 81.5 88.5 81.7239 88.5 82Z" stroke="white" stroke-width="2" stroke-linecap="round" stroke-linejoin="round"/>
</g>
<rect x="45" y="126" width="299" height="75" rx="17" fill="url(#paint0_linear_4182_3655)" fill-opacity="0.1"/>
<path d="M125.817 162.88C126.508 162.948 127.086 163.231 127.551 163.73C128.027 164.217 128.265 164.869 128.265 165.685C128.265 166.716 127.925 167.527 127.245 168.116C126.576 168.705 125.653 169 124.474 169H120.275V157.1H124.253C125.443 157.1 126.378 157.378 127.058 157.933C127.738 158.477 128.078 159.231 128.078 160.194C128.078 161.69 127.324 162.585 125.817 162.88ZM124.168 158.817H122.23V162.081H124.168C124.78 162.081 125.256 161.939 125.596 161.656C125.947 161.361 126.123 160.959 126.123 160.449C126.123 159.928 125.953 159.525 125.613 159.242C125.273 158.959 124.791 158.817 124.168 158.817ZM124.44 167.283C125.029 167.283 125.488 167.124 125.817 166.807C126.146 166.49 126.31 166.048 126.31 165.481C126.31 164.982 126.14 164.58 125.8 164.274C125.46 163.957 125.012 163.798 124.457 163.798H122.23V167.283H124.44ZM130.219 169V157.1H132.174V167.164H136.951V169H130.219ZM145.747 169L145.288 167.487H140.715L140.256 169H138.131L142.143 157.1H143.86L147.872 169H145.747ZM141.225 165.736H144.761L142.993 159.837L141.225 165.736ZM154.221 169.289C152.317 169.289 150.81 168.711 149.699 167.555C148.589 166.399 148.033 164.897 148.033 163.05C148.033 161.203 148.589 159.701 149.699 158.545C150.81 157.389 152.317 156.811 154.221 156.811C155.819 156.811 157.134 157.219 158.165 158.035C159.197 158.84 159.803 159.888 159.984 161.18H157.842C157.65 160.364 157.242 159.724 156.618 159.259C156.006 158.794 155.213 158.562 154.238 158.562C152.935 158.562 151.915 158.97 151.178 159.786C150.453 160.591 150.09 161.679 150.09 163.05C150.09 164.421 150.453 165.515 151.178 166.331C151.915 167.136 152.935 167.538 154.238 167.538C155.213 167.538 156.006 167.306 156.618 166.841C157.242 166.376 157.65 165.736 157.842 164.92H159.984C159.803 166.212 159.197 167.266 158.165 168.082C157.134 168.887 155.819 169.289 154.221 169.289ZM170.636 157.1L165.519 162.965L170.636 169H168.154L163.734 163.662V169H161.779V157.1H163.734V162.472L168.171 157.1H170.636ZM172.088 169V157.1H178.956V158.851H174.043V162.625H178.956V164.376H174.043V169H172.088ZM189.553 161.265C189.553 162.183 189.32 162.988 188.856 163.679C188.402 164.37 187.79 164.863 187.02 165.158L189.366 169H187.139L184.963 165.43H183.042V169H181.087V157.1H185.473C186.663 157.1 187.637 157.491 188.397 158.273C189.167 159.055 189.553 160.052 189.553 161.265ZM183.042 158.851V163.679H185.354C186 163.679 186.532 163.452 186.952 162.999C187.382 162.534 187.598 161.956 187.598 161.265C187.598 160.574 187.382 160.001 186.952 159.548C186.532 159.083 186 158.851 185.354 158.851H183.042ZM191.429 169V157.1H193.384V169H191.429ZM195.928 169V157.1H199.957C201.839 157.1 203.306 157.684 204.36 158.851C205.426 160.007 205.958 161.407 205.958 163.05C205.958 164.693 205.426 166.099 204.36 167.266C203.306 168.422 201.839 169 199.957 169H195.928ZM197.883 167.249H199.787C201.147 167.249 202.179 166.841 202.881 166.025C203.595 165.209 203.952 164.217 203.952 163.05C203.952 161.883 203.595 160.891 202.881 160.075C202.179 159.259 201.147 158.851 199.787 158.851H197.883V167.249ZM213.664 169L213.205 167.487H208.632L208.173 169H206.048L210.06 157.1H211.777L215.789 169H213.664ZM209.142 165.736H212.678L210.91 159.837L209.142 165.736ZM222.659 157.1H224.801L218.902 169H216.76L219.123 164.223L214.669 157.1H216.93L220.126 162.217L222.659 157.1ZM225.303 169C225.303 167.719 225.53 166.671 225.983 165.855C226.436 165.028 227.162 164.336 228.159 163.781L229.859 162.846C230.822 162.313 231.304 161.582 231.304 160.653C231.304 160.143 231.145 159.729 230.828 159.412C230.511 159.095 230.103 158.936 229.604 158.936C228.958 158.936 228.459 159.146 228.108 159.565C227.757 159.984 227.581 160.585 227.581 161.367H225.558C225.558 160.109 225.921 159.106 226.646 158.358C227.383 157.61 228.369 157.236 229.604 157.236C230.771 157.236 231.689 157.536 232.358 158.137C233.038 158.726 233.378 159.531 233.378 160.551C233.378 161.254 233.18 161.917 232.783 162.54C232.386 163.163 231.831 163.679 231.117 164.087L229.451 165.039C228.816 165.402 228.374 165.73 228.125 166.025C227.887 166.32 227.717 166.728 227.615 167.249H233.344V169H225.303ZM239.063 169.204C237.975 169.204 237.057 168.898 236.309 168.286C235.561 167.663 235.153 166.869 235.085 165.906H237.057C237.091 166.393 237.301 166.779 237.686 167.062C238.072 167.334 238.542 167.47 239.097 167.47C239.8 167.47 240.35 167.255 240.746 166.824C241.154 166.393 241.358 165.815 241.358 165.09C241.358 164.376 241.171 163.804 240.797 163.373C240.435 162.942 239.942 162.727 239.318 162.727C238.219 162.727 237.471 163.175 237.074 164.07H235.289V157.44H242.548V159.174H237.057V162.166C237.647 161.486 238.491 161.146 239.59 161.146C240.701 161.146 241.585 161.503 242.242 162.217C242.9 162.92 243.228 163.855 243.228 165.022C243.228 166.212 242.849 167.209 242.089 168.014C241.33 168.807 240.321 169.204 239.063 169.204Z" fill="white"/>
<rect x="64" y="143" width="42" height="42" rx="11" fill="#2F2F2F" fill-opacity="0.1"/>
<path d="M82 161H82.01M88 167H88.01M89 160L81 168M82.2019 172.601C82.5297 172.558 82.8607 172.646 83.1218 172.848L84.3251 173.771C84.7228 174.076 85.2761 174.076 85.6727 173.771L86.9215 172.812C87.1548 172.633 87.4492 172.554 87.7403 172.593L89.3024 172.799C89.799 172.864 90.2779 172.588 90.4701 172.124L91.0712 170.671C91.1834 170.399 91.3989 170.183 91.6711 170.071L93.1243 169.47C93.5876 169.279 93.8643 168.799 93.7987 168.302L93.601 166.797C93.5576 166.469 93.6465 166.138 93.8476 165.877L94.7709 164.673C95.0764 164.276 95.0764 163.722 94.7709 163.326L93.812 162.077C93.6332 161.843 93.5543 161.549 93.5932 161.258L93.7987 159.696C93.8643 159.199 93.5876 158.72 93.1243 158.528L91.6711 157.927C91.3989 157.815 91.1834 157.599 91.0712 157.327L90.4701 155.874C90.279 155.41 89.799 155.134 89.3024 155.199L87.7403 155.405C87.4492 155.445 87.1548 155.366 86.9226 155.188L85.6738 154.229C85.2761 153.924 84.7228 153.924 84.3262 154.229L83.0774 155.188C82.8441 155.366 82.5496 155.445 82.2586 155.407L80.6965 155.201C80.1998 155.136 79.721 155.412 79.5288 155.876L78.9288 157.329C78.8155 157.6 78.6 157.816 78.3289 157.929L76.8757 158.529C76.4124 158.721 76.1357 159.2 76.2013 159.697L76.4068 161.259C76.4446 161.55 76.3657 161.845 76.188 162.077L75.2291 163.326C74.9236 163.723 74.9236 164.277 75.2291 164.673L76.188 165.922C76.3668 166.155 76.4457 166.45 76.4068 166.741L76.2013 168.303C76.1357 168.8 76.4124 169.279 76.8757 169.471L78.3289 170.072C78.6011 170.184 78.8166 170.4 78.9288 170.672L79.5299 172.125C79.721 172.589 80.201 172.865 80.6976 172.8L82.2019 172.601ZM82.5 161C82.5 161.276 82.2761 161.5 82 161.5C81.7239 161.5 81.5 161.276 81.5 161C81.5 160.724 81.7239 160.5 82 160.5C82.2761 160.5 82.5 160.724 82.5 161ZM88.5 167C88.5 167.276 88.2761 167.5 88 167.5C87.7239 167.5 87.5 167.276 87.5 167C87.5 166.724 87.7239 166.5 88 166.5C88.2761 166.5 88.5 166.724 88.5 167Z" stroke="white" stroke-width="2" stroke-linecap="round" stroke-linejoin="round"/>
<path d="M350.519 113.933L324.339 103.879C320.296 102.327 316.326 106.297 317.879 110.339L327.933 136.519C329.23 139.898 333.577 140.822 336.136 138.262L338.535 135.864L339.953 134.446L343.484 137.978C345.829 140.323 349.632 140.323 351.977 137.978C354.322 135.632 354.322 131.83 351.977 129.485L348.445 125.953L349.863 124.535L352.262 122.136C354.821 119.577 353.898 115.231 350.519 113.933Z" fill="black" stroke="white" stroke-width="4"/>
<defs>
<filter id="filter0_d_4182_3655" x="25" y="21" width="339" height="115" filterUnits="userSpaceOnUse" color-interpolation-filters="sRGB">
<feFlood flood-opacity="0" result="BackgroundImageFix"/>
<feColorMatrix in="SourceAlpha" type="matrix" values="0 0 0 0 0 0 0 0 0 0 0 0 0 0 0 0 0 0 127 0" result="hardAlpha"/>
<feOffset/>
<feGaussianBlur stdDeviation="10"/>
<feComposite in2="hardAlpha" operator="out"/>
<feColorMatrix type="matrix" values="0 0 0 0 0 0 0 0 0 0 0 0 0 0 0 0 0 0 0.2 0"/>
<feBlend mode="normal" in2="BackgroundImageFix" result="effect1_dropShadow_4182_3655"/>
<feBlend mode="normal" in="SourceGraphic" in2="effect1_dropShadow_4182_3655" result="shape"/>
</filter>
<linearGradient id="paint0_linear_4182_3655" x1="194.5" y1="126" x2="194.5" y2="201" gradientUnits="userSpaceOnUse">
<stop/>
<stop offset="1" stop-opacity="0"/>
</linearGradient>
</defs>
</svg>
