<svg width="885" height="551" viewBox="0 0 885 551" fill="none" xmlns="http://www.w3.org/2000/svg">
<g clip-path="url(#clip0_4182_4253)">
<rect x="20" y="14" width="845" height="602" rx="30" fill="#7F48FB"/>
<path d="M56 14H829V135C829 157.091 811.091 175 789 175H96C73.9086 175 56 157.091 56 135V14Z" fill="url(#paint0_linear_4182_4253)"/>
<path d="M186.004 249.4C185.104 250.3 183.971 250.75 182.604 250.75C181.238 250.75 180.104 250.3 179.204 249.4C178.338 248.5 177.904 247.4 177.904 246.1C177.904 244.767 178.338 243.65 179.204 242.75C180.104 241.85 181.238 241.4 182.604 241.4C183.971 241.4 185.104 241.867 186.004 242.8C186.904 243.7 187.354 244.8 187.354 246.1C187.354 247.4 186.904 248.5 186.004 249.4ZM178.754 277V252.9H186.404V277H178.754ZM207.869 242C211.503 242 214.503 243.2 216.869 245.6C219.236 247.967 220.419 250.983 220.419 254.65C220.419 258.317 219.236 261.35 216.869 263.75C214.503 266.117 211.503 267.3 207.869 267.3H201.069V277H192.969V242H207.869ZM206.619 260.7C208.253 260.7 209.586 260.133 210.619 259C211.686 257.867 212.219 256.417 212.219 254.65C212.219 252.883 211.686 251.433 210.619 250.3C209.586 249.167 208.253 248.6 206.619 248.6H201.069V260.7H206.619ZM239.419 252.25C245.286 252.25 248.219 255.533 248.219 262.1V277H240.519V264.6C240.519 262.533 240.186 261.033 239.519 260.1C238.886 259.167 237.803 258.7 236.269 258.7C233.169 258.7 231.619 260.6 231.619 264.4V277H223.969V242H231.619V256.4C233.053 253.633 235.653 252.25 239.419 252.25ZM275.54 274.15C273.14 276.55 269.907 277.75 265.84 277.75C261.774 277.75 258.524 276.55 256.09 274.15C253.657 271.75 252.44 268.683 252.44 264.95C252.44 261.217 253.657 258.167 256.09 255.8C258.524 253.4 261.774 252.2 265.84 252.2C269.907 252.2 273.14 253.4 275.54 255.8C277.974 258.167 279.19 261.217 279.19 264.95C279.19 268.683 277.974 271.75 275.54 274.15ZM265.84 271.25C267.607 271.25 269.007 270.667 270.04 269.5C271.074 268.333 271.59 266.817 271.59 264.95C271.59 263.083 271.074 261.567 270.04 260.4C269.007 259.233 267.607 258.65 265.84 258.65C264.04 258.65 262.624 259.233 261.59 260.4C260.59 261.567 260.09 263.083 260.09 264.95C260.09 266.817 260.59 268.333 261.59 269.5C262.624 270.667 264.04 271.25 265.84 271.25ZM283.588 277V252.9H291.238V256.4C292.672 253.633 295.272 252.25 299.038 252.25C304.905 252.25 307.838 255.533 307.838 262.1V277H300.138V264.6C300.138 262.533 299.805 261.033 299.138 260.1C298.505 259.167 297.422 258.7 295.888 258.7C292.788 258.7 291.238 260.6 291.238 264.4V277H283.588ZM337.66 263.7C337.66 264.7 337.593 265.817 337.46 267.05H319.66C319.726 268.617 320.26 269.833 321.26 270.7C322.26 271.567 323.61 272 325.31 272C327.643 272 329.143 271.25 329.81 269.75H337.31C336.943 272.117 335.643 274.05 333.41 275.55C331.21 277.017 328.51 277.75 325.31 277.75C321.21 277.75 317.976 276.617 315.61 274.35C313.243 272.083 312.06 268.95 312.06 264.95C312.06 261.017 313.243 257.917 315.61 255.65C317.976 253.35 321.126 252.2 325.06 252.2C328.793 252.2 331.826 253.267 334.16 255.4C336.493 257.533 337.66 260.3 337.66 263.7ZM319.66 262.3H330.11C330.076 260.7 329.626 259.467 328.76 258.6C327.893 257.733 326.643 257.3 325.01 257.3C323.376 257.3 322.076 257.767 321.11 258.7C320.176 259.6 319.693 260.8 319.66 262.3ZM359.844 277V255.5H352.644V249.15C355.877 249.15 358.061 248.683 359.194 247.75C360.327 246.817 360.894 245.233 360.894 243H367.894V277H359.844ZM387.476 277.75C383.143 277.75 379.809 276.717 377.476 274.65C375.176 272.583 374.026 269.633 374.026 265.8H382.176C382.176 267.6 382.643 268.983 383.576 269.95C384.543 270.917 385.893 271.4 387.626 271.4C389.093 271.4 390.259 271 391.126 270.2C392.026 269.4 392.476 268.333 392.476 267C392.476 263.967 390.693 262.45 387.126 262.45H383.726V256.25H387.176C390.376 256.25 391.976 254.867 391.976 252.1C391.976 250.933 391.576 250 390.776 249.3C389.976 248.6 388.926 248.25 387.626 248.25C386.126 248.25 384.943 248.683 384.076 249.55C383.209 250.383 382.776 251.55 382.776 253.05H374.776C374.776 249.783 375.943 247.167 378.276 245.2C380.609 243.233 383.793 242.25 387.826 242.25C391.526 242.25 394.493 243.1 396.726 244.8C398.959 246.5 400.076 248.8 400.076 251.7C400.076 255.567 397.993 258.083 393.826 259.25C395.959 259.65 397.626 260.567 398.826 262C400.059 263.433 400.676 265.217 400.676 267.35C400.676 270.45 399.459 272.967 397.026 274.9C394.626 276.8 391.443 277.75 387.476 277.75ZM418.012 277V252.9H425.662V256.4C426.196 255.167 427.062 254.167 428.262 253.4C429.496 252.633 430.929 252.25 432.562 252.25C436.362 252.25 438.879 253.733 440.112 256.7C440.779 255.367 441.796 254.3 443.162 253.5C444.529 252.667 446.079 252.25 447.812 252.25C453.512 252.25 456.362 255.517 456.362 262.05V277H448.662V263.45C448.662 260.283 447.462 258.7 445.062 258.7C442.362 258.7 441.012 260.667 441.012 264.6V277H433.312V263.4C433.312 260.267 432.129 258.7 429.762 258.7C428.429 258.7 427.412 259.15 426.712 260.05C426.012 260.917 425.662 262.433 425.662 264.6V277H418.012ZM483.597 274.15C481.197 276.55 477.964 277.75 473.897 277.75C469.83 277.75 466.58 276.55 464.147 274.15C461.714 271.75 460.497 268.683 460.497 264.95C460.497 261.217 461.714 258.167 464.147 255.8C466.58 253.4 469.83 252.2 473.897 252.2C477.964 252.2 481.197 253.4 483.597 255.8C486.03 258.167 487.247 261.217 487.247 264.95C487.247 268.683 486.03 271.75 483.597 274.15ZM473.897 271.25C475.664 271.25 477.064 270.667 478.097 269.5C479.13 268.333 479.647 266.817 479.647 264.95C479.647 263.083 479.13 261.567 478.097 260.4C477.064 259.233 475.664 258.65 473.897 258.65C472.097 258.65 470.68 259.233 469.647 260.4C468.647 261.567 468.147 263.083 468.147 264.95C468.147 266.817 468.647 268.333 469.647 269.5C470.68 270.667 472.097 271.25 473.897 271.25ZM503.475 277.75C499.542 277.75 496.409 276.583 494.075 274.25C491.742 271.883 490.575 268.783 490.575 264.95C490.575 261.117 491.742 258.033 494.075 255.7C496.409 253.367 499.542 252.2 503.475 252.2C507.042 252.2 509.942 253.083 512.175 254.85C514.409 256.617 515.675 259.017 515.975 262.05H508.325C507.759 259.783 506.159 258.65 503.525 258.65C501.859 258.65 500.559 259.2 499.625 260.3C498.692 261.4 498.225 262.95 498.225 264.95C498.225 266.95 498.692 268.5 499.625 269.6C500.559 270.7 501.859 271.25 503.525 271.25C506.159 271.25 507.759 270.183 508.325 268.05H515.975C515.675 271.017 514.409 273.383 512.175 275.15C509.942 276.883 507.042 277.75 503.475 277.75ZM545.006 277H535.656L528.006 266.55V277H520.356V242H528.006V262.95L535.856 252.9H544.856L535.256 264.3L545.006 277ZM556.985 277.65C554.118 277.65 551.918 276.8 550.385 275.1C548.851 273.367 548.085 270.933 548.085 267.8V252.9H555.835V266.1C555.835 269.5 557.168 271.2 559.835 271.2C562.935 271.2 564.485 269.417 564.485 265.85V252.9H572.085V277H564.485V273.55C563.051 276.283 560.551 277.65 556.985 277.65ZM593.913 252.25C597.213 252.25 599.879 253.417 601.913 255.75C603.979 258.083 605.013 261.15 605.013 264.95C605.013 268.717 603.963 271.783 601.863 274.15C599.763 276.483 597.046 277.65 593.713 277.65C591.979 277.65 590.429 277.267 589.063 276.5C587.696 275.733 586.696 274.767 586.063 273.6V287H578.413V252.9H586.063V256.35C586.696 255.15 587.729 254.167 589.163 253.4C590.596 252.633 592.179 252.25 593.913 252.25ZM591.513 271.3C593.179 271.3 594.546 270.717 595.613 269.55C596.679 268.35 597.213 266.817 597.213 264.95C597.213 263.083 596.679 261.567 595.613 260.4C594.546 259.233 593.179 258.65 591.513 258.65C589.779 258.65 588.379 259.233 587.313 260.4C586.246 261.567 585.713 263.083 585.713 264.95C585.713 266.85 586.246 268.383 587.313 269.55C588.413 270.717 589.813 271.3 591.513 271.3ZM631.372 277.65C627.872 277.65 625.105 276.467 623.072 274.1C621.039 271.733 620.022 268.683 620.022 264.95C620.022 261.283 621.072 258.25 623.172 255.85C625.272 253.45 628.039 252.25 631.472 252.25C633.172 252.25 634.689 252.617 636.022 253.35C637.355 254.083 638.355 255.083 639.022 256.35V252.9H646.622V277H639.022V273.6C638.355 274.8 637.322 275.783 635.922 276.55C634.555 277.283 633.039 277.65 631.372 277.65ZM633.572 271.3C635.405 271.3 636.822 270.7 637.822 269.5C638.822 268.3 639.322 266.783 639.322 264.95C639.322 263.15 638.822 261.65 637.822 260.45C636.822 259.25 635.405 258.65 633.572 258.65C631.839 258.65 630.439 259.233 629.372 260.4C628.339 261.567 627.822 263.083 627.822 264.95C627.822 266.817 628.339 268.35 629.372 269.55C630.439 270.717 631.839 271.3 633.572 271.3ZM652.973 277V252.9H660.623V256.4C662.057 253.633 664.657 252.25 668.423 252.25C674.29 252.25 677.223 255.533 677.223 262.1V277H669.523V264.6C669.523 262.533 669.19 261.033 668.523 260.1C667.89 259.167 666.807 258.7 665.273 258.7C662.173 258.7 660.623 260.6 660.623 264.4V277H652.973ZM700.544 242H708.194V277H700.594V273.6C699.928 274.8 698.894 275.783 697.494 276.55C696.128 277.283 694.611 277.65 692.944 277.65C689.444 277.65 686.678 276.467 684.644 274.1C682.611 271.733 681.594 268.683 681.594 264.95C681.594 261.283 682.644 258.25 684.744 255.85C686.844 253.45 689.611 252.25 693.044 252.25C694.744 252.25 696.261 252.617 697.594 253.35C698.928 254.083 699.928 255.083 700.594 256.35V254.3H700.544V242ZM695.144 271.3C696.978 271.3 698.394 270.7 699.394 269.5C700.394 268.3 700.894 266.783 700.894 264.95C700.894 263.15 700.394 261.65 699.394 260.45C698.394 259.25 696.978 258.65 695.144 258.65C693.411 258.65 692.011 259.233 690.944 260.4C689.911 261.567 689.394 263.083 689.394 264.95C689.394 266.817 689.911 268.35 690.944 269.55C692.011 270.717 693.411 271.3 695.144 271.3ZM272.947 326.05C274.014 326.05 274.897 326 275.597 325.9V332C274.131 332.267 272.431 332.4 270.497 332.4C269.631 332.4 268.864 332.35 268.197 332.25C267.531 332.15 266.781 331.933 265.947 331.6C265.114 331.233 264.431 330.75 263.897 330.15C263.364 329.55 262.897 328.683 262.497 327.55C262.131 326.417 261.947 325.083 261.947 323.55V313.95H258.147V307.9H261.947V300.75H269.597V307.9H275.047V313.95H269.597V321.95C269.597 323.583 269.881 324.683 270.447 325.25C271.014 325.783 271.847 326.05 272.947 326.05ZM303.675 318.7C303.675 319.7 303.609 320.817 303.475 322.05H285.675C285.742 323.617 286.275 324.833 287.275 325.7C288.275 326.567 289.625 327 291.325 327C293.659 327 295.159 326.25 295.825 324.75H303.325C302.959 327.117 301.659 329.05 299.425 330.55C297.225 332.017 294.525 332.75 291.325 332.75C287.225 332.75 283.992 331.617 281.625 329.35C279.259 327.083 278.075 323.95 278.075 319.95C278.075 316.017 279.259 312.917 281.625 310.65C283.992 308.35 287.142 307.2 291.075 307.2C294.809 307.2 297.842 308.267 300.175 310.4C302.509 312.533 303.675 315.3 303.675 318.7ZM285.675 317.3H296.125C296.092 315.7 295.642 314.467 294.775 313.6C293.909 312.733 292.659 312.3 291.025 312.3C289.392 312.3 288.092 312.767 287.125 313.7C286.192 314.6 285.709 315.8 285.675 317.3ZM308.051 332V307.9H315.701V311.4C316.235 310.167 317.101 309.167 318.301 308.4C319.535 307.633 320.968 307.25 322.601 307.25C326.401 307.25 328.918 308.733 330.151 311.7C330.818 310.367 331.835 309.3 333.201 308.5C334.568 307.667 336.118 307.25 337.851 307.25C343.551 307.25 346.401 310.517 346.401 317.05V332H338.701V318.45C338.701 315.283 337.501 313.7 335.101 313.7C332.401 313.7 331.051 315.667 331.051 319.6V332H323.351V318.4C323.351 315.267 322.168 313.7 319.801 313.7C318.468 313.7 317.451 314.15 316.751 315.05C316.051 315.917 315.701 317.433 315.701 319.6V332H308.051ZM367.936 307.25C371.236 307.25 373.903 308.417 375.936 310.75C378.003 313.083 379.036 316.15 379.036 319.95C379.036 323.717 377.986 326.783 375.886 329.15C373.786 331.483 371.069 332.65 367.736 332.65C366.003 332.65 364.453 332.267 363.086 331.5C361.719 330.733 360.719 329.767 360.086 328.6V342H352.436V307.9H360.086V311.35C360.719 310.15 361.753 309.167 363.186 308.4C364.619 307.633 366.203 307.25 367.936 307.25ZM365.536 326.3C367.203 326.3 368.569 325.717 369.636 324.55C370.703 323.35 371.236 321.817 371.236 319.95C371.236 318.083 370.703 316.567 369.636 315.4C368.569 314.233 367.203 313.65 365.536 313.65C363.803 313.65 362.403 314.233 361.336 315.4C360.269 316.567 359.736 318.083 359.736 319.95C359.736 321.85 360.269 323.383 361.336 324.55C362.436 325.717 363.836 326.3 365.536 326.3ZM383.637 332V297H391.287V332H383.637ZM407.202 332.65C403.702 332.65 400.935 331.467 398.902 329.1C396.869 326.733 395.852 323.683 395.852 319.95C395.852 316.283 396.902 313.25 399.002 310.85C401.102 308.45 403.869 307.25 407.302 307.25C409.002 307.25 410.519 307.617 411.852 308.35C413.185 309.083 414.185 310.083 414.852 311.35V307.9H422.452V332H414.852V328.6C414.185 329.8 413.152 330.783 411.752 331.55C410.385 332.283 408.869 332.65 407.202 332.65ZM409.402 326.3C411.235 326.3 412.652 325.7 413.652 324.5C414.652 323.3 415.152 321.783 415.152 319.95C415.152 318.15 414.652 316.65 413.652 315.45C412.652 314.25 411.235 313.65 409.402 313.65C407.669 313.65 406.269 314.233 405.202 315.4C404.169 316.567 403.652 318.083 403.652 319.95C403.652 321.817 404.169 323.35 405.202 324.55C406.269 325.717 407.669 326.3 409.402 326.3ZM441.453 326.05C442.52 326.05 443.403 326 444.103 325.9V332C442.637 332.267 440.937 332.4 439.003 332.4C438.137 332.4 437.37 332.35 436.703 332.25C436.037 332.15 435.287 331.933 434.453 331.6C433.62 331.233 432.937 330.75 432.403 330.15C431.87 329.55 431.403 328.683 431.003 327.55C430.637 326.417 430.453 325.083 430.453 323.55V313.95H426.653V307.9H430.453V300.75H438.103V307.9H443.553V313.95H438.103V321.95C438.103 323.583 438.387 324.683 438.953 325.25C439.52 325.783 440.353 326.05 441.453 326.05ZM472.181 318.7C472.181 319.7 472.114 320.817 471.981 322.05H454.181C454.248 323.617 454.781 324.833 455.781 325.7C456.781 326.567 458.131 327 459.831 327C462.164 327 463.664 326.25 464.331 324.75H471.831C471.464 327.117 470.164 329.05 467.931 330.55C465.731 332.017 463.031 332.75 459.831 332.75C455.731 332.75 452.498 331.617 450.131 329.35C447.764 327.083 446.581 323.95 446.581 319.95C446.581 316.017 447.764 312.917 450.131 310.65C452.498 308.35 455.648 307.2 459.581 307.2C463.314 307.2 466.348 308.267 468.681 310.4C471.014 312.533 472.181 315.3 472.181 318.7ZM454.181 317.3H464.631C464.598 315.7 464.148 314.467 463.281 313.6C462.414 312.733 461.164 312.3 459.531 312.3C457.898 312.3 456.598 312.767 455.631 313.7C454.698 314.6 454.214 315.8 454.181 317.3ZM486.305 332.75C482.838 332.75 480.072 332 478.005 330.5C475.938 329 474.905 327.083 474.905 324.75H482.505C482.505 325.583 482.872 326.267 483.605 326.8C484.338 327.333 485.288 327.6 486.455 327.6C487.288 327.6 487.955 327.4 488.455 327C488.988 326.6 489.255 326.05 489.255 325.35C489.255 324.25 488.672 323.567 487.505 323.3L481.605 321.8C479.638 321.3 478.138 320.45 477.105 319.25C476.072 318.05 475.555 316.583 475.555 314.85C475.555 312.583 476.488 310.75 478.355 309.35C480.222 307.917 482.722 307.2 485.855 307.2C489.322 307.2 491.972 307.867 493.805 309.2C495.672 310.533 496.605 312.367 496.605 314.7H489.055C489.055 313.867 488.755 313.217 488.155 312.75C487.588 312.283 486.788 312.05 485.755 312.05C484.922 312.05 484.255 312.233 483.755 312.6C483.255 312.967 483.005 313.45 483.005 314.05C483.005 315.117 483.688 315.833 485.055 316.2L490.755 317.75C492.655 318.25 494.138 319.083 495.205 320.25C496.305 321.383 496.855 322.783 496.855 324.45C496.855 326.95 495.905 328.967 494.005 330.5C492.138 332 489.572 332.75 486.305 332.75ZM529.264 307.25C532.564 307.25 535.231 308.417 537.264 310.75C539.331 313.083 540.364 316.15 540.364 319.95C540.364 323.717 539.314 326.783 537.214 329.15C535.114 331.483 532.398 332.65 529.064 332.65C527.331 332.65 525.781 332.267 524.414 331.5C523.048 330.733 522.048 329.767 521.414 328.6V342H513.764V307.9H521.414V311.35C522.048 310.15 523.081 309.167 524.514 308.4C525.948 307.633 527.531 307.25 529.264 307.25ZM526.864 326.3C528.531 326.3 529.898 325.717 530.964 324.55C532.031 323.35 532.564 321.817 532.564 319.95C532.564 318.083 532.031 316.567 530.964 315.4C529.898 314.233 528.531 313.65 526.864 313.65C525.131 313.65 523.731 314.233 522.664 315.4C521.598 316.567 521.064 318.083 521.064 319.95C521.064 321.85 521.598 323.383 522.664 324.55C523.764 325.717 525.164 326.3 526.864 326.3ZM554.712 332.65C551.212 332.65 548.445 331.467 546.412 329.1C544.379 326.733 543.362 323.683 543.362 319.95C543.362 316.283 544.412 313.25 546.512 310.85C548.612 308.45 551.379 307.25 554.812 307.25C556.512 307.25 558.029 307.617 559.362 308.35C560.695 309.083 561.695 310.083 562.362 311.35V307.9H569.962V332H562.362V328.6C561.695 329.8 560.662 330.783 559.262 331.55C557.895 332.283 556.379 332.65 554.712 332.65ZM556.912 326.3C558.745 326.3 560.162 325.7 561.162 324.5C562.162 323.3 562.662 321.783 562.662 319.95C562.662 318.15 562.162 316.65 561.162 315.45C560.162 314.25 558.745 313.65 556.912 313.65C555.179 313.65 553.779 314.233 552.712 315.4C551.679 316.567 551.162 318.083 551.162 319.95C551.162 321.817 551.679 323.35 552.712 324.55C553.779 325.717 555.179 326.3 556.912 326.3ZM587.313 332.75C583.38 332.75 580.246 331.583 577.913 329.25C575.58 326.883 574.413 323.783 574.413 319.95C574.413 316.117 575.58 313.033 577.913 310.7C580.246 308.367 583.38 307.2 587.313 307.2C590.88 307.2 593.78 308.083 596.013 309.85C598.246 311.617 599.513 314.017 599.813 317.05H592.163C591.596 314.783 589.996 313.65 587.363 313.65C585.696 313.65 584.396 314.2 583.463 315.3C582.53 316.4 582.063 317.95 582.063 319.95C582.063 321.95 582.53 323.5 583.463 324.6C584.396 325.7 585.696 326.25 587.363 326.25C589.996 326.25 591.596 325.183 592.163 323.05H599.813C599.513 326.017 598.246 328.383 596.013 330.15C593.78 331.883 590.88 332.75 587.313 332.75ZM628.844 332H619.494L611.844 321.55V332H604.194V297H611.844V317.95L619.694 307.9H628.694L619.094 319.3L628.844 332Z" fill="white"/>
<rect x="409" y="140" width="70" height="70" rx="35" fill="#6742D1"/>
<path d="M189.915 386.264C188.507 386.264 187.319 385.868 186.351 385.076C185.383 384.269 184.855 383.243 184.767 381.996H187.319C187.363 382.627 187.635 383.125 188.133 383.492C188.632 383.844 189.241 384.02 189.959 384.02C190.869 384.02 191.58 383.741 192.093 383.184C192.621 382.627 192.885 381.879 192.885 380.94C192.885 380.016 192.643 379.275 192.159 378.718C191.69 378.161 191.052 377.882 190.245 377.882C188.823 377.882 187.855 378.461 187.341 379.62H185.031V371.04H194.425V373.284H187.319V377.156C188.082 376.276 189.175 375.836 190.597 375.836C192.035 375.836 193.179 376.298 194.029 377.222C194.88 378.131 195.305 379.341 195.305 380.852C195.305 382.392 194.814 383.683 193.831 384.724C192.849 385.751 191.543 386.264 189.915 386.264ZM207.295 384.306C206.327 385.611 204.904 386.264 203.027 386.264C201.15 386.264 199.72 385.611 198.737 384.306C197.769 382.986 197.285 381.057 197.285 378.52C197.285 375.983 197.769 374.061 198.737 372.756C199.72 371.436 201.15 370.776 203.027 370.776C204.904 370.776 206.327 371.436 207.295 372.756C208.278 374.061 208.769 375.983 208.769 378.52C208.769 381.057 208.278 382.986 207.295 384.306ZM199.683 378.52C199.683 382.216 200.798 384.064 203.027 384.064C205.256 384.064 206.371 382.216 206.371 378.52C206.371 374.824 205.256 372.976 203.027 372.976C200.798 372.976 199.683 374.824 199.683 378.52ZM214.166 383.514V380.148H210.866V378.014H214.166V374.626H216.454V378.014H219.754V380.148H216.454V383.514H214.166ZM230.378 373.768C230.04 374.105 229.615 374.274 229.102 374.274C228.588 374.274 228.163 374.105 227.826 373.768C227.488 373.416 227.32 372.991 227.32 372.492C227.32 371.993 227.488 371.575 227.826 371.238C228.163 370.886 228.588 370.71 229.102 370.71C229.615 370.71 230.04 370.886 230.378 371.238C230.715 371.575 230.884 371.993 230.884 372.492C230.884 372.991 230.715 373.416 230.378 373.768ZM227.892 386V375.748H230.29V386H227.892ZM239.156 370.6C240.696 370.6 241.957 371.106 242.94 372.118C243.937 373.13 244.436 374.421 244.436 375.99C244.436 377.559 243.937 378.85 242.94 379.862C241.957 380.874 240.696 381.38 239.156 381.38H236.01V386H233.48V370.6H239.156ZM239.002 379.114C239.838 379.114 240.527 378.821 241.07 378.234C241.627 377.633 241.906 376.885 241.906 375.99C241.906 375.095 241.627 374.355 241.07 373.768C240.527 373.167 239.838 372.866 239.002 372.866H236.01V379.114H239.002ZM251.938 375.484C254.432 375.484 255.678 376.841 255.678 379.554V386H253.28V380.654C253.28 379.539 253.112 378.74 252.774 378.256C252.437 377.772 251.858 377.53 251.036 377.53C250.259 377.53 249.658 377.779 249.232 378.278C248.807 378.762 248.594 379.459 248.594 380.368V386H246.196V370.6H248.594V377.178C249.254 376.049 250.369 375.484 251.938 375.484ZM267.237 384.746C266.269 385.758 264.957 386.264 263.299 386.264C261.642 386.264 260.322 385.758 259.339 384.746C258.371 383.719 257.887 382.429 257.887 380.874C257.887 379.319 258.371 378.036 259.339 377.024C260.322 375.997 261.642 375.484 263.299 375.484C264.957 375.484 266.269 375.997 267.237 377.024C268.22 378.036 268.711 379.319 268.711 380.874C268.711 382.429 268.22 383.719 267.237 384.746ZM261.077 383.228C261.62 383.829 262.361 384.13 263.299 384.13C264.238 384.13 264.971 383.829 265.499 383.228C266.042 382.627 266.313 381.842 266.313 380.874C266.313 379.906 266.042 379.121 265.499 378.52C264.971 377.919 264.238 377.618 263.299 377.618C262.361 377.618 261.62 377.919 261.077 378.52C260.549 379.121 260.285 379.906 260.285 380.874C260.285 381.842 260.549 382.627 261.077 383.228ZM271.011 386V375.748H273.409V377.178C274.069 376.049 275.183 375.484 276.753 375.484C279.246 375.484 280.493 376.841 280.493 379.554V386H278.095V380.654C278.095 379.539 277.926 378.74 277.589 378.256C277.251 377.772 276.672 377.53 275.851 377.53C275.073 377.53 274.472 377.779 274.047 378.278C273.621 378.762 273.409 379.459 273.409 380.368V386H271.011ZM292.756 380.346C292.756 380.61 292.734 381.05 292.69 381.666H285.078C285.107 382.473 285.371 383.096 285.87 383.536C286.368 383.961 287.058 384.174 287.938 384.174C289.067 384.174 289.83 383.785 290.226 383.008H292.646C292.484 383.961 291.964 384.746 291.084 385.362C290.218 385.963 289.17 386.264 287.938 386.264C286.324 386.264 285.048 385.78 284.11 384.812C283.171 383.844 282.702 382.531 282.702 380.874C282.702 379.231 283.164 377.926 284.088 376.958C285.026 375.975 286.28 375.484 287.85 375.484C289.316 375.484 290.497 375.939 291.392 376.848C292.301 377.743 292.756 378.909 292.756 380.346ZM285.078 379.84H290.402C290.387 379.048 290.152 378.439 289.698 378.014C289.258 377.589 288.627 377.376 287.806 377.376C286.97 377.376 286.31 377.603 285.826 378.058C285.342 378.513 285.092 379.107 285.078 379.84ZM302.971 386V375.704H299.803V373.592C301.153 373.592 302.055 373.409 302.509 373.042C302.964 372.661 303.191 371.993 303.191 371.04H305.479V386H302.971ZM314.113 386.264C312.367 386.264 311.003 385.802 310.021 384.878C309.053 383.954 308.569 382.663 308.569 381.006H311.143C311.143 382.003 311.399 382.773 311.913 383.316C312.426 383.859 313.159 384.13 314.113 384.13C314.89 384.13 315.521 383.91 316.005 383.47C316.489 383.03 316.731 382.451 316.731 381.732C316.731 380.089 315.792 379.268 313.915 379.268H312.859V377.09H313.937C315.535 377.09 316.335 376.357 316.335 374.89C316.335 374.289 316.115 373.805 315.675 373.438C315.249 373.057 314.699 372.866 314.025 372.866C313.218 372.866 312.58 373.101 312.111 373.57C311.656 374.025 311.429 374.655 311.429 375.462H308.943C308.943 374.025 309.397 372.888 310.307 372.052C311.231 371.201 312.47 370.776 314.025 370.776C315.491 370.776 316.672 371.157 317.567 371.92C318.461 372.668 318.909 373.658 318.909 374.89C318.909 376.503 318.065 377.581 316.379 378.124C317.259 378.285 317.963 378.689 318.491 379.334C319.019 379.979 319.283 380.771 319.283 381.71C319.283 383.045 318.799 384.137 317.831 384.988C316.877 385.839 315.638 386.264 314.113 386.264ZM327.429 386V375.748H329.827V377.178C330.061 376.679 330.435 376.276 330.949 375.968C331.462 375.645 332.041 375.484 332.687 375.484C334.315 375.484 335.393 376.093 335.921 377.31C336.17 376.782 336.581 376.349 337.153 376.012C337.725 375.66 338.363 375.484 339.067 375.484C341.531 375.484 342.763 376.826 342.763 379.51V386H340.365V379.972C340.365 378.344 339.727 377.53 338.451 377.53C337.776 377.53 337.248 377.757 336.867 378.212C336.485 378.652 336.295 379.437 336.295 380.566V386H333.897V379.95C333.897 378.337 333.273 377.53 332.027 377.53C331.337 377.53 330.795 377.757 330.399 378.212C330.017 378.652 329.827 379.437 329.827 380.566V386H327.429ZM354.313 384.746C353.345 385.758 352.033 386.264 350.375 386.264C348.718 386.264 347.398 385.758 346.415 384.746C345.447 383.719 344.963 382.429 344.963 380.874C344.963 379.319 345.447 378.036 346.415 377.024C347.398 375.997 348.718 375.484 350.375 375.484C352.033 375.484 353.345 375.997 354.313 377.024C355.296 378.036 355.787 379.319 355.787 380.874C355.787 382.429 355.296 383.719 354.313 384.746ZM348.153 383.228C348.696 383.829 349.437 384.13 350.375 384.13C351.314 384.13 352.047 383.829 352.575 383.228C353.118 382.627 353.389 381.842 353.389 380.874C353.389 379.906 353.118 379.121 352.575 378.52C352.047 377.919 351.314 377.618 350.375 377.618C349.437 377.618 348.696 377.919 348.153 378.52C347.625 379.121 347.361 379.906 347.361 380.874C347.361 381.842 347.625 382.627 348.153 383.228ZM362.636 386.264C361.066 386.264 359.82 385.773 358.896 384.79C357.986 383.793 357.532 382.487 357.532 380.874C357.532 379.261 357.986 377.963 358.896 376.98C359.82 375.983 361.066 375.484 362.636 375.484C364.044 375.484 365.173 375.843 366.024 376.562C366.889 377.266 367.38 378.212 367.498 379.4H365.1C364.836 378.212 364.014 377.618 362.636 377.618C361.785 377.618 361.118 377.904 360.634 378.476C360.164 379.033 359.93 379.833 359.93 380.874C359.93 381.915 360.164 382.722 360.634 383.294C361.118 383.851 361.785 384.13 362.636 384.13C364 384.13 364.821 383.573 365.1 382.458H367.498C367.38 383.617 366.889 384.541 366.024 385.23C365.173 385.919 364.044 386.264 362.636 386.264ZM379.123 375.748L374.679 380.654L379.123 386H375.977L372.215 381.336V386H369.817V370.6H372.215V380.236L376.087 375.748H379.123ZM384.47 386.264C383.312 386.264 382.388 385.919 381.698 385.23C381.009 384.541 380.664 383.529 380.664 382.194V375.748H383.062V381.6C383.062 382.465 383.224 383.118 383.546 383.558C383.869 383.998 384.404 384.218 385.152 384.218C386.018 384.218 386.648 383.976 387.044 383.492C387.44 382.993 387.638 382.341 387.638 381.534V375.748H390.036V386H387.638V384.57C387.008 385.699 385.952 386.264 384.47 386.264ZM398.936 375.484C400.403 375.484 401.584 375.983 402.478 376.98C403.373 377.963 403.82 379.261 403.82 380.874C403.82 382.458 403.351 383.756 402.412 384.768C401.474 385.765 400.264 386.264 398.782 386.264C398.108 386.264 397.47 386.117 396.868 385.824C396.267 385.516 395.812 385.113 395.504 384.614V390.62H393.106V375.748H395.504V377.134C395.812 376.635 396.282 376.239 396.912 375.946C397.543 375.638 398.218 375.484 398.936 375.484ZM398.43 384.13C399.31 384.13 400.029 383.829 400.586 383.228C401.144 382.612 401.422 381.827 401.422 380.874C401.422 379.921 401.144 379.143 400.586 378.542C400.029 377.926 399.31 377.618 398.43 377.618C397.521 377.618 396.788 377.919 396.23 378.52C395.673 379.121 395.394 379.906 395.394 380.874C395.394 381.842 395.673 382.627 396.23 383.228C396.788 383.829 397.521 384.13 398.43 384.13ZM409.712 386.264C408.421 386.264 407.373 385.934 406.566 385.274C405.759 384.614 405.356 383.807 405.356 382.854H407.754C407.754 383.294 407.945 383.653 408.326 383.932C408.722 384.211 409.228 384.35 409.844 384.35C410.299 384.35 410.658 384.24 410.922 384.02C411.186 383.8 411.318 383.507 411.318 383.14C411.318 382.553 411.061 382.194 410.548 382.062L407.908 381.336C406.427 380.925 405.686 379.979 405.686 378.498C405.686 377.647 406.053 376.936 406.786 376.364C407.519 375.777 408.465 375.484 409.624 375.484C410.929 375.484 411.927 375.777 412.616 376.364C413.32 376.951 413.672 377.721 413.672 378.674H411.318C411.318 378.249 411.157 377.919 410.834 377.684C410.526 377.435 410.093 377.31 409.536 377.31C409.111 377.31 408.759 377.413 408.48 377.618C408.201 377.809 408.062 378.058 408.062 378.366C408.062 378.923 408.355 379.29 408.942 379.466L411.384 380.17C412.088 380.375 412.66 380.727 413.1 381.226C413.54 381.71 413.76 382.275 413.76 382.92C413.76 383.917 413.401 384.724 412.682 385.34C411.978 385.956 410.988 386.264 409.712 386.264ZM425.949 386.264C424.35 386.264 423.111 385.758 422.231 384.746C421.351 383.734 420.911 382.443 420.911 380.874C420.911 379.319 421.373 378.036 422.297 377.024C423.221 375.997 424.46 375.484 426.015 375.484C426.704 375.484 427.335 375.631 427.907 375.924C428.479 376.217 428.919 376.621 429.227 377.134V375.748H431.625V386H429.227V384.614C428.933 385.113 428.471 385.516 427.841 385.824C427.225 386.117 426.594 386.264 425.949 386.264ZM426.301 384.13C427.283 384.13 428.031 383.822 428.545 383.206C429.073 382.59 429.337 381.813 429.337 380.874C429.337 379.935 429.073 379.158 428.545 378.542C428.031 377.926 427.283 377.618 426.301 377.618C425.377 377.618 424.643 377.926 424.101 378.542C423.573 379.143 423.309 379.921 423.309 380.874C423.309 381.827 423.573 382.612 424.101 383.228C424.643 383.829 425.377 384.13 426.301 384.13ZM434.7 386V375.748H437.098V377.178C437.758 376.049 438.873 375.484 440.442 375.484C442.935 375.484 444.182 376.841 444.182 379.554V386H441.784V380.654C441.784 379.539 441.615 378.74 441.278 378.256C440.941 377.772 440.361 377.53 439.54 377.53C438.763 377.53 438.161 377.779 437.736 378.278C437.311 378.762 437.098 379.459 437.098 380.368V386H434.7ZM454.707 370.6H457.105V386H454.707V384.614C454.414 385.113 453.952 385.516 453.321 385.824C452.705 386.117 452.074 386.264 451.429 386.264C449.83 386.264 448.591 385.758 447.711 384.746C446.831 383.734 446.391 382.443 446.391 380.874C446.391 379.319 446.853 378.036 447.777 377.024C448.701 375.997 449.94 375.484 451.495 375.484C452.184 375.484 452.815 375.631 453.387 375.924C453.959 376.217 454.399 376.621 454.707 377.134V370.6ZM451.781 384.13C452.764 384.13 453.512 383.822 454.025 383.206C454.553 382.59 454.817 381.813 454.817 380.874C454.817 379.935 454.553 379.158 454.025 378.542C453.512 377.926 452.764 377.618 451.781 377.618C450.857 377.618 450.124 377.926 449.581 378.542C449.053 379.143 448.789 379.921 448.789 380.874C448.789 381.827 449.053 382.612 449.581 383.228C450.124 383.829 450.857 384.13 451.781 384.13ZM470.323 383.976C470.807 383.976 471.21 383.947 471.533 383.888V386C471.034 386.088 470.44 386.132 469.751 386.132C469.355 386.132 469.01 386.103 468.717 386.044C468.423 385.985 468.079 385.853 467.683 385.648C467.287 385.428 466.979 385.054 466.759 384.526C466.539 383.998 466.429 383.331 466.429 382.524V377.75H464.691V375.748H466.429V372.646H468.827V375.748H471.181V377.75H468.827V381.974C468.827 382.795 468.944 383.338 469.179 383.602C469.413 383.851 469.795 383.976 470.323 383.976ZM482.914 380.346C482.914 380.61 482.892 381.05 482.848 381.666H475.236C475.265 382.473 475.529 383.096 476.028 383.536C476.527 383.961 477.216 384.174 478.096 384.174C479.225 384.174 479.988 383.785 480.384 383.008H482.804C482.643 383.961 482.122 384.746 481.242 385.362C480.377 385.963 479.328 386.264 478.096 386.264C476.483 386.264 475.207 385.78 474.268 384.812C473.329 383.844 472.86 382.531 472.86 380.874C472.86 379.231 473.322 377.926 474.246 376.958C475.185 375.975 476.439 375.484 478.008 375.484C479.475 375.484 480.655 375.939 481.55 376.848C482.459 377.743 482.914 378.909 482.914 380.346ZM475.236 379.84H480.56C480.545 379.048 480.311 378.439 479.856 378.014C479.416 377.589 478.785 377.376 477.964 377.376C477.128 377.376 476.468 377.603 475.984 378.058C475.5 378.513 475.251 379.107 475.236 379.84ZM485.231 386V375.748H487.629V377.178C487.864 376.679 488.238 376.276 488.751 375.968C489.265 375.645 489.844 375.484 490.489 375.484C492.117 375.484 493.195 376.093 493.723 377.31C493.973 376.782 494.383 376.349 494.955 376.012C495.527 375.66 496.165 375.484 496.869 375.484C499.333 375.484 500.565 376.826 500.565 379.51V386H498.167V379.972C498.167 378.344 497.529 377.53 496.253 377.53C495.579 377.53 495.051 377.757 494.669 378.212C494.288 378.652 494.097 379.437 494.097 380.566V386H491.699V379.95C491.699 378.337 491.076 377.53 489.829 377.53C489.14 377.53 488.597 377.757 488.201 378.212C487.82 378.652 487.629 379.437 487.629 380.566V386H485.231ZM509.366 375.484C510.833 375.484 512.013 375.983 512.908 376.98C513.803 377.963 514.25 379.261 514.25 380.874C514.25 382.458 513.781 383.756 512.842 384.768C511.903 385.765 510.693 386.264 509.212 386.264C508.537 386.264 507.899 386.117 507.298 385.824C506.697 385.516 506.242 385.113 505.934 384.614V390.62H503.536V375.748H505.934V377.134C506.242 376.635 506.711 376.239 507.342 375.946C507.973 375.638 508.647 375.484 509.366 375.484ZM508.86 384.13C509.74 384.13 510.459 383.829 511.016 383.228C511.573 382.612 511.852 381.827 511.852 380.874C511.852 379.921 511.573 379.143 511.016 378.542C510.459 377.926 509.74 377.618 508.86 377.618C507.951 377.618 507.217 377.919 506.66 378.52C506.103 379.121 505.824 379.906 505.824 380.874C505.824 381.842 506.103 382.627 506.66 383.228C507.217 383.829 507.951 384.13 508.86 384.13ZM516.556 386V370.6H518.954V386H516.556ZM526.302 386.264C524.703 386.264 523.464 385.758 522.584 384.746C521.704 383.734 521.264 382.443 521.264 380.874C521.264 379.319 521.726 378.036 522.65 377.024C523.574 375.997 524.813 375.484 526.368 375.484C527.057 375.484 527.688 375.631 528.26 375.924C528.832 376.217 529.272 376.621 529.58 377.134V375.748H531.978V386H529.58V384.614C529.287 385.113 528.825 385.516 528.194 385.824C527.578 386.117 526.947 386.264 526.302 386.264ZM526.654 384.13C527.637 384.13 528.385 383.822 528.898 383.206C529.426 382.59 529.69 381.813 529.69 380.874C529.69 379.935 529.426 379.158 528.898 378.542C528.385 377.926 527.637 377.618 526.654 377.618C525.73 377.618 524.997 377.926 524.454 378.542C523.926 379.143 523.662 379.921 523.662 380.874C523.662 381.827 523.926 382.612 524.454 383.228C524.997 383.829 525.73 384.13 526.654 384.13ZM539.696 383.976C540.18 383.976 540.583 383.947 540.906 383.888V386C540.407 386.088 539.813 386.132 539.124 386.132C538.728 386.132 538.383 386.103 538.09 386.044C537.796 385.985 537.452 385.853 537.056 385.648C536.66 385.428 536.352 385.054 536.132 384.526C535.912 383.998 535.802 383.331 535.802 382.524V377.75H534.064V375.748H535.802V372.646H538.2V375.748H540.554V377.75H538.2V381.974C538.2 382.795 538.317 383.338 538.552 383.602C538.786 383.851 539.168 383.976 539.696 383.976ZM552.287 380.346C552.287 380.61 552.265 381.05 552.221 381.666H544.609C544.638 382.473 544.902 383.096 545.401 383.536C545.9 383.961 546.589 384.174 547.469 384.174C548.598 384.174 549.361 383.785 549.757 383.008H552.177C552.016 383.961 551.495 384.746 550.615 385.362C549.75 385.963 548.701 386.264 547.469 386.264C545.856 386.264 544.58 385.78 543.641 384.812C542.702 383.844 542.233 382.531 542.233 380.874C542.233 379.231 542.695 377.926 543.619 376.958C544.558 375.975 545.812 375.484 547.381 375.484C548.848 375.484 550.028 375.939 550.923 376.848C551.832 377.743 552.287 378.909 552.287 380.346ZM544.609 379.84H549.933C549.918 379.048 549.684 378.439 549.229 378.014C548.789 377.589 548.158 377.376 547.337 377.376C546.501 377.376 545.841 377.603 545.357 378.058C544.873 378.513 544.624 379.107 544.609 379.84ZM558.19 386.264C556.9 386.264 555.851 385.934 555.044 385.274C554.238 384.614 553.834 383.807 553.834 382.854H556.232C556.232 383.294 556.423 383.653 556.804 383.932C557.2 384.211 557.706 384.35 558.322 384.35C558.777 384.35 559.136 384.24 559.4 384.02C559.664 383.8 559.796 383.507 559.796 383.14C559.796 382.553 559.54 382.194 559.026 382.062L556.386 381.336C554.905 380.925 554.164 379.979 554.164 378.498C554.164 377.647 554.531 376.936 555.264 376.364C555.998 375.777 556.944 375.484 558.102 375.484C559.408 375.484 560.405 375.777 561.094 376.364C561.798 376.951 562.15 377.721 562.15 378.674H559.796C559.796 378.249 559.635 377.919 559.312 377.684C559.004 377.435 558.572 377.31 558.014 377.31C557.589 377.31 557.237 377.413 556.958 377.618C556.68 377.809 556.54 378.058 556.54 378.366C556.54 378.923 556.834 379.29 557.42 379.466L559.862 380.17C560.566 380.375 561.138 380.727 561.578 381.226C562.018 381.71 562.238 382.275 562.238 382.92C562.238 383.917 561.879 384.724 561.16 385.34C560.456 385.956 559.466 386.264 558.19 386.264ZM574.801 383.976C575.285 383.976 575.688 383.947 576.011 383.888V386C575.512 386.088 574.918 386.132 574.229 386.132C573.833 386.132 573.488 386.103 573.195 386.044C572.902 385.985 572.557 385.853 572.161 385.648C571.765 385.428 571.457 385.054 571.237 384.526C571.017 383.998 570.907 383.331 570.907 382.524V377.75H569.169V375.748H570.907V372.646H573.305V375.748H575.659V377.75H573.305V381.974C573.305 382.795 573.422 383.338 573.657 383.602C573.892 383.851 574.273 383.976 574.801 383.976ZM586.688 384.746C585.72 385.758 584.408 386.264 582.75 386.264C581.093 386.264 579.773 385.758 578.79 384.746C577.822 383.719 577.338 382.429 577.338 380.874C577.338 379.319 577.822 378.036 578.79 377.024C579.773 375.997 581.093 375.484 582.75 375.484C584.408 375.484 585.72 375.997 586.688 377.024C587.671 378.036 588.162 379.319 588.162 380.874C588.162 382.429 587.671 383.719 586.688 384.746ZM580.528 383.228C581.071 383.829 581.812 384.13 582.75 384.13C583.689 384.13 584.422 383.829 584.95 383.228C585.493 382.627 585.764 381.842 585.764 380.874C585.764 379.906 585.493 379.121 584.95 378.52C584.422 377.919 583.689 377.618 582.75 377.618C581.812 377.618 581.071 377.919 580.528 378.52C580 379.121 579.736 379.906 579.736 380.874C579.736 381.842 580 382.627 580.528 383.228ZM599.658 386.264C598.499 386.264 597.575 385.919 596.886 385.23C596.197 384.541 595.852 383.529 595.852 382.194V375.748H598.25V381.6C598.25 382.465 598.411 383.118 598.734 383.558C599.057 383.998 599.592 384.218 600.34 384.218C601.205 384.218 601.836 383.976 602.232 383.492C602.628 382.993 602.826 382.341 602.826 381.534V375.748H605.224V386H602.826V384.57C602.195 385.699 601.139 386.264 599.658 386.264ZM611.88 386.264C610.589 386.264 609.541 385.934 608.734 385.274C607.927 384.614 607.524 383.807 607.524 382.854H609.922C609.922 383.294 610.113 383.653 610.494 383.932C610.89 384.211 611.396 384.35 612.012 384.35C612.467 384.35 612.826 384.24 613.09 384.02C613.354 383.8 613.486 383.507 613.486 383.14C613.486 382.553 613.229 382.194 612.716 382.062L610.076 381.336C608.595 380.925 607.854 379.979 607.854 378.498C607.854 377.647 608.221 376.936 608.954 376.364C609.687 375.777 610.633 375.484 611.792 375.484C613.097 375.484 614.095 375.777 614.784 376.364C615.488 376.951 615.84 377.721 615.84 378.674H613.486C613.486 378.249 613.325 377.919 613.002 377.684C612.694 377.435 612.261 377.31 611.704 377.31C611.279 377.31 610.927 377.413 610.648 377.618C610.369 377.809 610.23 378.058 610.23 378.366C610.23 378.923 610.523 379.29 611.11 379.466L613.552 380.17C614.256 380.375 614.828 380.727 615.268 381.226C615.708 381.71 615.928 382.275 615.928 382.92C615.928 383.917 615.569 384.724 614.85 385.34C614.146 385.956 613.156 386.264 611.88 386.264ZM627.633 380.346C627.633 380.61 627.611 381.05 627.567 381.666H619.955C619.984 382.473 620.248 383.096 620.747 383.536C621.245 383.961 621.935 384.174 622.815 384.174C623.944 384.174 624.707 383.785 625.103 383.008H627.523C627.361 383.961 626.841 384.746 625.961 385.362C625.095 385.963 624.047 386.264 622.815 386.264C621.201 386.264 619.925 385.78 618.987 384.812C618.048 383.844 617.579 382.531 617.579 380.874C617.579 379.231 618.041 377.926 618.965 376.958C619.903 375.975 621.157 375.484 622.727 375.484C624.193 375.484 625.374 375.939 626.269 376.848C627.178 377.743 627.633 378.909 627.633 380.346ZM619.955 379.84H625.279C625.264 379.048 625.029 378.439 624.575 378.014C624.135 377.589 623.504 377.376 622.683 377.376C621.847 377.376 621.187 377.603 620.703 378.058C620.219 378.513 619.969 379.107 619.955 379.84ZM637.936 373.768C637.599 374.105 637.173 374.274 636.66 374.274C636.147 374.274 635.721 374.105 635.384 373.768C635.047 373.416 634.878 372.991 634.878 372.492C634.878 371.993 635.047 371.575 635.384 371.238C635.721 370.886 636.147 370.71 636.66 370.71C637.173 370.71 637.599 370.886 637.936 371.238C638.273 371.575 638.442 371.993 638.442 372.492C638.442 372.991 638.273 373.416 637.936 373.768ZM635.45 386V375.748H637.848V386H635.45ZM640.929 386V375.748H643.327V377.178C643.987 376.049 645.101 375.484 646.671 375.484C649.164 375.484 650.411 376.841 650.411 379.554V386H648.013V380.654C648.013 379.539 647.844 378.74 647.507 378.256C647.169 377.772 646.59 377.53 645.769 377.53C644.991 377.53 644.39 377.779 643.965 378.278C643.539 378.762 643.327 379.459 643.327 380.368V386H640.929ZM665.864 375.748H668.262V386.044C668.262 387.613 667.814 388.831 666.92 389.696C666.054 390.488 664.896 390.884 663.444 390.884C661.933 390.884 660.76 390.532 659.924 389.828C659.19 389.183 658.809 388.295 658.78 387.166H661.2C661.258 387.753 661.449 388.185 661.772 388.464C662.109 388.757 662.652 388.904 663.4 388.904C664.162 388.904 664.764 388.655 665.204 388.156C665.644 387.672 665.864 386.909 665.864 385.868V384.57C665.204 385.699 664.104 386.264 662.564 386.264C661.346 386.264 660.408 385.875 659.748 385.098C659.102 384.306 658.78 383.272 658.78 381.996V375.748H661.178V381.49C661.178 383.265 661.918 384.152 663.4 384.152C664.206 384.152 664.815 383.866 665.226 383.294C665.651 382.722 665.864 381.974 665.864 381.05V375.748ZM679.931 384.746C678.963 385.758 677.65 386.264 675.993 386.264C674.335 386.264 673.015 385.758 672.033 384.746C671.065 383.719 670.581 382.429 670.581 380.874C670.581 379.319 671.065 378.036 672.033 377.024C673.015 375.997 674.335 375.484 675.993 375.484C677.65 375.484 678.963 375.997 679.931 377.024C680.913 378.036 681.405 379.319 681.405 380.874C681.405 382.429 680.913 383.719 679.931 384.746ZM673.771 383.228C674.313 383.829 675.054 384.13 675.993 384.13C676.931 384.13 677.665 383.829 678.193 383.228C678.735 382.627 679.007 381.842 679.007 380.874C679.007 379.906 678.735 379.121 678.193 378.52C677.665 377.919 676.931 377.618 675.993 377.618C675.054 377.618 674.313 377.919 673.771 378.52C673.243 379.121 672.979 379.906 672.979 380.874C672.979 381.842 673.243 382.627 673.771 383.228ZM687.4 386.264C686.241 386.264 685.317 385.919 684.628 385.23C683.939 384.541 683.594 383.529 683.594 382.194V375.748H685.992V381.6C685.992 382.465 686.153 383.118 686.476 383.558C686.799 383.998 687.334 384.218 688.082 384.218C688.947 384.218 689.578 383.976 689.974 383.492C690.37 382.993 690.568 382.341 690.568 381.534V375.748H692.966V386H690.568V384.57C689.937 385.699 688.881 386.264 687.4 386.264ZM696.036 386V375.748H698.434V377.728C698.61 377.039 698.955 376.518 699.468 376.166C699.981 375.799 700.546 375.616 701.162 375.616C701.558 375.616 701.873 375.645 702.108 375.704V377.904C701.859 377.875 701.543 377.86 701.162 377.86C700.311 377.86 699.644 378.175 699.16 378.806C698.676 379.422 698.434 380.309 698.434 381.468V386H696.036ZM322.02 395.6H324.418V411H322.02V409.614C321.726 410.113 321.264 410.516 320.634 410.824C320.018 411.117 319.387 411.264 318.742 411.264C317.143 411.264 315.904 410.758 315.024 409.746C314.144 408.734 313.704 407.443 313.704 405.874C313.704 404.319 314.166 403.036 315.09 402.024C316.014 400.997 317.253 400.484 318.808 400.484C319.497 400.484 320.128 400.631 320.7 400.924C321.272 401.217 321.712 401.621 322.02 402.134V395.6ZM319.094 409.13C320.076 409.13 320.824 408.822 321.338 408.206C321.866 407.59 322.13 406.813 322.13 405.874C322.13 404.935 321.866 404.158 321.338 403.542C320.824 402.926 320.076 402.618 319.094 402.618C318.17 402.618 317.436 402.926 316.894 403.542C316.366 404.143 316.102 404.921 316.102 405.874C316.102 406.827 316.366 407.612 316.894 408.228C317.436 408.829 318.17 409.13 319.094 409.13ZM336.777 405.346C336.777 405.61 336.755 406.05 336.711 406.666H329.099C329.128 407.473 329.392 408.096 329.891 408.536C330.39 408.961 331.079 409.174 331.959 409.174C333.088 409.174 333.851 408.785 334.247 408.008H336.667C336.506 408.961 335.985 409.746 335.105 410.362C334.24 410.963 333.191 411.264 331.959 411.264C330.346 411.264 329.07 410.78 328.131 409.812C327.192 408.844 326.723 407.531 326.723 405.874C326.723 404.231 327.185 402.926 328.109 401.958C329.048 400.975 330.302 400.484 331.871 400.484C333.338 400.484 334.518 400.939 335.413 401.848C336.322 402.743 336.777 403.909 336.777 405.346ZM329.099 404.84H334.423C334.408 404.048 334.174 403.439 333.719 403.014C333.279 402.589 332.648 402.376 331.827 402.376C330.991 402.376 330.331 402.603 329.847 403.058C329.363 403.513 329.114 404.107 329.099 404.84ZM342.681 411.264C341.39 411.264 340.341 410.934 339.535 410.274C338.728 409.614 338.325 408.807 338.325 407.854H340.723C340.723 408.294 340.913 408.653 341.295 408.932C341.691 409.211 342.197 409.35 342.813 409.35C343.267 409.35 343.627 409.24 343.891 409.02C344.155 408.8 344.287 408.507 344.287 408.14C344.287 407.553 344.03 407.194 343.517 407.062L340.877 406.336C339.395 405.925 338.655 404.979 338.655 403.498C338.655 402.647 339.021 401.936 339.755 401.364C340.488 400.777 341.434 400.484 342.593 400.484C343.898 400.484 344.895 400.777 345.585 401.364C346.289 401.951 346.641 402.721 346.641 403.674H344.287C344.287 403.249 344.125 402.919 343.803 402.684C343.495 402.435 343.062 402.31 342.505 402.31C342.079 402.31 341.727 402.413 341.449 402.618C341.17 402.809 341.031 403.058 341.031 403.366C341.031 403.923 341.324 404.29 341.911 404.466L344.353 405.17C345.057 405.375 345.629 405.727 346.069 406.226C346.509 406.71 346.729 407.275 346.729 407.92C346.729 408.917 346.369 409.724 345.651 410.34C344.947 410.956 343.957 411.264 342.681 411.264ZM351.635 398.768C351.298 399.105 350.873 399.274 350.359 399.274C349.846 399.274 349.421 399.105 349.083 398.768C348.746 398.416 348.577 397.991 348.577 397.492C348.577 396.993 348.746 396.575 349.083 396.238C349.421 395.886 349.846 395.71 350.359 395.71C350.873 395.71 351.298 395.886 351.635 396.238C351.973 396.575 352.141 396.993 352.141 397.492C352.141 397.991 351.973 398.416 351.635 398.768ZM349.149 411V400.748H351.547V411H349.149ZM362.174 400.748H364.572V410.56C364.572 412.613 363.956 414.087 362.724 414.982C361.917 415.583 360.744 415.884 359.204 415.884C357.708 415.884 356.505 415.576 355.596 414.96C354.555 414.256 354.012 413.325 353.968 412.166H356.476C356.696 413.325 357.598 413.904 359.182 413.904C360.194 413.904 360.942 413.655 361.426 413.156C361.925 412.672 362.174 411.865 362.174 410.736V409.614C361.881 410.113 361.419 410.516 360.788 410.824C360.172 411.117 359.541 411.264 358.896 411.264C357.341 411.264 356.109 410.758 355.2 409.746C354.305 408.719 353.858 407.429 353.858 405.874C353.858 404.334 354.327 403.051 355.266 402.024C356.219 400.997 357.451 400.484 358.962 400.484C359.651 400.484 360.282 400.631 360.854 400.924C361.426 401.217 361.866 401.621 362.174 402.134V400.748ZM359.248 409.13C360.187 409.13 360.927 408.822 361.47 408.206C362.013 407.575 362.284 406.798 362.284 405.874C362.284 404.95 362.013 404.18 361.47 403.564C360.927 402.933 360.187 402.618 359.248 402.618C358.353 402.618 357.627 402.926 357.07 403.542C356.527 404.143 356.256 404.921 356.256 405.874C356.256 406.827 356.527 407.612 357.07 408.228C357.627 408.829 358.353 409.13 359.248 409.13ZM367.647 411V400.748H370.045V402.178C370.705 401.049 371.82 400.484 373.389 400.484C375.883 400.484 377.129 401.841 377.129 404.554V411H374.731V405.654C374.731 404.539 374.563 403.74 374.225 403.256C373.888 402.772 373.309 402.53 372.487 402.53C371.71 402.53 371.109 402.779 370.683 403.278C370.258 403.762 370.045 404.459 370.045 405.368V411H367.647ZM383.694 411.264C382.404 411.264 381.355 410.934 380.548 410.274C379.742 409.614 379.338 408.807 379.338 407.854H381.736C381.736 408.294 381.927 408.653 382.308 408.932C382.704 409.211 383.21 409.35 383.826 409.35C384.281 409.35 384.64 409.24 384.904 409.02C385.168 408.8 385.3 408.507 385.3 408.14C385.3 407.553 385.044 407.194 384.53 407.062L381.89 406.336C380.409 405.925 379.668 404.979 379.668 403.498C379.668 402.647 380.035 401.936 380.768 401.364C381.502 400.777 382.448 400.484 383.606 400.484C384.912 400.484 385.909 400.777 386.598 401.364C387.302 401.951 387.654 402.721 387.654 403.674H385.3C385.3 403.249 385.139 402.919 384.816 402.684C384.508 402.435 384.076 402.31 383.518 402.31C383.093 402.31 382.741 402.413 382.462 402.618C382.184 402.809 382.044 403.058 382.044 403.366C382.044 403.923 382.338 404.29 382.924 404.466L385.366 405.17C386.07 405.375 386.642 405.727 387.082 406.226C387.522 406.71 387.742 407.275 387.742 407.92C387.742 408.917 387.383 409.724 386.664 410.34C385.96 410.956 384.97 411.264 383.694 411.264ZM392.681 410.626C392.315 410.993 391.875 411.176 391.361 411.176C390.848 411.176 390.408 410.993 390.041 410.626C389.689 410.259 389.513 409.819 389.513 409.306C389.513 408.793 389.689 408.36 390.041 408.008C390.408 407.641 390.848 407.458 391.361 407.458C391.875 407.458 392.315 407.641 392.681 408.008C393.048 408.36 393.231 408.793 393.231 409.306C393.231 409.819 393.048 410.259 392.681 410.626ZM401.703 411V395.6H404.233V402.222H410.591V395.6H413.121V411H410.591V404.488H404.233V411H401.703ZM418.796 398.768C418.458 399.105 418.033 399.274 417.52 399.274C417.006 399.274 416.581 399.105 416.244 398.768C415.906 398.416 415.738 397.991 415.738 397.492C415.738 396.993 415.906 396.575 416.244 396.238C416.581 395.886 417.006 395.71 417.52 395.71C418.033 395.71 418.458 395.886 418.796 396.238C419.133 396.575 419.302 396.993 419.302 397.492C419.302 397.991 419.133 398.416 418.796 398.768ZM416.31 411V400.748H418.708V411H416.31ZM429.334 400.748H431.732V410.56C431.732 412.613 431.116 414.087 429.884 414.982C429.077 415.583 427.904 415.884 426.364 415.884C424.868 415.884 423.665 415.576 422.756 414.96C421.715 414.256 421.172 413.325 421.128 412.166H423.636C423.856 413.325 424.758 413.904 426.342 413.904C427.354 413.904 428.102 413.655 428.586 413.156C429.085 412.672 429.334 411.865 429.334 410.736V409.614C429.041 410.113 428.579 410.516 427.948 410.824C427.332 411.117 426.701 411.264 426.056 411.264C424.501 411.264 423.269 410.758 422.36 409.746C421.465 408.719 421.018 407.429 421.018 405.874C421.018 404.334 421.487 403.051 422.426 402.024C423.379 400.997 424.611 400.484 426.122 400.484C426.811 400.484 427.442 400.631 428.014 400.924C428.586 401.217 429.026 401.621 429.334 402.134V400.748ZM426.408 409.13C427.347 409.13 428.087 408.822 428.63 408.206C429.173 407.575 429.444 406.798 429.444 405.874C429.444 404.95 429.173 404.18 428.63 403.564C428.087 402.933 427.347 402.618 426.408 402.618C425.513 402.618 424.787 402.926 424.23 403.542C423.687 404.143 423.416 404.921 423.416 405.874C423.416 406.827 423.687 407.612 424.23 408.228C424.787 408.829 425.513 409.13 426.408 409.13ZM440.55 400.484C443.043 400.484 444.29 401.841 444.29 404.554V411H441.892V405.654C441.892 404.539 441.723 403.74 441.386 403.256C441.048 402.772 440.469 402.53 439.648 402.53C438.87 402.53 438.269 402.779 437.844 403.278C437.418 403.762 437.206 404.459 437.206 405.368V411H434.808V395.6H437.206V402.178C437.866 401.049 438.98 400.484 440.55 400.484ZM460.315 400.748H462.713V415.62H460.315V409.614C460.021 410.113 459.559 410.516 458.929 410.824C458.313 411.117 457.682 411.264 457.037 411.264C455.438 411.264 454.199 410.758 453.319 409.746C452.439 408.734 451.999 407.443 451.999 405.874C451.999 404.319 452.461 403.036 453.385 402.024C454.309 400.997 455.548 400.484 457.103 400.484C457.792 400.484 458.423 400.631 458.995 400.924C459.567 401.217 460.007 401.621 460.315 402.134V400.748ZM457.389 409.13C458.371 409.13 459.119 408.822 459.633 408.206C460.161 407.59 460.425 406.813 460.425 405.874C460.425 404.935 460.161 404.158 459.633 403.542C459.119 402.926 458.371 402.618 457.389 402.618C456.465 402.618 455.731 402.926 455.189 403.542C454.661 404.143 454.397 404.921 454.397 405.874C454.397 406.827 454.661 407.612 455.189 408.228C455.731 408.829 456.465 409.13 457.389 409.13ZM469.484 411.264C468.325 411.264 467.401 410.919 466.712 410.23C466.023 409.541 465.678 408.529 465.678 407.194V400.748H468.076V406.6C468.076 407.465 468.237 408.118 468.56 408.558C468.883 408.998 469.418 409.218 470.166 409.218C471.031 409.218 471.662 408.976 472.058 408.492C472.454 407.993 472.652 407.341 472.652 406.534V400.748H475.05V411H472.652V409.57C472.021 410.699 470.965 411.264 469.484 411.264ZM482.388 411.264C480.789 411.264 479.55 410.758 478.67 409.746C477.79 408.734 477.35 407.443 477.35 405.874C477.35 404.319 477.812 403.036 478.736 402.024C479.66 400.997 480.899 400.484 482.454 400.484C483.143 400.484 483.774 400.631 484.346 400.924C484.918 401.217 485.358 401.621 485.666 402.134V400.748H488.064V411H485.666V409.614C485.373 410.113 484.911 410.516 484.28 410.824C483.664 411.117 483.033 411.264 482.388 411.264ZM482.74 409.13C483.723 409.13 484.471 408.822 484.984 408.206C485.512 407.59 485.776 406.813 485.776 405.874C485.776 404.935 485.512 404.158 484.984 403.542C484.471 402.926 483.723 402.618 482.74 402.618C481.816 402.618 481.083 402.926 480.54 403.542C480.012 404.143 479.748 404.921 479.748 405.874C479.748 406.827 480.012 407.612 480.54 408.228C481.083 408.829 481.816 409.13 482.74 409.13ZM491.14 411V395.6H493.538V411H491.14ZM499.104 398.768C498.767 399.105 498.341 399.274 497.828 399.274C497.315 399.274 496.889 399.105 496.552 398.768C496.215 398.416 496.046 397.991 496.046 397.492C496.046 396.993 496.215 396.575 496.552 396.238C496.889 395.886 497.315 395.71 497.828 395.71C498.341 395.71 498.767 395.886 499.104 396.238C499.441 396.575 499.61 396.993 499.61 397.492C499.61 397.991 499.441 398.416 499.104 398.768ZM496.618 411V400.748H499.016V411H496.618ZM506.739 408.976C507.223 408.976 507.626 408.947 507.949 408.888V411C507.45 411.088 506.856 411.132 506.167 411.132C505.771 411.132 505.426 411.103 505.133 411.044C504.839 410.985 504.495 410.853 504.099 410.648C503.703 410.428 503.395 410.054 503.175 409.526C502.955 408.998 502.845 408.331 502.845 407.524V402.75H501.107V400.748H502.845V397.646H505.243V400.748H507.597V402.75H505.243V406.974C505.243 407.795 505.36 408.338 505.595 408.602C505.829 408.851 506.211 408.976 506.739 408.976ZM517.127 400.748H519.525V411.044C519.525 412.613 519.078 413.831 518.183 414.696C517.318 415.488 516.159 415.884 514.707 415.884C513.197 415.884 512.023 415.532 511.187 414.828C510.454 414.183 510.073 413.295 510.043 412.166H512.463C512.522 412.753 512.713 413.185 513.035 413.464C513.373 413.757 513.915 413.904 514.663 413.904C515.426 413.904 516.027 413.655 516.467 413.156C516.907 412.672 517.127 411.909 517.127 410.868V409.57C516.467 410.699 515.367 411.264 513.827 411.264C512.61 411.264 511.671 410.875 511.011 410.098C510.366 409.306 510.043 408.272 510.043 406.996V400.748H512.441V406.49C512.441 408.265 513.182 409.152 514.663 409.152C515.47 409.152 516.079 408.866 516.489 408.294C516.915 407.722 517.127 406.974 517.127 406.05V400.748ZM529.104 399.252C529.104 398.475 529.229 397.822 529.478 397.294C529.728 396.751 530.05 396.363 530.446 396.128C530.857 395.879 531.231 395.71 531.568 395.622C531.906 395.519 532.243 395.468 532.58 395.468C533.255 395.468 533.79 395.534 534.186 395.666V397.69C534.113 397.69 533.966 397.675 533.746 397.646C533.541 397.617 533.372 397.602 533.24 397.602C533.02 397.602 532.822 397.617 532.646 397.646C532.485 397.675 532.302 397.741 532.096 397.844C531.906 397.932 531.759 398.093 531.656 398.328C531.554 398.563 531.502 398.856 531.502 399.208V400.748H534.186V402.75H531.502V411H529.104V402.75H527.014V400.748H529.104V399.252ZM535.99 396.238C536.328 395.886 536.753 395.71 537.266 395.71C537.78 395.71 538.205 395.886 538.542 396.238C538.88 396.575 539.048 396.993 539.048 397.492C539.048 397.991 538.88 398.416 538.542 398.768C538.205 399.105 537.78 399.274 537.266 399.274C536.753 399.274 536.328 399.105 535.99 398.768C535.653 398.416 535.484 397.991 535.484 397.492C535.484 396.993 535.653 396.575 535.99 396.238ZM536.056 411V400.748H538.454V411H536.056ZM541.542 411V395.6H543.94V411H541.542ZM556.304 405.346C556.304 405.61 556.282 406.05 556.238 406.666H548.626C548.656 407.473 548.92 408.096 549.418 408.536C549.917 408.961 550.606 409.174 551.486 409.174C552.616 409.174 553.378 408.785 553.774 408.008H556.194C556.033 408.961 555.512 409.746 554.632 410.362C553.767 410.963 552.718 411.264 551.486 411.264C549.873 411.264 548.597 410.78 547.658 409.812C546.72 408.844 546.25 407.531 546.25 405.874C546.25 404.231 546.712 402.926 547.636 401.958C548.575 400.975 549.829 400.484 551.398 400.484C552.865 400.484 554.046 400.939 554.94 401.848C555.85 402.743 556.304 403.909 556.304 405.346ZM548.626 404.84H553.95C553.936 404.048 553.701 403.439 553.246 403.014C552.806 402.589 552.176 402.376 551.354 402.376C550.518 402.376 549.858 402.603 549.374 403.058C548.89 403.513 548.641 404.107 548.626 404.84ZM562.208 411.264C560.917 411.264 559.869 410.934 559.062 410.274C558.255 409.614 557.852 408.807 557.852 407.854H560.25C560.25 408.294 560.441 408.653 560.822 408.932C561.218 409.211 561.724 409.35 562.34 409.35C562.795 409.35 563.154 409.24 563.418 409.02C563.682 408.8 563.814 408.507 563.814 408.14C563.814 407.553 563.557 407.194 563.044 407.062L560.404 406.336C558.923 405.925 558.182 404.979 558.182 403.498C558.182 402.647 558.549 401.936 559.282 401.364C560.015 400.777 560.961 400.484 562.12 400.484C563.425 400.484 564.423 400.777 565.112 401.364C565.816 401.951 566.168 402.721 566.168 403.674H563.814C563.814 403.249 563.653 402.919 563.33 402.684C563.022 402.435 562.589 402.31 562.032 402.31C561.607 402.31 561.255 402.413 560.976 402.618C560.697 402.809 560.558 403.058 560.558 403.366C560.558 403.923 560.851 404.29 561.438 404.466L563.88 405.17C564.584 405.375 565.156 405.727 565.596 406.226C566.036 406.71 566.256 407.275 566.256 407.92C566.256 408.917 565.897 409.724 565.178 410.34C564.474 410.956 563.484 411.264 562.208 411.264ZM571.195 410.626C570.828 410.993 570.388 411.176 569.875 411.176C569.362 411.176 568.922 410.993 568.555 410.626C568.203 410.259 568.027 409.819 568.027 409.306C568.027 408.793 568.203 408.36 568.555 408.008C568.922 407.641 569.362 407.458 569.875 407.458C570.388 407.458 570.828 407.641 571.195 408.008C571.562 408.36 571.745 408.793 571.745 409.306C571.745 409.819 571.562 410.259 571.195 410.626Z" fill="white"/>
<rect x="320" y="450" width="164" height="50" rx="13" fill="white"/>
<path d="M372.675 474.556C373.431 474.628 374.049 474.928 374.529 475.456C375.021 475.972 375.267 476.656 375.267 477.508C375.267 478.588 374.907 479.44 374.187 480.064C373.467 480.688 372.483 481 371.235 481H365.853V468.4H371.037C372.285 468.4 373.269 468.694 373.989 469.282C374.721 469.858 375.087 470.656 375.087 471.676C375.087 472.48 374.871 473.128 374.439 473.62C374.007 474.1 373.419 474.412 372.675 474.556ZM370.389 470.506H368.769V473.566H370.389C370.941 473.566 371.373 473.434 371.685 473.17C372.009 472.894 372.171 472.516 372.171 472.036C372.171 471.556 372.015 471.184 371.703 470.92C371.391 470.644 370.953 470.506 370.389 470.506ZM370.587 478.786C371.127 478.786 371.553 478.642 371.865 478.354C372.177 478.054 372.333 477.646 372.333 477.13C372.333 476.662 372.171 476.29 371.847 476.014C371.535 475.726 371.115 475.582 370.587 475.582H368.769V478.786H370.587ZM380.092 481.234C379.06 481.234 378.268 480.928 377.716 480.316C377.164 479.692 376.888 478.816 376.888 477.688V472.324H379.678V477.076C379.678 478.3 380.158 478.912 381.118 478.912C382.234 478.912 382.792 478.27 382.792 476.986V472.324H385.528V481H382.792V479.758C382.276 480.742 381.376 481.234 380.092 481.234ZM393.674 472.324H396.428V480.73C396.428 482.074 396.014 483.118 395.186 483.862C394.406 484.534 393.344 484.87 392 484.87C390.596 484.87 389.528 484.57 388.796 483.97C388.088 483.37 387.728 482.608 387.716 481.684H390.488C390.548 482.464 391.052 482.854 392 482.854C393.116 482.854 393.674 482.206 393.674 480.91V479.56C393.17 480.52 392.252 481 390.92 481C389.852 481 389.048 480.676 388.508 480.028C387.98 479.38 387.716 478.492 387.716 477.364V472.324H390.47V476.95C390.47 478.198 390.98 478.822 392 478.822C392.54 478.822 392.954 478.63 393.242 478.246C393.53 477.85 393.674 477.31 393.674 476.626V472.324ZM403.171 481V468.4H406.159L410.533 476.554V468.4H413.323V481H410.335L405.961 472.846V481H403.171ZM423.317 479.974C422.453 480.838 421.289 481.27 419.825 481.27C418.361 481.27 417.191 480.838 416.315 479.974C415.439 479.11 415.001 478.006 415.001 476.662C415.001 475.318 415.439 474.22 416.315 473.368C417.191 472.504 418.361 472.072 419.825 472.072C421.289 472.072 422.453 472.504 423.317 473.368C424.193 474.22 424.631 475.318 424.631 476.662C424.631 478.006 424.193 479.11 423.317 479.974ZM419.825 478.93C420.461 478.93 420.965 478.72 421.337 478.3C421.709 477.88 421.895 477.334 421.895 476.662C421.895 475.99 421.709 475.444 421.337 475.024C420.965 474.604 420.461 474.394 419.825 474.394C419.177 474.394 418.667 474.604 418.295 475.024C417.935 475.444 417.755 475.99 417.755 476.662C417.755 477.334 417.935 477.88 418.295 478.3C418.667 478.72 419.177 478.93 419.825 478.93ZM427.915 481L424.783 472.324H427.663L429.229 477.58L430.705 472.324H433.387L434.863 477.58L436.429 472.324H439.291L436.177 481H433.711L432.037 475.726L430.381 481H427.915Z" fill="#121111"/>
<rect x="492" y="450" width="74" height="50" rx="13" fill="#333131"/>
<path d="M522.856 477.544C522.856 478.564 522.52 479.416 521.848 480.1C521.188 480.772 520.276 481.168 519.112 481.288V482.8H517.51V481.27C516.226 481.126 515.242 480.676 514.558 479.92C513.874 479.152 513.532 478.144 513.532 476.896H516.448C516.448 477.568 516.616 478.096 516.952 478.48C517.3 478.864 517.774 479.056 518.374 479.056C518.89 479.056 519.28 478.942 519.544 478.714C519.82 478.474 519.958 478.144 519.958 477.724C519.958 477.4 519.856 477.124 519.652 476.896C519.448 476.656 519.094 476.452 518.59 476.284L516.376 475.6C515.56 475.336 514.93 474.91 514.486 474.322C514.054 473.722 513.838 472.99 513.838 472.126C513.838 471.166 514.18 470.362 514.864 469.714C515.56 469.054 516.442 468.664 517.51 468.544V466.96H519.112V468.58C520.276 468.736 521.152 469.162 521.74 469.858C522.34 470.554 522.64 471.406 522.64 472.414H519.724C519.724 471.838 519.586 471.4 519.31 471.1C519.034 470.788 518.644 470.632 518.14 470.632C517.708 470.632 517.366 470.74 517.114 470.956C516.874 471.172 516.754 471.466 516.754 471.838C516.754 472.21 516.862 472.522 517.078 472.774C517.306 473.026 517.702 473.254 518.266 473.458L520.48 474.178C522.064 474.706 522.856 475.828 522.856 477.544ZM528.695 481.27C527.135 481.27 525.935 480.898 525.095 480.154C524.267 479.41 523.853 478.348 523.853 476.968H526.787C526.787 477.616 526.955 478.114 527.291 478.462C527.639 478.81 528.125 478.984 528.749 478.984C529.277 478.984 529.697 478.84 530.009 478.552C530.333 478.264 530.495 477.88 530.495 477.4C530.495 476.308 529.853 475.762 528.569 475.762H527.345V473.53H528.587C529.739 473.53 530.315 473.032 530.315 472.036C530.315 471.616 530.171 471.28 529.883 471.028C529.595 470.776 529.217 470.65 528.749 470.65C528.209 470.65 527.783 470.806 527.471 471.118C527.159 471.418 527.003 471.838 527.003 472.378H524.123C524.123 471.202 524.543 470.26 525.383 469.552C526.223 468.844 527.369 468.49 528.821 468.49C530.153 468.49 531.221 468.796 532.025 469.408C532.829 470.02 533.231 470.848 533.231 471.892C533.231 473.284 532.481 474.19 530.981 474.61C531.749 474.754 532.349 475.084 532.781 475.6C533.225 476.116 533.447 476.758 533.447 477.526C533.447 478.642 533.009 479.548 532.133 480.244C531.269 480.928 530.123 481.27 528.695 481.27ZM544.311 473.098C544.311 474.226 544.005 475.186 543.393 475.978L539.757 481H536.427L538.947 477.67C537.627 477.55 536.583 477.076 535.815 476.248C535.059 475.408 534.681 474.358 534.681 473.098C534.681 471.754 535.119 470.65 535.995 469.786C536.871 468.922 538.041 468.49 539.505 468.49C540.969 468.49 542.133 468.922 542.997 469.786C543.873 470.65 544.311 471.754 544.311 473.098ZM537.975 471.46C537.615 471.88 537.435 472.426 537.435 473.098C537.435 473.77 537.615 474.316 537.975 474.736C538.347 475.156 538.857 475.366 539.505 475.366C540.141 475.366 540.645 475.156 541.017 474.736C541.389 474.316 541.575 473.77 541.575 473.098C541.575 472.426 541.389 471.88 541.017 471.46C540.645 471.028 540.141 470.812 539.505 470.812C538.857 470.812 538.347 471.028 537.975 471.46Z" fill="white"/>
<path fill-rule="evenodd" clip-rule="evenodd" d="M443.5 160.2C440.831 160.2 438.667 162.349 438.667 165C438.667 167.651 440.831 169.8 443.5 169.8C446.169 169.8 448.333 167.651 448.333 165C448.333 162.349 446.169 160.2 443.5 160.2ZM435.444 165C435.444 160.582 439.051 157 443.5 157C447.949 157 451.556 160.582 451.556 165C451.556 169.418 447.949 173 443.5 173C439.051 173 435.444 169.418 435.444 165ZM437.056 179.4C434.386 179.4 432.222 181.549 432.222 184.2C432.222 185.084 432.944 185.8 433.833 185.8H453.167C454.056 185.8 454.778 185.084 454.778 184.2C454.778 181.549 452.614 179.4 449.944 179.4H437.056ZM429 184.2C429 179.782 432.607 176.2 437.056 176.2H449.944C454.393 176.2 458 179.782 458 184.2C458 186.851 455.836 189 453.167 189H433.833C431.164 189 429 186.851 429 184.2Z" fill="white"/>
</g>
<defs>
<linearGradient id="paint0_linear_4182_4253" x1="443" y1="-211" x2="442.5" y2="171.193" gradientUnits="userSpaceOnUse">
<stop stop-color="#D9D9D9"/>
<stop offset="1" stop-color="#D9D9D9" stop-opacity="0"/>
</linearGradient>
<clipPath id="clip0_4182_4253">
<rect width="885" height="551" fill="white"/>
</clipPath>
</defs>
</svg>
