<svg width="389" height="242" viewBox="0 0 389 242" fill="none" xmlns="http://www.w3.org/2000/svg">
<g clip-path="url(#clip0_4182_4410)">
<rect x="45" y="-45" width="299" height="75" rx="17" fill="#CDCDCD"/>
<path d="M72.845 -1.711C71.4623 -1.711 70.3913 -2.07367 69.632 -2.799C68.884 -3.52433 68.51 -4.55567 68.51 -5.893H70.465C70.465 -5.12233 70.6747 -4.516 71.094 -4.074C71.5133 -3.632 72.0913 -3.411 72.828 -3.411C73.474 -3.411 73.967 -3.55267 74.307 -3.836C74.6583 -4.13067 74.834 -4.54433 74.834 -5.077C74.834 -5.53033 74.7037 -5.893 74.443 -6.165C74.1937 -6.437 73.7347 -6.709 73.066 -6.981L71.128 -7.763C69.6093 -8.35233 68.85 -9.40633 68.85 -10.925C68.85 -11.8883 69.2013 -12.6703 69.904 -13.271C70.618 -13.883 71.536 -14.189 72.658 -14.189C73.8367 -14.189 74.783 -13.849 75.497 -13.169C76.2223 -12.489 76.585 -11.588 76.585 -10.466H74.63C74.63 -11.1233 74.4543 -11.6277 74.103 -11.979C73.7517 -12.3417 73.2473 -12.523 72.59 -12.523C72.0347 -12.523 71.5983 -12.387 71.281 -12.115C70.975 -11.8543 70.822 -11.4973 70.822 -11.044C70.822 -10.636 70.975 -10.2847 71.281 -9.99C71.587 -9.69533 72.0913 -9.40633 72.794 -9.123L74.545 -8.409C76.041 -7.797 76.789 -6.70333 76.789 -5.128C76.789 -4.108 76.4263 -3.28067 75.701 -2.646C74.9757 -2.02267 74.0237 -1.711 72.845 -1.711ZM83.0749 -10.126C84.2082 -10.126 85.1205 -9.74067 85.8119 -8.97C86.5032 -8.21067 86.8489 -7.20767 86.8489 -5.961C86.8489 -4.737 86.4862 -3.734 85.7609 -2.952C85.0355 -2.18133 84.1005 -1.796 82.9559 -1.796C82.4345 -1.796 81.9415 -1.90933 81.4769 -2.136C81.0122 -2.374 80.6609 -2.68567 80.4229 -3.071V1.57H78.5699V-9.922H80.4229V-8.851C80.6609 -9.23633 81.0235 -9.54233 81.5109 -9.769C81.9982 -10.007 82.5195 -10.126 83.0749 -10.126ZM82.6839 -3.445C83.3639 -3.445 83.9192 -3.67733 84.3499 -4.142C84.7805 -4.618 84.9959 -5.22433 84.9959 -5.961C84.9959 -6.69767 84.7805 -7.29833 84.3499 -7.763C83.9192 -8.239 83.3639 -8.477 82.6839 -8.477C81.9812 -8.477 81.4145 -8.24467 80.9839 -7.78C80.5532 -7.31533 80.3379 -6.709 80.3379 -5.961C80.3379 -5.213 80.5532 -4.60667 80.9839 -4.142C81.4145 -3.67733 81.9812 -3.445 82.6839 -3.445ZM91.9284 -1.796C90.6931 -1.796 89.7354 -2.187 89.0554 -2.969C88.3754 -3.751 88.0354 -4.74833 88.0354 -5.961C88.0354 -7.16233 88.3924 -8.154 89.1064 -8.936C89.8204 -9.72933 90.7781 -10.126 91.9794 -10.126C92.5121 -10.126 92.9994 -10.0127 93.4414 -9.786C93.8834 -9.55933 94.2234 -9.24767 94.4614 -8.851V-9.922H96.3144V-2H94.4614V-3.071C94.2348 -2.68567 93.8778 -2.374 93.3904 -2.136C92.9144 -1.90933 92.4271 -1.796 91.9284 -1.796ZM92.2004 -3.445C92.9598 -3.445 93.5378 -3.683 93.9344 -4.159C94.3424 -4.635 94.5464 -5.23567 94.5464 -5.961C94.5464 -6.68633 94.3424 -7.287 93.9344 -7.763C93.5378 -8.239 92.9598 -8.477 92.2004 -8.477C91.4864 -8.477 90.9198 -8.239 90.5004 -7.763C90.0924 -7.29833 89.8884 -6.69767 89.8884 -5.961C89.8884 -5.22433 90.0924 -4.618 90.5004 -4.142C90.9198 -3.67733 91.4864 -3.445 92.2004 -3.445ZM98.691 -2V-9.922H100.544V-8.817C100.725 -9.20233 101.014 -9.514 101.411 -9.752C101.808 -10.0013 102.255 -10.126 102.754 -10.126C104.012 -10.126 104.845 -9.65567 105.253 -8.715C105.446 -9.123 105.763 -9.45733 106.205 -9.718C106.647 -9.99 107.14 -10.126 107.684 -10.126C109.588 -10.126 110.54 -9.089 110.54 -7.015V-2H108.687V-6.658C108.687 -7.916 108.194 -8.545 107.208 -8.545C106.687 -8.545 106.279 -8.36933 105.984 -8.018C105.689 -7.678 105.542 -7.07167 105.542 -6.199V-2H103.689V-6.675C103.689 -7.92167 103.207 -8.545 102.244 -8.545C101.711 -8.545 101.292 -8.36933 100.986 -8.018C100.691 -7.678 100.544 -7.07167 100.544 -6.199V-2H98.691Z" fill="white"/>
<g filter="url(#filter0_d_4182_4410)">
<rect x="45" y="44" width="299" height="75" rx="17" fill="black"/>
<path d="M69.275 87V75.1H71.23V87H69.275ZM73.689 87V79.078H75.542V80.183C76.052 79.3103 76.9134 78.874 78.126 78.874C80.0527 78.874 81.016 79.9223 81.016 82.019V87H79.163V82.869C79.163 82.0077 79.0327 81.39 78.772 81.016C78.5114 80.642 78.0637 80.455 77.429 80.455C76.8284 80.455 76.3637 80.6477 76.035 81.033C75.7064 81.407 75.542 81.9453 75.542 82.648V87H73.689ZM87.8229 78.874C88.9563 78.874 89.8686 79.2593 90.5599 80.03C91.2513 80.7893 91.5969 81.7923 91.5969 83.039C91.5969 84.263 91.2343 85.266 90.5089 86.048C89.7836 86.8187 88.8486 87.204 87.7039 87.204C87.1826 87.204 86.6896 87.0907 86.2249 86.864C85.7603 86.626 85.4089 86.3143 85.1709 85.929V87H83.3179V75.1H85.1709V80.149C85.4089 79.7637 85.7716 79.4577 86.2589 79.231C86.7463 78.993 87.2676 78.874 87.8229 78.874ZM87.4319 85.555C88.1119 85.555 88.6673 85.3227 89.0979 84.858C89.5286 84.382 89.7439 83.7757 89.7439 83.039C89.7439 82.3023 89.5286 81.7017 89.0979 81.237C88.6673 80.761 88.1119 80.523 87.4319 80.523C86.7293 80.523 86.1626 80.7553 85.7319 81.22C85.3013 81.6847 85.0859 82.291 85.0859 83.039C85.0859 83.787 85.3013 84.3933 85.7319 84.858C86.1626 85.3227 86.7293 85.555 87.4319 85.555ZM100.008 86.031C99.2605 86.813 98.2461 87.204 96.9655 87.204C95.6848 87.204 94.6648 86.813 93.9055 86.031C93.1575 85.2377 92.7835 84.2403 92.7835 83.039C92.7835 81.8377 93.1575 80.846 93.9055 80.064C94.6648 79.2707 95.6848 78.874 96.9655 78.874C98.2461 78.874 99.2605 79.2707 100.008 80.064C100.768 80.846 101.147 81.8377 101.147 83.039C101.147 84.2403 100.768 85.2377 100.008 86.031ZM95.2485 84.858C95.6678 85.3227 96.2401 85.555 96.9655 85.555C97.6908 85.555 98.2575 85.3227 98.6655 84.858C99.0848 84.3933 99.2945 83.787 99.2945 83.039C99.2945 82.291 99.0848 81.6847 98.6655 81.22C98.2575 80.7553 97.6908 80.523 96.9655 80.523C96.2401 80.523 95.6678 80.7553 95.2485 81.22C94.8405 81.6847 94.6365 82.291 94.6365 83.039C94.6365 83.787 94.8405 84.3933 95.2485 84.858ZM101.655 87L104.579 83.005L101.706 79.078H104.001L105.65 81.645L107.299 79.078H109.594L106.721 83.005L109.645 87H107.35L105.65 84.348L103.95 87H101.655Z" fill="white"/>
<rect x="320" y="30" width="42" height="42" rx="21" fill="#FF0101"/>
<rect x="317" y="27" width="48" height="48" rx="24" stroke="#FF0000" stroke-opacity="0.44" stroke-width="6"/>
<path d="M340.998 56.204C339.91 56.204 338.992 55.898 338.244 55.286C337.496 54.6627 337.088 53.8693 337.02 52.906H338.992C339.026 53.3933 339.236 53.7787 339.621 54.062C340.006 54.334 340.477 54.47 341.032 54.47C341.735 54.47 342.284 54.2547 342.681 53.824C343.089 53.3933 343.293 52.8153 343.293 52.09C343.293 51.376 343.106 50.8037 342.732 50.373C342.369 49.9423 341.876 49.727 341.253 49.727C340.154 49.727 339.406 50.1747 339.009 51.07H337.224V44.44H344.483V46.174H338.992V49.166C339.581 48.486 340.426 48.146 341.525 48.146C342.636 48.146 343.52 48.503 344.177 49.217C344.834 49.9197 345.163 50.8547 345.163 52.022C345.163 53.212 344.783 54.2093 344.024 55.014C343.265 55.8073 342.256 56.204 340.998 56.204Z" fill="white"/>
</g>
<rect x="45" y="133" width="299" height="75" rx="17" fill="black" fill-opacity="0.1"/>
<path d="M72.845 176.289C71.4623 176.289 70.3913 175.926 69.632 175.201C68.884 174.476 68.51 173.444 68.51 172.107H70.465C70.465 172.878 70.6747 173.484 71.094 173.926C71.5133 174.368 72.0913 174.589 72.828 174.589C73.474 174.589 73.967 174.447 74.307 174.164C74.6583 173.869 74.834 173.456 74.834 172.923C74.834 172.47 74.7037 172.107 74.443 171.835C74.1937 171.563 73.7347 171.291 73.066 171.019L71.128 170.237C69.6093 169.648 68.85 168.594 68.85 167.075C68.85 166.112 69.2013 165.33 69.904 164.729C70.618 164.117 71.536 163.811 72.658 163.811C73.8367 163.811 74.783 164.151 75.497 164.831C76.2223 165.511 76.585 166.412 76.585 167.534H74.63C74.63 166.877 74.4543 166.372 74.103 166.021C73.7517 165.658 73.2473 165.477 72.59 165.477C72.0347 165.477 71.5983 165.613 71.281 165.885C70.975 166.146 70.822 166.503 70.822 166.956C70.822 167.364 70.975 167.715 71.281 168.01C71.587 168.305 72.0913 168.594 72.794 168.877L74.545 169.591C76.041 170.203 76.789 171.297 76.789 172.872C76.789 173.892 76.4263 174.719 75.701 175.354C74.9757 175.977 74.0237 176.289 72.845 176.289ZM83.0749 167.874C84.2082 167.874 85.1205 168.259 85.8119 169.03C86.5032 169.789 86.8489 170.792 86.8489 172.039C86.8489 173.263 86.4862 174.266 85.7609 175.048C85.0355 175.819 84.1005 176.204 82.9559 176.204C82.4345 176.204 81.9415 176.091 81.4769 175.864C81.0122 175.626 80.6609 175.314 80.4229 174.929V179.57H78.5699V168.078H80.4229V169.149C80.6609 168.764 81.0235 168.458 81.5109 168.231C81.9982 167.993 82.5195 167.874 83.0749 167.874ZM82.6839 174.555C83.3639 174.555 83.9192 174.323 84.3499 173.858C84.7805 173.382 84.9959 172.776 84.9959 172.039C84.9959 171.302 84.7805 170.702 84.3499 170.237C83.9192 169.761 83.3639 169.523 82.6839 169.523C81.9812 169.523 81.4145 169.755 80.9839 170.22C80.5532 170.685 80.3379 171.291 80.3379 172.039C80.3379 172.787 80.5532 173.393 80.9839 173.858C81.4145 174.323 81.9812 174.555 82.6839 174.555ZM91.9284 176.204C90.6931 176.204 89.7354 175.813 89.0554 175.031C88.3754 174.249 88.0354 173.252 88.0354 172.039C88.0354 170.838 88.3924 169.846 89.1064 169.064C89.8204 168.271 90.7781 167.874 91.9794 167.874C92.5121 167.874 92.9994 167.987 93.4414 168.214C93.8834 168.441 94.2234 168.752 94.4614 169.149V168.078H96.3144V176H94.4614V174.929C94.2348 175.314 93.8778 175.626 93.3904 175.864C92.9144 176.091 92.4271 176.204 91.9284 176.204ZM92.2004 174.555C92.9598 174.555 93.5378 174.317 93.9344 173.841C94.3424 173.365 94.5464 172.764 94.5464 172.039C94.5464 171.314 94.3424 170.713 93.9344 170.237C93.5378 169.761 92.9598 169.523 92.2004 169.523C91.4864 169.523 90.9198 169.761 90.5004 170.237C90.0924 170.702 89.8884 171.302 89.8884 172.039C89.8884 172.776 90.0924 173.382 90.5004 173.858C90.9198 174.323 91.4864 174.555 92.2004 174.555ZM98.691 176V168.078H100.544V169.183C100.725 168.798 101.014 168.486 101.411 168.248C101.808 167.999 102.255 167.874 102.754 167.874C104.012 167.874 104.845 168.344 105.253 169.285C105.446 168.877 105.763 168.543 106.205 168.282C106.647 168.01 107.14 167.874 107.684 167.874C109.588 167.874 110.54 168.911 110.54 170.985V176H108.687V171.342C108.687 170.084 108.194 169.455 107.208 169.455C106.687 169.455 106.279 169.631 105.984 169.982C105.689 170.322 105.542 170.928 105.542 171.801V176H103.689V171.325C103.689 170.078 103.207 169.455 102.244 169.455C101.711 169.455 101.292 169.631 100.986 169.982C100.691 170.322 100.544 170.928 100.544 171.801V176H98.691Z" fill="white"/>
<rect x="320" y="119" width="42" height="42" rx="21" fill="#FF0101"/>
<rect x="317" y="116" width="48" height="48" rx="24" stroke="#FF0000" stroke-opacity="0.44" stroke-width="6"/>
<path d="M344.5 143.691C343.752 144.7 342.653 145.204 341.202 145.204C339.751 145.204 338.646 144.7 337.887 143.691C337.139 142.671 336.765 141.181 336.765 139.22C336.765 137.259 337.139 135.775 337.887 134.766C338.646 133.746 339.751 133.236 341.202 133.236C342.653 133.236 343.752 133.746 344.5 134.766C345.259 135.775 345.639 137.259 345.639 139.22C345.639 141.181 345.259 142.671 344.5 143.691ZM338.618 139.22C338.618 142.076 339.479 143.504 341.202 143.504C342.925 143.504 343.786 142.076 343.786 139.22C343.786 136.364 342.925 134.936 341.202 134.936C339.479 134.936 338.618 136.364 338.618 139.22Z" fill="white"/>
<path d="M350.519 192.933L324.339 182.879C320.296 181.327 316.326 185.297 317.879 189.339L327.933 215.519C329.23 218.898 333.577 219.822 336.136 217.262L338.535 214.864L339.953 213.446L343.484 216.978C345.829 219.323 349.632 219.323 351.977 216.978C354.322 214.632 354.322 210.83 351.977 208.485L348.445 204.953L349.863 203.535L352.262 201.136C354.821 198.577 353.898 194.231 350.519 192.933Z" fill="black" stroke="white" stroke-width="4"/>
</g>
<defs>
<filter id="filter0_d_4182_4410" x="25" y="4" width="363" height="135" filterUnits="userSpaceOnUse" color-interpolation-filters="sRGB">
<feFlood flood-opacity="0" result="BackgroundImageFix"/>
<feColorMatrix in="SourceAlpha" type="matrix" values="0 0 0 0 0 0 0 0 0 0 0 0 0 0 0 0 0 0 127 0" result="hardAlpha"/>
<feOffset/>
<feGaussianBlur stdDeviation="10"/>
<feComposite in2="hardAlpha" operator="out"/>
<feColorMatrix type="matrix" values="0 0 0 0 0 0 0 0 0 0 0 0 0 0 0 0 0 0 0.2 0"/>
<feBlend mode="normal" in2="BackgroundImageFix" result="effect1_dropShadow_4182_4410"/>
<feBlend mode="normal" in="SourceGraphic" in2="effect1_dropShadow_4182_4410" result="shape"/>
</filter>
<clipPath id="clip0_4182_4410">
<rect width="389" height="242" fill="white"/>
</clipPath>
</defs>
</svg>
