<svg width="530" height="258" viewBox="0 0 530 258" fill="none" xmlns="http://www.w3.org/2000/svg">
<g clip-path="url(#clip0_4182_4354)">
<rect width="530" height="258" fill="white"/>
<g clip-path="url(#clip1_4182_4354)">
<rect x="384" y="2" width="625" height="352" rx="24" fill="#EEEEEE"/>
<circle cx="502.5" cy="85.5" r="21.5" fill="white"/>
<rect x="481.5" y="128" width="295" height="40" rx="20" fill="white"/>
<path d="M507.55 153V143.2H513.206V144.642H509.16V147.75H513.206V149.192H509.16V153H507.55ZM516.472 145.216C516.257 145.431 515.987 145.538 515.66 145.538C515.333 145.538 515.063 145.431 514.848 145.216C514.633 144.992 514.526 144.721 514.526 144.404C514.526 144.087 514.633 143.821 514.848 143.606C515.063 143.382 515.333 143.27 515.66 143.27C515.987 143.27 516.257 143.382 516.472 143.606C516.687 143.821 516.794 144.087 516.794 144.404C516.794 144.721 516.687 144.992 516.472 145.216ZM514.89 153V146.476H516.416V153H514.89ZM518.376 153V146.476H519.902V147.736C520.014 147.297 520.234 146.966 520.56 146.742C520.887 146.509 521.246 146.392 521.638 146.392C521.89 146.392 522.091 146.411 522.24 146.448V147.848C522.082 147.829 521.881 147.82 521.638 147.82C521.097 147.82 520.672 148.021 520.364 148.422C520.056 148.814 519.902 149.379 519.902 150.116V153H518.376ZM525.649 153.168C524.827 153.168 524.16 152.958 523.647 152.538C523.133 152.118 522.877 151.605 522.877 150.998H524.403C524.403 151.278 524.524 151.507 524.767 151.684C525.019 151.861 525.341 151.95 525.733 151.95C526.022 151.95 526.251 151.88 526.419 151.74C526.587 151.6 526.671 151.413 526.671 151.18C526.671 150.807 526.507 150.578 526.181 150.494L524.501 150.032C523.558 149.771 523.087 149.169 523.087 148.226C523.087 147.685 523.32 147.232 523.787 146.868C524.253 146.495 524.855 146.308 525.593 146.308C526.423 146.308 527.058 146.495 527.497 146.868C527.945 147.241 528.169 147.731 528.169 148.338H526.671C526.671 148.067 526.568 147.857 526.363 147.708C526.167 147.549 525.891 147.47 525.537 147.47C525.266 147.47 525.042 147.535 524.865 147.666C524.687 147.787 524.599 147.946 524.599 148.142C524.599 148.497 524.785 148.73 525.159 148.842L526.713 149.29C527.161 149.421 527.525 149.645 527.805 149.962C528.085 150.27 528.225 150.629 528.225 151.04C528.225 151.675 527.996 152.188 527.539 152.58C527.091 152.972 526.461 153.168 525.649 153.168ZM532.582 151.712C532.89 151.712 533.147 151.693 533.352 151.656V153C533.035 153.056 532.657 153.084 532.218 153.084C531.966 153.084 531.747 153.065 531.56 153.028C531.374 152.991 531.154 152.907 530.902 152.776C530.65 152.636 530.454 152.398 530.314 152.062C530.174 151.726 530.104 151.301 530.104 150.788V147.75H528.998V146.476H530.104V144.502H531.63V146.476H533.128V147.75H531.63V150.438C531.63 150.961 531.705 151.306 531.854 151.474C532.004 151.633 532.246 151.712 532.582 151.712ZM538.325 153V143.2H540.019L543.897 150.312V143.2H545.437V153H543.743L539.865 145.888V153H538.325ZM550.186 153.168C549.169 153.168 548.38 152.846 547.82 152.202C547.26 151.558 546.98 150.737 546.98 149.738C546.98 148.749 547.274 147.932 547.862 147.288C548.45 146.635 549.239 146.308 550.228 146.308C550.667 146.308 551.068 146.401 551.432 146.588C551.796 146.775 552.076 147.031 552.272 147.358V146.476H553.798V153H552.272V152.118C552.086 152.435 551.792 152.692 551.39 152.888C550.998 153.075 550.597 153.168 550.186 153.168ZM550.41 151.81C551.036 151.81 551.512 151.614 551.838 151.222C552.174 150.83 552.342 150.335 552.342 149.738C552.342 149.141 552.174 148.646 551.838 148.254C551.512 147.862 551.036 147.666 550.41 147.666C549.822 147.666 549.356 147.862 549.01 148.254C548.674 148.637 548.506 149.131 548.506 149.738C548.506 150.345 548.674 150.844 549.01 151.236C549.356 151.619 549.822 151.81 550.41 151.81ZM555.755 153V146.476H557.281V147.386C557.431 147.069 557.669 146.812 557.995 146.616C558.322 146.411 558.691 146.308 559.101 146.308C560.137 146.308 560.823 146.695 561.159 147.47C561.318 147.134 561.579 146.859 561.943 146.644C562.307 146.42 562.713 146.308 563.161 146.308C564.729 146.308 565.513 147.162 565.513 148.87V153H563.987V149.164C563.987 148.128 563.581 147.61 562.769 147.61C562.34 147.61 562.004 147.755 561.761 148.044C561.519 148.324 561.397 148.823 561.397 149.542V153H559.871V149.15C559.871 148.123 559.475 147.61 558.681 147.61C558.243 147.61 557.897 147.755 557.645 148.044C557.403 148.324 557.281 148.823 557.281 149.542V153H555.755ZM573.312 149.402C573.312 149.57 573.298 149.85 573.27 150.242H568.426C568.444 150.755 568.612 151.152 568.93 151.432C569.247 151.703 569.686 151.838 570.246 151.838C570.964 151.838 571.45 151.591 571.702 151.096H573.242C573.139 151.703 572.808 152.202 572.248 152.594C571.697 152.977 571.03 153.168 570.246 153.168C569.219 153.168 568.407 152.86 567.81 152.244C567.212 151.628 566.914 150.793 566.914 149.738C566.914 148.693 567.208 147.862 567.796 147.246C568.393 146.621 569.191 146.308 570.19 146.308C571.123 146.308 571.874 146.597 572.444 147.176C573.022 147.745 573.312 148.487 573.312 149.402ZM568.426 149.08H571.814C571.804 148.576 571.655 148.189 571.366 147.918C571.086 147.647 570.684 147.512 570.162 147.512C569.63 147.512 569.21 147.657 568.902 147.946C568.594 148.235 568.435 148.613 568.426 149.08Z" fill="#33362F"/>
<rect x="481" y="224" width="295" height="40" rx="20" fill="#FE3458"/>
<rect x="481" y="176" width="295" height="40" rx="20" fill="white"/>
<path d="M507.05 201V191.2H512.706V192.642H508.66V195.414H512.706V196.856H508.66V199.558H512.706V201H507.05ZM514.595 201V194.476H516.121V195.386C516.271 195.069 516.509 194.812 516.835 194.616C517.162 194.411 517.531 194.308 517.941 194.308C518.977 194.308 519.663 194.695 519.999 195.47C520.158 195.134 520.419 194.859 520.783 194.644C521.147 194.42 521.553 194.308 522.001 194.308C523.569 194.308 524.353 195.162 524.353 196.87V201H522.827V197.164C522.827 196.128 522.421 195.61 521.609 195.61C521.18 195.61 520.844 195.755 520.601 196.044C520.359 196.324 520.237 196.823 520.237 197.542V201H518.711V197.15C518.711 196.123 518.315 195.61 517.521 195.61C517.083 195.61 516.737 195.755 516.485 196.044C516.243 196.324 516.121 196.823 516.121 197.542V201H514.595ZM528.96 201.168C527.942 201.168 527.154 200.846 526.594 200.202C526.034 199.558 525.754 198.737 525.754 197.738C525.754 196.749 526.048 195.932 526.636 195.288C527.224 194.635 528.012 194.308 529.002 194.308C529.44 194.308 529.842 194.401 530.206 194.588C530.57 194.775 530.85 195.031 531.046 195.358V194.476H532.572V201H531.046V200.118C530.859 200.435 530.565 200.692 530.164 200.888C529.772 201.075 529.37 201.168 528.96 201.168ZM529.184 199.81C529.809 199.81 530.285 199.614 530.612 199.222C530.948 198.83 531.116 198.335 531.116 197.738C531.116 197.141 530.948 196.646 530.612 196.254C530.285 195.862 529.809 195.666 529.184 195.666C528.596 195.666 528.129 195.862 527.784 196.254C527.448 196.637 527.28 197.131 527.28 197.738C527.28 198.345 527.448 198.844 527.784 199.236C528.129 199.619 528.596 199.81 529.184 199.81ZM536.111 193.216C535.896 193.431 535.625 193.538 535.299 193.538C534.972 193.538 534.701 193.431 534.487 193.216C534.272 192.992 534.165 192.721 534.165 192.404C534.165 192.087 534.272 191.821 534.487 191.606C534.701 191.382 534.972 191.27 535.299 191.27C535.625 191.27 535.896 191.382 536.111 191.606C536.325 191.821 536.433 192.087 536.433 192.404C536.433 192.721 536.325 192.992 536.111 193.216ZM534.529 201V194.476H536.055V201H534.529ZM538.015 201V191.2H539.541V201H538.015ZM550.503 201L550.125 199.754H546.359L545.981 201H544.231L547.535 191.2H548.949L552.253 201H550.503ZM546.779 198.312H549.691L548.235 193.454L546.779 198.312ZM558.102 191.2H559.628V201H558.102V200.118C557.916 200.435 557.622 200.692 557.22 200.888C556.828 201.075 556.427 201.168 556.016 201.168C554.999 201.168 554.21 200.846 553.65 200.202C553.09 199.558 552.81 198.737 552.81 197.738C552.81 196.749 553.104 195.932 553.692 195.288C554.28 194.635 555.069 194.308 556.058 194.308C556.497 194.308 556.898 194.401 557.262 194.588C557.626 194.775 557.906 195.031 558.102 195.358V191.2ZM556.24 199.81C556.866 199.81 557.342 199.614 557.668 199.222C558.004 198.83 558.172 198.335 558.172 197.738C558.172 197.141 558.004 196.646 557.668 196.254C557.342 195.862 556.866 195.666 556.24 195.666C555.652 195.666 555.186 195.862 554.84 196.254C554.504 196.637 554.336 197.131 554.336 197.738C554.336 198.345 554.504 198.844 554.84 199.236C555.186 199.619 555.652 199.81 556.24 199.81ZM566.387 191.2H567.913V201H566.387V200.118C566.201 200.435 565.907 200.692 565.505 200.888C565.113 201.075 564.712 201.168 564.301 201.168C563.284 201.168 562.495 200.846 561.935 200.202C561.375 199.558 561.095 198.737 561.095 197.738C561.095 196.749 561.389 195.932 561.977 195.288C562.565 194.635 563.354 194.308 564.343 194.308C564.782 194.308 565.183 194.401 565.547 194.588C565.911 194.775 566.191 195.031 566.387 195.358V191.2ZM564.525 199.81C565.151 199.81 565.627 199.614 565.953 199.222C566.289 198.83 566.457 198.335 566.457 197.738C566.457 197.141 566.289 196.646 565.953 196.254C565.627 195.862 565.151 195.666 564.525 195.666C563.937 195.666 563.471 195.862 563.125 196.254C562.789 196.637 562.621 197.131 562.621 197.738C562.621 198.345 562.789 198.844 563.125 199.236C563.471 199.619 563.937 199.81 564.525 199.81ZM569.871 201V194.476H571.397V195.736C571.509 195.297 571.728 194.966 572.055 194.742C572.381 194.509 572.741 194.392 573.133 194.392C573.385 194.392 573.585 194.411 573.735 194.448V195.848C573.576 195.829 573.375 195.82 573.133 195.82C572.591 195.82 572.167 196.021 571.859 196.422C571.551 196.814 571.397 197.379 571.397 198.116V201H569.871ZM580.701 197.402C580.701 197.57 580.687 197.85 580.659 198.242H575.815C575.833 198.755 576.001 199.152 576.319 199.432C576.636 199.703 577.075 199.838 577.635 199.838C578.353 199.838 578.839 199.591 579.091 199.096H580.631C580.528 199.703 580.197 200.202 579.637 200.594C579.086 200.977 578.419 201.168 577.635 201.168C576.608 201.168 575.796 200.86 575.199 200.244C574.601 199.628 574.303 198.793 574.303 197.738C574.303 196.693 574.597 195.862 575.185 195.246C575.782 194.621 576.58 194.308 577.579 194.308C578.512 194.308 579.263 194.597 579.833 195.176C580.411 195.745 580.701 196.487 580.701 197.402ZM575.815 197.08H579.203C579.193 196.576 579.044 196.189 578.755 195.918C578.475 195.647 578.073 195.512 577.551 195.512C577.019 195.512 576.599 195.657 576.291 195.946C575.983 196.235 575.824 196.613 575.815 197.08ZM584.457 201.168C583.636 201.168 582.969 200.958 582.455 200.538C581.942 200.118 581.685 199.605 581.685 198.998H583.211C583.211 199.278 583.333 199.507 583.575 199.684C583.827 199.861 584.149 199.95 584.541 199.95C584.831 199.95 585.059 199.88 585.227 199.74C585.395 199.6 585.479 199.413 585.479 199.18C585.479 198.807 585.316 198.578 584.989 198.494L583.309 198.032C582.367 197.771 581.895 197.169 581.895 196.226C581.895 195.685 582.129 195.232 582.595 194.868C583.062 194.495 583.664 194.308 584.401 194.308C585.232 194.308 585.867 194.495 586.305 194.868C586.753 195.241 586.977 195.731 586.977 196.338H585.479C585.479 196.067 585.377 195.857 585.171 195.708C584.975 195.549 584.7 195.47 584.345 195.47C584.075 195.47 583.851 195.535 583.673 195.666C583.496 195.787 583.407 195.946 583.407 196.142C583.407 196.497 583.594 196.73 583.967 196.842L585.521 197.29C585.969 197.421 586.333 197.645 586.613 197.962C586.893 198.27 587.033 198.629 587.033 199.04C587.033 199.675 586.805 200.188 586.347 200.58C585.899 200.972 585.269 201.168 584.457 201.168ZM590.856 201.168C590.034 201.168 589.367 200.958 588.854 200.538C588.34 200.118 588.084 199.605 588.084 198.998H589.61C589.61 199.278 589.731 199.507 589.974 199.684C590.226 199.861 590.548 199.95 590.94 199.95C591.229 199.95 591.458 199.88 591.626 199.74C591.794 199.6 591.878 199.413 591.878 199.18C591.878 198.807 591.714 198.578 591.388 198.494L589.708 198.032C588.765 197.771 588.294 197.169 588.294 196.226C588.294 195.685 588.527 195.232 588.994 194.868C589.46 194.495 590.062 194.308 590.8 194.308C591.63 194.308 592.265 194.495 592.704 194.868C593.152 195.241 593.376 195.731 593.376 196.338H591.878C591.878 196.067 591.775 195.857 591.57 195.708C591.374 195.549 591.098 195.47 590.744 195.47C590.473 195.47 590.249 195.535 590.072 195.666C589.894 195.787 589.806 195.946 589.806 196.142C589.806 196.497 589.992 196.73 590.366 196.842L591.92 197.29C592.368 197.421 592.732 197.645 593.012 197.962C593.292 198.27 593.432 198.629 593.432 199.04C593.432 199.675 593.203 200.188 592.746 200.58C592.298 200.972 591.668 201.168 590.856 201.168Z" fill="#33362F"/>
</g>
<g clip-path="url(#clip2_4182_4354)">
<rect x="17" y="2" width="625" height="352" rx="24" fill="#EEEEEE"/>
<path d="M170.187 95.705C167.362 93.273 165.95 90.309 165.95 86.813C165.95 83.317 167.362 80.353 170.187 77.921L171.46 79.08C170.32 80.22 169.459 81.4043 168.876 82.633C168.306 83.8617 168.021 85.255 168.021 86.813C168.021 88.371 168.306 89.7643 168.876 90.993C169.459 92.2217 170.32 93.406 171.46 94.546L170.187 95.705ZM172.604 92V78.7H180.28V80.657H174.789V84.875H180.28V86.832H174.789V92H172.604ZM192.122 83.355C192.122 84.381 191.863 85.2803 191.343 86.053C190.837 86.8257 190.153 87.3767 189.291 87.706L191.913 92H189.424L186.992 88.01H184.845V92H182.66V78.7H187.562C188.892 78.7 189.982 79.137 190.83 80.011C191.692 80.885 192.122 81.9997 192.122 83.355ZM184.845 80.657V86.053H187.429C188.151 86.053 188.747 85.7997 189.215 85.293C189.697 84.7737 189.937 84.1277 189.937 83.355C189.937 82.5823 189.697 81.9427 189.215 81.436C188.747 80.9167 188.151 80.657 187.429 80.657H184.845ZM194.22 92V78.7H201.896V80.657H196.405V84.419H201.896V86.376H196.405V90.043H201.896V92H194.22ZM204.555 92V78.7H212.231V80.657H206.74V84.419H212.231V86.376H206.74V90.043H212.231V92H204.555ZM214.453 95.705L213.18 94.546C214.32 93.406 215.175 92.2217 215.745 90.993C216.328 89.7643 216.619 88.371 216.619 86.813C216.619 85.255 216.328 83.8617 215.745 82.633C215.175 81.4043 214.32 80.22 213.18 79.08L214.453 77.921C217.278 80.353 218.69 83.317 218.69 86.813C218.69 90.309 217.278 93.273 214.453 95.705ZM231.975 92.323C229.847 92.323 228.162 91.677 226.921 90.385C225.679 89.093 225.059 87.4147 225.059 85.35C225.059 83.2853 225.679 81.607 226.921 80.315C228.162 79.023 229.847 78.377 231.975 78.377C233.761 78.377 235.23 78.833 236.383 79.745C237.535 80.6443 238.213 81.816 238.416 83.26H236.022C235.806 82.348 235.35 81.6323 234.654 81.113C233.97 80.5937 233.083 80.334 231.994 80.334C230.537 80.334 229.397 80.79 228.574 81.702C227.763 82.6013 227.358 83.8173 227.358 85.35C227.358 86.8827 227.763 88.105 228.574 89.017C229.397 89.9163 230.537 90.366 231.994 90.366C233.083 90.366 233.97 90.1063 234.654 89.587C235.35 89.0677 235.806 88.352 236.022 87.44H238.416C238.213 88.884 237.535 90.062 236.383 90.974C235.23 91.8733 233.761 92.323 231.975 92.323ZM244.012 92.228C242.631 92.228 241.561 91.791 240.801 90.917C240.041 90.043 239.661 88.9283 239.661 87.573C239.661 86.2303 240.06 85.122 240.858 84.248C241.656 83.3613 242.726 82.918 244.069 82.918C244.664 82.918 245.209 83.0447 245.703 83.298C246.197 83.5513 246.577 83.8997 246.843 84.343V83.146H248.914V92H246.843V90.803C246.59 91.2337 246.191 91.582 245.646 91.848C245.114 92.1013 244.569 92.228 244.012 92.228ZM244.316 90.385C245.165 90.385 245.811 90.119 246.254 89.587C246.71 89.055 246.938 88.3837 246.938 87.573C246.938 86.7623 246.71 86.091 246.254 85.559C245.811 85.027 245.165 84.761 244.316 84.761C243.518 84.761 242.885 85.027 242.416 85.559C241.96 86.0783 241.732 86.7497 241.732 87.573C241.732 88.3963 241.96 89.074 242.416 89.606C242.885 90.1253 243.518 90.385 244.316 90.385ZM251.57 92V83.146H253.641V84.381C254.211 83.4057 255.174 82.918 256.529 82.918C258.683 82.918 259.759 84.0897 259.759 86.433V92H257.688V87.383C257.688 86.4203 257.543 85.73 257.251 85.312C256.96 84.894 256.46 84.685 255.75 84.685C255.079 84.685 254.56 84.9003 254.192 85.331C253.825 85.749 253.641 86.3507 253.641 87.136V92H251.57ZM264.543 92L260.705 83.146H262.928L265.379 89.226L267.83 83.146H270.053L266.215 92H264.543ZM274.887 92.228C273.506 92.228 272.436 91.791 271.676 90.917C270.916 90.043 270.536 88.9283 270.536 87.573C270.536 86.2303 270.935 85.122 271.733 84.248C272.531 83.3613 273.601 82.918 274.944 82.918C275.539 82.918 276.084 83.0447 276.578 83.298C277.072 83.5513 277.452 83.8997 277.718 84.343V83.146H279.789V92H277.718V90.803C277.465 91.2337 277.066 91.582 276.521 91.848C275.989 92.1013 275.444 92.228 274.887 92.228ZM275.191 90.385C276.04 90.385 276.686 90.119 277.129 89.587C277.585 89.055 277.813 88.3837 277.813 87.573C277.813 86.7623 277.585 86.091 277.129 85.559C276.686 85.027 276.04 84.761 275.191 84.761C274.393 84.761 273.76 85.027 273.291 85.559C272.835 86.0783 272.607 86.7497 272.607 87.573C272.607 88.3963 272.835 89.074 273.291 89.606C273.76 90.1253 274.393 90.385 275.191 90.385ZM289.817 92V80.752H285.96V78.7H295.878V80.752H292.002V92H289.817ZM303.99 87.117C303.99 87.345 303.971 87.725 303.933 88.257H297.359C297.384 88.9537 297.612 89.492 298.043 89.872C298.473 90.2393 299.069 90.423 299.829 90.423C300.804 90.423 301.463 90.0873 301.805 89.416H303.895C303.755 90.2393 303.306 90.917 302.546 91.449C301.798 91.9683 300.893 92.228 299.829 92.228C298.435 92.228 297.333 91.81 296.523 90.974C295.712 90.138 295.307 89.0043 295.307 87.573C295.307 86.1543 295.706 85.027 296.504 84.191C297.314 83.3423 298.397 82.918 299.753 82.918C301.019 82.918 302.039 83.3107 302.812 84.096C303.597 84.8687 303.99 85.8757 303.99 87.117ZM297.359 86.68H301.957C301.944 85.996 301.741 85.4703 301.349 85.103C300.969 84.7357 300.424 84.552 299.715 84.552C298.993 84.552 298.423 84.7483 298.005 85.141C297.587 85.5337 297.371 86.0467 297.359 86.68ZM305.991 92V83.146H308.062V84.381C308.265 83.9503 308.588 83.602 309.031 83.336C309.474 83.0573 309.975 82.918 310.532 82.918C311.938 82.918 312.869 83.4437 313.325 84.495C313.54 84.039 313.895 83.6653 314.389 83.374C314.883 83.07 315.434 82.918 316.042 82.918C318.17 82.918 319.234 84.077 319.234 86.395V92H317.163V86.794C317.163 85.388 316.612 84.685 315.51 84.685C314.927 84.685 314.471 84.8813 314.142 85.274C313.813 85.654 313.648 86.3317 313.648 87.307V92H311.577V86.775C311.577 85.3817 311.039 84.685 309.962 84.685C309.367 84.685 308.898 84.8813 308.556 85.274C308.227 85.654 308.062 86.3317 308.062 87.307V92H305.991ZM326.835 82.918C328.101 82.918 329.121 83.3487 329.894 84.21C330.666 85.0587 331.053 86.1797 331.053 87.573C331.053 88.941 330.647 90.062 329.837 90.936C329.026 91.7973 327.981 92.228 326.702 92.228C326.119 92.228 325.568 92.1013 325.049 91.848C324.529 91.582 324.137 91.2337 323.871 90.803V95.99H321.8V83.146H323.871V84.343C324.137 83.9123 324.542 83.5703 325.087 83.317C325.631 83.051 326.214 82.918 326.835 82.918ZM326.398 90.385C327.158 90.385 327.778 90.1253 328.26 89.606C328.741 89.074 328.982 88.3963 328.982 87.573C328.982 86.7497 328.741 86.0783 328.26 85.559C327.778 85.027 327.158 84.761 326.398 84.761C325.612 84.761 324.979 85.0207 324.498 85.54C324.016 86.0593 323.776 86.737 323.776 87.573C323.776 88.409 324.016 89.0867 324.498 89.606C324.979 90.1253 325.612 90.385 326.398 90.385ZM333.044 92V78.7H335.115V92H333.044ZM341.461 92.228C340.081 92.228 339.01 91.791 338.25 90.917C337.49 90.043 337.11 88.9283 337.11 87.573C337.11 86.2303 337.509 85.122 338.307 84.248C339.105 83.3613 340.176 82.918 341.518 82.918C342.114 82.918 342.658 83.0447 343.152 83.298C343.646 83.5513 344.026 83.8997 344.292 84.343V83.146H346.363V92H344.292V90.803C344.039 91.2337 343.64 91.582 343.095 91.848C342.563 92.1013 342.019 92.228 341.461 92.228ZM341.765 90.385C342.614 90.385 343.26 90.119 343.703 89.587C344.159 89.055 344.387 88.3837 344.387 87.573C344.387 86.7623 344.159 86.091 343.703 85.559C343.26 85.027 342.614 84.761 341.765 84.761C340.967 84.761 340.334 85.027 339.865 85.559C339.409 86.0783 339.181 86.7497 339.181 87.573C339.181 88.3963 339.409 89.074 339.865 89.606C340.334 90.1253 340.967 90.385 341.765 90.385ZM353.028 90.252C353.446 90.252 353.795 90.2267 354.073 90.176V92C353.643 92.076 353.13 92.114 352.534 92.114C352.192 92.114 351.895 92.0887 351.641 92.038C351.388 91.9873 351.09 91.8733 350.748 91.696C350.406 91.506 350.14 91.183 349.95 90.727C349.76 90.271 349.665 89.6947 349.665 88.998V84.875H348.164V83.146H349.665V80.467H351.736V83.146H353.769V84.875H351.736V88.523C351.736 89.2323 351.838 89.701 352.04 89.929C352.243 90.1443 352.572 90.252 353.028 90.252ZM363.903 87.117C363.903 87.345 363.884 87.725 363.846 88.257H357.272C357.297 88.9537 357.525 89.492 357.956 89.872C358.386 90.2393 358.982 90.423 359.742 90.423C360.717 90.423 361.376 90.0873 361.718 89.416H363.808C363.668 90.2393 363.219 90.917 362.459 91.449C361.711 91.9683 360.806 92.228 359.742 92.228C358.348 92.228 357.246 91.81 356.436 90.974C355.625 90.138 355.22 89.0043 355.22 87.573C355.22 86.1543 355.619 85.027 356.417 84.191C357.227 83.3423 358.31 82.918 359.666 82.918C360.932 82.918 361.952 83.3107 362.725 84.096C363.51 84.8687 363.903 85.8757 363.903 87.117ZM357.272 86.68H361.87C361.857 85.996 361.654 85.4703 361.262 85.103C360.882 84.7357 360.337 84.552 359.628 84.552C358.906 84.552 358.336 84.7483 357.918 85.141C357.5 85.5337 357.284 86.0467 357.272 86.68Z" fill="#1A1A1A"/>
<circle cx="135.5" cy="85.5" r="21.5" fill="white"/>
<rect x="114.5" y="128" width="295" height="40" rx="20" fill="white"/>
<path d="M140.55 153V143.2H146.206V144.642H142.16V147.75H146.206V149.192H142.16V153H140.55ZM149.472 145.216C149.257 145.431 148.987 145.538 148.66 145.538C148.333 145.538 148.063 145.431 147.848 145.216C147.633 144.992 147.526 144.721 147.526 144.404C147.526 144.087 147.633 143.821 147.848 143.606C148.063 143.382 148.333 143.27 148.66 143.27C148.987 143.27 149.257 143.382 149.472 143.606C149.687 143.821 149.794 144.087 149.794 144.404C149.794 144.721 149.687 144.992 149.472 145.216ZM147.89 153V146.476H149.416V153H147.89ZM151.376 153V146.476H152.902V147.736C153.014 147.297 153.234 146.966 153.56 146.742C153.887 146.509 154.246 146.392 154.638 146.392C154.89 146.392 155.091 146.411 155.24 146.448V147.848C155.082 147.829 154.881 147.82 154.638 147.82C154.097 147.82 153.672 148.021 153.364 148.422C153.056 148.814 152.902 149.379 152.902 150.116V153H151.376ZM158.649 153.168C157.827 153.168 157.16 152.958 156.647 152.538C156.133 152.118 155.877 151.605 155.877 150.998H157.403C157.403 151.278 157.524 151.507 157.767 151.684C158.019 151.861 158.341 151.95 158.733 151.95C159.022 151.95 159.251 151.88 159.419 151.74C159.587 151.6 159.671 151.413 159.671 151.18C159.671 150.807 159.507 150.578 159.181 150.494L157.501 150.032C156.558 149.771 156.087 149.169 156.087 148.226C156.087 147.685 156.32 147.232 156.787 146.868C157.253 146.495 157.855 146.308 158.593 146.308C159.423 146.308 160.058 146.495 160.497 146.868C160.945 147.241 161.169 147.731 161.169 148.338H159.671C159.671 148.067 159.568 147.857 159.363 147.708C159.167 147.549 158.891 147.47 158.537 147.47C158.266 147.47 158.042 147.535 157.865 147.666C157.687 147.787 157.599 147.946 157.599 148.142C157.599 148.497 157.785 148.73 158.159 148.842L159.713 149.29C160.161 149.421 160.525 149.645 160.805 149.962C161.085 150.27 161.225 150.629 161.225 151.04C161.225 151.675 160.996 152.188 160.539 152.58C160.091 152.972 159.461 153.168 158.649 153.168ZM165.582 151.712C165.89 151.712 166.147 151.693 166.352 151.656V153C166.035 153.056 165.657 153.084 165.218 153.084C164.966 153.084 164.747 153.065 164.56 153.028C164.374 152.991 164.154 152.907 163.902 152.776C163.65 152.636 163.454 152.398 163.314 152.062C163.174 151.726 163.104 151.301 163.104 150.788V147.75H161.998V146.476H163.104V144.502H164.63V146.476H166.128V147.75H164.63V150.438C164.63 150.961 164.705 151.306 164.854 151.474C165.004 151.633 165.246 151.712 165.582 151.712ZM171.325 153V143.2H173.019L176.897 150.312V143.2H178.437V153H176.743L172.865 145.888V153H171.325ZM183.186 153.168C182.169 153.168 181.38 152.846 180.82 152.202C180.26 151.558 179.98 150.737 179.98 149.738C179.98 148.749 180.274 147.932 180.862 147.288C181.45 146.635 182.239 146.308 183.228 146.308C183.667 146.308 184.068 146.401 184.432 146.588C184.796 146.775 185.076 147.031 185.272 147.358V146.476H186.798V153H185.272V152.118C185.086 152.435 184.792 152.692 184.39 152.888C183.998 153.075 183.597 153.168 183.186 153.168ZM183.41 151.81C184.036 151.81 184.512 151.614 184.838 151.222C185.174 150.83 185.342 150.335 185.342 149.738C185.342 149.141 185.174 148.646 184.838 148.254C184.512 147.862 184.036 147.666 183.41 147.666C182.822 147.666 182.356 147.862 182.01 148.254C181.674 148.637 181.506 149.131 181.506 149.738C181.506 150.345 181.674 150.844 182.01 151.236C182.356 151.619 182.822 151.81 183.41 151.81ZM188.755 153V146.476H190.281V147.386C190.431 147.069 190.669 146.812 190.995 146.616C191.322 146.411 191.691 146.308 192.101 146.308C193.137 146.308 193.823 146.695 194.159 147.47C194.318 147.134 194.579 146.859 194.943 146.644C195.307 146.42 195.713 146.308 196.161 146.308C197.729 146.308 198.513 147.162 198.513 148.87V153H196.987V149.164C196.987 148.128 196.581 147.61 195.769 147.61C195.34 147.61 195.004 147.755 194.761 148.044C194.519 148.324 194.397 148.823 194.397 149.542V153H192.871V149.15C192.871 148.123 192.475 147.61 191.681 147.61C191.243 147.61 190.897 147.755 190.645 148.044C190.403 148.324 190.281 148.823 190.281 149.542V153H188.755ZM206.312 149.402C206.312 149.57 206.298 149.85 206.27 150.242H201.426C201.444 150.755 201.612 151.152 201.93 151.432C202.247 151.703 202.686 151.838 203.246 151.838C203.964 151.838 204.45 151.591 204.702 151.096H206.242C206.139 151.703 205.808 152.202 205.248 152.594C204.697 152.977 204.03 153.168 203.246 153.168C202.219 153.168 201.407 152.86 200.81 152.244C200.212 151.628 199.914 150.793 199.914 149.738C199.914 148.693 200.208 147.862 200.796 147.246C201.393 146.621 202.191 146.308 203.19 146.308C204.123 146.308 204.874 146.597 205.444 147.176C206.022 147.745 206.312 148.487 206.312 149.402ZM201.426 149.08H204.814C204.804 148.576 204.655 148.189 204.366 147.918C204.086 147.647 203.684 147.512 203.162 147.512C202.63 147.512 202.21 147.657 201.902 147.946C201.594 148.235 201.435 148.613 201.426 149.08Z" fill="#33362F"/>
<rect x="114" y="224" width="295" height="40" rx="20" fill="#7F48FB"/>
<path d="M205.55 249V239.2H208.868C210.417 239.2 211.626 239.681 212.494 240.642C213.371 241.594 213.81 242.747 213.81 244.1C213.81 245.453 213.371 246.611 212.494 247.572C211.626 248.524 210.417 249 208.868 249H205.55ZM207.16 247.558H208.728C209.848 247.558 210.697 247.222 211.276 246.55C211.864 245.878 212.158 245.061 212.158 244.1C212.158 243.139 211.864 242.322 211.276 241.65C210.697 240.978 209.848 240.642 208.728 240.642H207.16V247.558ZM220.674 248.202C220.058 248.846 219.223 249.168 218.168 249.168C217.114 249.168 216.274 248.846 215.648 248.202C215.032 247.549 214.724 246.727 214.724 245.738C214.724 244.749 215.032 243.932 215.648 243.288C216.274 242.635 217.114 242.308 218.168 242.308C219.223 242.308 220.058 242.635 220.674 243.288C221.3 243.932 221.612 244.749 221.612 245.738C221.612 246.727 221.3 247.549 220.674 248.202ZM216.754 247.236C217.1 247.619 217.571 247.81 218.168 247.81C218.766 247.81 219.232 247.619 219.568 247.236C219.914 246.853 220.086 246.354 220.086 245.738C220.086 245.122 219.914 244.623 219.568 244.24C219.232 243.857 218.766 243.666 218.168 243.666C217.571 243.666 217.1 243.857 216.754 244.24C216.418 244.623 216.25 245.122 216.25 245.738C216.25 246.354 216.418 246.853 216.754 247.236ZM224.3 249L221.892 242.476H223.572L224.93 246.788L226.344 242.476H227.996L229.41 246.788L230.768 242.476H232.448L230.04 249H228.752L227.17 244.352L225.588 249H224.3ZM233.494 249V242.476H235.02V243.386C235.44 242.667 236.149 242.308 237.148 242.308C238.734 242.308 239.528 243.171 239.528 244.898V249H238.002V245.598C238.002 244.889 237.894 244.38 237.68 244.072C237.465 243.764 237.096 243.61 236.574 243.61C236.079 243.61 235.696 243.769 235.426 244.086C235.155 244.394 235.02 244.837 235.02 245.416V249H233.494ZM241.369 249V239.2H242.895V249H241.369ZM250.315 248.202C249.699 248.846 248.864 249.168 247.809 249.168C246.754 249.168 245.914 248.846 245.289 248.202C244.673 247.549 244.365 246.727 244.365 245.738C244.365 244.749 244.673 243.932 245.289 243.288C245.914 242.635 246.754 242.308 247.809 242.308C248.864 242.308 249.699 242.635 250.315 243.288C250.94 243.932 251.253 244.749 251.253 245.738C251.253 246.727 250.94 247.549 250.315 248.202ZM246.395 247.236C246.74 247.619 247.212 247.81 247.809 247.81C248.406 247.81 248.873 247.619 249.209 247.236C249.554 246.853 249.727 246.354 249.727 245.738C249.727 245.122 249.554 244.623 249.209 244.24C248.873 243.857 248.406 243.666 247.809 243.666C247.212 243.666 246.74 243.857 246.395 244.24C246.059 244.623 245.891 245.122 245.891 245.738C245.891 246.354 246.059 246.853 246.395 247.236ZM255.569 249.168C254.552 249.168 253.763 248.846 253.203 248.202C252.643 247.558 252.363 246.737 252.363 245.738C252.363 244.749 252.657 243.932 253.245 243.288C253.833 242.635 254.622 242.308 255.611 242.308C256.05 242.308 256.451 242.401 256.815 242.588C257.179 242.775 257.459 243.031 257.655 243.358V242.476H259.181V249H257.655V248.118C257.468 248.435 257.174 248.692 256.773 248.888C256.381 249.075 255.98 249.168 255.569 249.168ZM255.793 247.81C256.418 247.81 256.894 247.614 257.221 247.222C257.557 246.83 257.725 246.335 257.725 245.738C257.725 245.141 257.557 244.646 257.221 244.254C256.894 243.862 256.418 243.666 255.793 243.666C255.205 243.666 254.738 243.862 254.393 244.254C254.057 244.637 253.889 245.131 253.889 245.738C253.889 246.345 254.057 246.844 254.393 247.236C254.738 247.619 255.205 247.81 255.793 247.81ZM265.94 239.2H267.466V249H265.94V248.118C265.754 248.435 265.46 248.692 265.058 248.888C264.666 249.075 264.265 249.168 263.854 249.168C262.837 249.168 262.048 248.846 261.488 248.202C260.928 247.558 260.648 246.737 260.648 245.738C260.648 244.749 260.942 243.932 261.53 243.288C262.118 242.635 262.907 242.308 263.896 242.308C264.335 242.308 264.736 242.401 265.1 242.588C265.464 242.775 265.744 243.031 265.94 243.358V239.2ZM264.078 247.81C264.704 247.81 265.18 247.614 265.506 247.222C265.842 246.83 266.01 246.335 266.01 245.738C266.01 245.141 265.842 244.646 265.506 244.254C265.18 243.862 264.704 243.666 264.078 243.666C263.49 243.666 263.024 243.862 262.678 244.254C262.342 244.637 262.174 245.131 262.174 245.738C262.174 246.345 262.342 246.844 262.678 247.236C263.024 247.619 263.49 247.81 264.078 247.81ZM276.185 240.474C276.045 240.474 275.919 240.483 275.807 240.502C275.705 240.521 275.588 240.563 275.457 240.628C275.336 240.684 275.243 240.787 275.177 240.936C275.112 241.085 275.079 241.272 275.079 241.496V242.476H276.787V243.75H275.079V249H273.553V243.75H272.223V242.476H273.553V241.524C273.553 241.029 273.633 240.614 273.791 240.278C273.95 239.933 274.155 239.685 274.407 239.536C274.669 239.377 274.907 239.27 275.121 239.214C275.336 239.149 275.551 239.116 275.765 239.116C276.195 239.116 276.535 239.158 276.787 239.242V240.53C276.741 240.53 276.647 240.521 276.507 240.502C276.377 240.483 276.269 240.474 276.185 240.474ZM283.305 248.202C282.689 248.846 281.854 249.168 280.799 249.168C279.745 249.168 278.905 248.846 278.279 248.202C277.663 247.549 277.355 246.727 277.355 245.738C277.355 244.749 277.663 243.932 278.279 243.288C278.905 242.635 279.745 242.308 280.799 242.308C281.854 242.308 282.689 242.635 283.305 243.288C283.931 243.932 284.243 244.749 284.243 245.738C284.243 246.727 283.931 247.549 283.305 248.202ZM279.385 247.236C279.731 247.619 280.202 247.81 280.799 247.81C281.397 247.81 281.863 247.619 282.199 247.236C282.545 246.853 282.717 246.354 282.717 245.738C282.717 245.122 282.545 244.623 282.199 244.24C281.863 243.857 281.397 243.666 280.799 243.666C280.202 243.666 279.731 243.857 279.385 244.24C279.049 244.623 278.881 245.122 278.881 245.738C278.881 246.354 279.049 246.853 279.385 247.236ZM285.707 249V242.476H287.233V243.736C287.345 243.297 287.564 242.966 287.891 242.742C288.217 242.509 288.577 242.392 288.969 242.392C289.221 242.392 289.421 242.411 289.571 242.448V243.848C289.412 243.829 289.211 243.82 288.969 243.82C288.427 243.82 288.003 244.021 287.695 244.422C287.387 244.814 287.233 245.379 287.233 246.116V249H285.707ZM297.596 240.474C297.456 240.474 297.33 240.483 297.218 240.502C297.115 240.521 296.998 240.563 296.868 240.628C296.746 240.684 296.653 240.787 296.588 240.936C296.522 241.085 296.49 241.272 296.49 241.496V242.476H298.198V243.75H296.49V249H294.964V243.75H293.634V242.476H294.964V241.524C294.964 241.029 295.043 240.614 295.202 240.278C295.36 239.933 295.566 239.685 295.818 239.536C296.079 239.377 296.317 239.27 296.532 239.214C296.746 239.149 296.961 239.116 297.176 239.116C297.605 239.116 297.946 239.158 298.198 239.242V240.53C298.151 240.53 298.058 240.521 297.918 240.502C297.787 240.483 297.68 240.474 297.596 240.474ZM299.392 249V242.476H300.918V243.736C301.03 243.297 301.249 242.966 301.576 242.742C301.903 242.509 302.262 242.392 302.654 242.392C302.906 242.392 303.107 242.411 303.256 242.448V243.848C303.097 243.829 302.897 243.82 302.654 243.82C302.113 243.82 301.688 244.021 301.38 244.422C301.072 244.814 300.918 245.379 300.918 246.116V249H299.392ZM310.222 245.402C310.222 245.57 310.208 245.85 310.18 246.242H305.336C305.355 246.755 305.523 247.152 305.84 247.432C306.157 247.703 306.596 247.838 307.156 247.838C307.875 247.838 308.36 247.591 308.612 247.096H310.152C310.049 247.703 309.718 248.202 309.158 248.594C308.607 248.977 307.94 249.168 307.156 249.168C306.129 249.168 305.317 248.86 304.72 248.244C304.123 247.628 303.824 246.793 303.824 245.738C303.824 244.693 304.118 243.862 304.706 243.246C305.303 242.621 306.101 242.308 307.1 242.308C308.033 242.308 308.785 242.597 309.354 243.176C309.933 243.745 310.222 244.487 310.222 245.402ZM305.336 245.08H308.724C308.715 244.576 308.565 244.189 308.276 243.918C307.996 243.647 307.595 243.512 307.072 243.512C306.54 243.512 306.12 243.657 305.812 243.946C305.504 244.235 305.345 244.613 305.336 245.08ZM317.742 245.402C317.742 245.57 317.728 245.85 317.7 246.242H312.856C312.874 246.755 313.042 247.152 313.36 247.432C313.677 247.703 314.116 247.838 314.676 247.838C315.394 247.838 315.88 247.591 316.132 247.096H317.672C317.569 247.703 317.238 248.202 316.678 248.594C316.127 248.977 315.46 249.168 314.676 249.168C313.649 249.168 312.837 248.86 312.24 248.244C311.642 247.628 311.344 246.793 311.344 245.738C311.344 244.693 311.638 243.862 312.226 243.246C312.823 242.621 313.621 242.308 314.62 242.308C315.553 242.308 316.304 242.597 316.874 243.176C317.452 243.745 317.742 244.487 317.742 245.402ZM312.856 245.08H316.244C316.234 244.576 316.085 244.189 315.796 243.918C315.516 243.647 315.114 243.512 314.592 243.512C314.06 243.512 313.64 243.657 313.332 243.946C313.024 244.235 312.865 244.613 312.856 245.08Z" fill="white"/>
<rect x="114" y="176" width="295" height="40" rx="20" fill="white"/>
<path d="M140.05 201V191.2H145.706V192.642H141.66V195.414H145.706V196.856H141.66V199.558H145.706V201H140.05ZM147.595 201V194.476H149.121V195.386C149.271 195.069 149.509 194.812 149.835 194.616C150.162 194.411 150.531 194.308 150.941 194.308C151.977 194.308 152.663 194.695 152.999 195.47C153.158 195.134 153.419 194.859 153.783 194.644C154.147 194.42 154.553 194.308 155.001 194.308C156.569 194.308 157.353 195.162 157.353 196.87V201H155.827V197.164C155.827 196.128 155.421 195.61 154.609 195.61C154.18 195.61 153.844 195.755 153.601 196.044C153.359 196.324 153.237 196.823 153.237 197.542V201H151.711V197.15C151.711 196.123 151.315 195.61 150.521 195.61C150.083 195.61 149.737 195.755 149.485 196.044C149.243 196.324 149.121 196.823 149.121 197.542V201H147.595ZM161.96 201.168C160.942 201.168 160.154 200.846 159.594 200.202C159.034 199.558 158.754 198.737 158.754 197.738C158.754 196.749 159.048 195.932 159.636 195.288C160.224 194.635 161.012 194.308 162.002 194.308C162.44 194.308 162.842 194.401 163.206 194.588C163.57 194.775 163.85 195.031 164.046 195.358V194.476H165.572V201H164.046V200.118C163.859 200.435 163.565 200.692 163.164 200.888C162.772 201.075 162.37 201.168 161.96 201.168ZM162.184 199.81C162.809 199.81 163.285 199.614 163.612 199.222C163.948 198.83 164.116 198.335 164.116 197.738C164.116 197.141 163.948 196.646 163.612 196.254C163.285 195.862 162.809 195.666 162.184 195.666C161.596 195.666 161.129 195.862 160.784 196.254C160.448 196.637 160.28 197.131 160.28 197.738C160.28 198.345 160.448 198.844 160.784 199.236C161.129 199.619 161.596 199.81 162.184 199.81ZM169.111 193.216C168.896 193.431 168.625 193.538 168.299 193.538C167.972 193.538 167.701 193.431 167.487 193.216C167.272 192.992 167.165 192.721 167.165 192.404C167.165 192.087 167.272 191.821 167.487 191.606C167.701 191.382 167.972 191.27 168.299 191.27C168.625 191.27 168.896 191.382 169.111 191.606C169.325 191.821 169.433 192.087 169.433 192.404C169.433 192.721 169.325 192.992 169.111 193.216ZM167.529 201V194.476H169.055V201H167.529ZM171.015 201V191.2H172.541V201H171.015ZM183.503 201L183.125 199.754H179.359L178.981 201H177.231L180.535 191.2H181.949L185.253 201H183.503ZM179.779 198.312H182.691L181.235 193.454L179.779 198.312ZM191.102 191.2H192.628V201H191.102V200.118C190.916 200.435 190.622 200.692 190.22 200.888C189.828 201.075 189.427 201.168 189.016 201.168C187.999 201.168 187.21 200.846 186.65 200.202C186.09 199.558 185.81 198.737 185.81 197.738C185.81 196.749 186.104 195.932 186.692 195.288C187.28 194.635 188.069 194.308 189.058 194.308C189.497 194.308 189.898 194.401 190.262 194.588C190.626 194.775 190.906 195.031 191.102 195.358V191.2ZM189.24 199.81C189.866 199.81 190.342 199.614 190.668 199.222C191.004 198.83 191.172 198.335 191.172 197.738C191.172 197.141 191.004 196.646 190.668 196.254C190.342 195.862 189.866 195.666 189.24 195.666C188.652 195.666 188.186 195.862 187.84 196.254C187.504 196.637 187.336 197.131 187.336 197.738C187.336 198.345 187.504 198.844 187.84 199.236C188.186 199.619 188.652 199.81 189.24 199.81ZM199.387 191.2H200.913V201H199.387V200.118C199.201 200.435 198.907 200.692 198.505 200.888C198.113 201.075 197.712 201.168 197.301 201.168C196.284 201.168 195.495 200.846 194.935 200.202C194.375 199.558 194.095 198.737 194.095 197.738C194.095 196.749 194.389 195.932 194.977 195.288C195.565 194.635 196.354 194.308 197.343 194.308C197.782 194.308 198.183 194.401 198.547 194.588C198.911 194.775 199.191 195.031 199.387 195.358V191.2ZM197.525 199.81C198.151 199.81 198.627 199.614 198.953 199.222C199.289 198.83 199.457 198.335 199.457 197.738C199.457 197.141 199.289 196.646 198.953 196.254C198.627 195.862 198.151 195.666 197.525 195.666C196.937 195.666 196.471 195.862 196.125 196.254C195.789 196.637 195.621 197.131 195.621 197.738C195.621 198.345 195.789 198.844 196.125 199.236C196.471 199.619 196.937 199.81 197.525 199.81ZM202.871 201V194.476H204.397V195.736C204.509 195.297 204.728 194.966 205.055 194.742C205.381 194.509 205.741 194.392 206.133 194.392C206.385 194.392 206.585 194.411 206.735 194.448V195.848C206.576 195.829 206.375 195.82 206.133 195.82C205.591 195.82 205.167 196.021 204.859 196.422C204.551 196.814 204.397 197.379 204.397 198.116V201H202.871ZM213.701 197.402C213.701 197.57 213.687 197.85 213.659 198.242H208.815C208.833 198.755 209.001 199.152 209.319 199.432C209.636 199.703 210.075 199.838 210.635 199.838C211.353 199.838 211.839 199.591 212.091 199.096H213.631C213.528 199.703 213.197 200.202 212.637 200.594C212.086 200.977 211.419 201.168 210.635 201.168C209.608 201.168 208.796 200.86 208.199 200.244C207.601 199.628 207.303 198.793 207.303 197.738C207.303 196.693 207.597 195.862 208.185 195.246C208.782 194.621 209.58 194.308 210.579 194.308C211.512 194.308 212.263 194.597 212.833 195.176C213.411 195.745 213.701 196.487 213.701 197.402ZM208.815 197.08H212.203C212.193 196.576 212.044 196.189 211.755 195.918C211.475 195.647 211.073 195.512 210.551 195.512C210.019 195.512 209.599 195.657 209.291 195.946C208.983 196.235 208.824 196.613 208.815 197.08ZM217.457 201.168C216.636 201.168 215.969 200.958 215.455 200.538C214.942 200.118 214.685 199.605 214.685 198.998H216.211C216.211 199.278 216.333 199.507 216.575 199.684C216.827 199.861 217.149 199.95 217.541 199.95C217.831 199.95 218.059 199.88 218.227 199.74C218.395 199.6 218.479 199.413 218.479 199.18C218.479 198.807 218.316 198.578 217.989 198.494L216.309 198.032C215.367 197.771 214.895 197.169 214.895 196.226C214.895 195.685 215.129 195.232 215.595 194.868C216.062 194.495 216.664 194.308 217.401 194.308C218.232 194.308 218.867 194.495 219.305 194.868C219.753 195.241 219.977 195.731 219.977 196.338H218.479C218.479 196.067 218.377 195.857 218.171 195.708C217.975 195.549 217.7 195.47 217.345 195.47C217.075 195.47 216.851 195.535 216.673 195.666C216.496 195.787 216.407 195.946 216.407 196.142C216.407 196.497 216.594 196.73 216.967 196.842L218.521 197.29C218.969 197.421 219.333 197.645 219.613 197.962C219.893 198.27 220.033 198.629 220.033 199.04C220.033 199.675 219.805 200.188 219.347 200.58C218.899 200.972 218.269 201.168 217.457 201.168ZM223.856 201.168C223.034 201.168 222.367 200.958 221.854 200.538C221.34 200.118 221.084 199.605 221.084 198.998H222.61C222.61 199.278 222.731 199.507 222.974 199.684C223.226 199.861 223.548 199.95 223.94 199.95C224.229 199.95 224.458 199.88 224.626 199.74C224.794 199.6 224.878 199.413 224.878 199.18C224.878 198.807 224.714 198.578 224.388 198.494L222.708 198.032C221.765 197.771 221.294 197.169 221.294 196.226C221.294 195.685 221.527 195.232 221.994 194.868C222.46 194.495 223.062 194.308 223.8 194.308C224.63 194.308 225.265 194.495 225.704 194.868C226.152 195.241 226.376 195.731 226.376 196.338H224.878C224.878 196.067 224.775 195.857 224.57 195.708C224.374 195.549 224.098 195.47 223.744 195.47C223.473 195.47 223.249 195.535 223.072 195.666C222.894 195.787 222.806 195.946 222.806 196.142C222.806 196.497 222.992 196.73 223.366 196.842L224.92 197.29C225.368 197.421 225.732 197.645 226.012 197.962C226.292 198.27 226.432 198.629 226.432 199.04C226.432 199.675 226.203 200.188 225.746 200.58C225.298 200.972 224.668 201.168 223.856 201.168Z" fill="#33362F"/>
</g>
<g clip-path="url(#clip3_4182_4354)">
<rect x="-350" y="2" width="625" height="352" rx="24" fill="#EEEEEE"/>
<rect x="-252.5" y="128" width="295" height="40" rx="20" fill="white"/>
<rect x="-253" y="224" width="295" height="40" rx="20" fill="#0C8DFB"/>
<rect x="-253" y="176" width="295" height="40" rx="20" fill="white"/>
</g>
</g>
<defs>
<clipPath id="clip0_4182_4354">
<rect width="530" height="258" fill="white"/>
</clipPath>
<clipPath id="clip1_4182_4354">
<rect x="460" y="39" width="344" height="248" rx="30" fill="white"/>
</clipPath>
<clipPath id="clip2_4182_4354">
<rect x="93" y="39" width="344" height="248" rx="30" fill="white"/>
</clipPath>
<clipPath id="clip3_4182_4354">
<rect x="-274" y="39" width="344" height="248" rx="30" fill="white"/>
</clipPath>
</defs>
</svg>
