<svg width="528" height="464" viewBox="0 0 528 464" fill="none" xmlns="http://www.w3.org/2000/svg">
<g clip-path="url(#clip0_4182_3672)">
<rect width="528" height="464" fill="white"/>
<g filter="url(#filter0_d_4182_3672)">
<rect x="169.965" y="74.4443" width="197.352" height="197.352" rx="34" transform="rotate(15 169.965 74.4443)" fill="white" shape-rendering="crispEdges"/>
<rect x="168.551" y="71.9948" width="201.352" height="201.352" rx="36" transform="rotate(15 168.551 71.9948)" stroke="black" stroke-opacity="0.13" stroke-width="4" shape-rendering="crispEdges"/>
</g>
<circle cx="186.881" cy="120.714" r="12.3132" transform="rotate(15 186.881 120.714)" fill="#FFE4DD"/>
<circle cx="214.066" cy="127.999" r="12.3132" transform="rotate(15 214.066 127.999)" fill="#FFE4DD"/>
<circle cx="241.251" cy="135.284" r="12.3132" transform="rotate(15 241.251 135.284)" fill="#FFE4DD"/>
<circle cx="268.437" cy="142.567" r="12.3132" transform="rotate(15 268.437 142.567)" fill="#FFE4DD"/>
<circle cx="295.622" cy="149.852" r="12.3132" transform="rotate(15 295.622 149.852)" fill="#FFE4DD"/>
<circle cx="322.808" cy="157.136" r="12.3132" transform="rotate(15 322.808 157.136)" fill="#FFE4DD"/>
<circle cx="178.943" cy="150.338" r="12.3132" transform="rotate(15 178.943 150.338)" fill="#FFE4DD"/>
<circle cx="206.128" cy="157.624" r="12.3132" transform="rotate(15 206.128 157.624)" fill="#FFE4DD"/>
<circle cx="233.314" cy="164.907" r="12.3132" transform="rotate(15 233.314 164.907)" fill="#FFE4DD"/>
<circle cx="260.499" cy="172.192" r="12.3132" transform="rotate(15 260.499 172.192)" fill="#FFE4DD"/>
<circle cx="287.685" cy="179.476" r="12.3132" transform="rotate(15 287.685 179.476)" fill="#FFE4DD"/>
<circle cx="314.87" cy="186.76" r="12.3132" transform="rotate(15 314.87 186.76)" fill="#FFE4DD"/>
<circle cx="171.005" cy="179.963" r="12.3132" transform="rotate(15 171.005 179.963)" fill="#FFE4DD"/>
<circle cx="198.19" cy="187.249" r="12.3132" transform="rotate(15 198.19 187.249)" fill="#FFE4DD"/>
<circle cx="225.376" cy="194.532" r="12.3132" transform="rotate(15 225.376 194.532)" fill="#FFE4DD"/>
<circle cx="252.561" cy="201.817" r="12.3132" transform="rotate(15 252.561 201.817)" fill="#FA5426"/>
<circle cx="279.747" cy="209.101" r="12.3132" transform="rotate(15 279.747 209.101)" fill="#FFE4DD"/>
<circle cx="306.932" cy="216.385" r="12.3132" transform="rotate(15 306.932 216.385)" fill="#FFE4DD"/>
<circle cx="163.067" cy="209.587" r="12.3132" transform="rotate(15 163.067 209.587)" fill="#FFE4DD"/>
<circle cx="190.252" cy="216.873" r="12.3132" transform="rotate(15 190.252 216.873)" fill="#FFE4DD"/>
<circle cx="217.438" cy="224.157" r="12.3132" transform="rotate(15 217.438 224.157)" fill="#FFE4DD"/>
<circle cx="244.623" cy="231.44" r="12.3132" transform="rotate(15 244.623 231.44)" fill="#FFE4DD"/>
<circle cx="271.809" cy="238.725" r="12.3132" transform="rotate(15 271.809 238.725)" fill="#FFE4DD"/>
<circle cx="298.994" cy="246.009" r="12.3132" transform="rotate(15 298.994 246.009)" fill="#FFE4DD"/>
<rect x="145.387" y="227.997" width="165.349" height="29.3361" rx="14.668" transform="rotate(15 145.387 227.997)" fill="#FA5426"/>
<path d="M232.094 104.617C232.656 104.828 233.074 105.194 233.351 105.714C233.639 106.226 233.691 106.823 233.509 107.504C233.279 108.364 232.814 108.964 232.115 109.303C231.426 109.646 230.589 109.685 229.606 109.421L226.104 108.483L228.764 98.5576L232.081 99.4467C233.074 99.7126 233.792 100.153 234.235 100.768C234.68 101.374 234.796 102.079 234.58 102.882C234.246 104.13 233.417 104.708 232.094 104.617ZM231.627 100.86L230.01 100.427L229.281 103.149L230.897 103.582C231.408 103.719 231.837 103.707 232.183 103.547C232.542 103.38 232.779 103.083 232.893 102.658C233.009 102.223 232.957 101.849 232.737 101.537C232.517 101.225 232.147 100.999 231.627 100.86ZM229.962 107.982C230.453 108.113 230.872 108.084 231.217 107.892C231.562 107.701 231.797 107.369 231.924 106.897C232.036 106.481 231.984 106.107 231.768 105.776C231.556 105.435 231.218 105.203 230.755 105.079L228.897 104.581L228.118 107.488L229.962 107.982Z" fill="#FF5525"/>
<path d="M239.932 111.322C239.133 111.807 238.2 111.906 237.132 111.62C236.064 111.334 235.3 110.78 234.842 109.958C234.395 109.129 234.306 108.214 234.575 107.212C234.843 106.21 235.377 105.466 236.175 104.981C236.986 104.489 237.925 104.386 238.993 104.672C240.062 104.959 240.819 105.516 241.266 106.345C241.724 107.167 241.819 108.079 241.551 109.081C241.282 110.083 240.743 110.83 239.932 111.322ZM236.224 109.28C236.47 109.761 236.895 110.083 237.5 110.245C238.105 110.407 238.63 110.34 239.074 110.043C239.528 109.75 239.838 109.291 240.005 108.667C240.172 108.043 240.133 107.49 239.887 107.009C239.651 106.53 239.23 106.21 238.625 106.048C238.02 105.886 237.491 105.952 237.037 106.245C236.593 106.542 236.287 107.002 236.12 107.626C235.953 108.25 235.988 108.801 236.224 109.28Z" fill="#FF5525"/>
<path d="M247.891 113.454C247.092 113.94 246.159 114.039 245.09 113.753C244.022 113.467 243.259 112.912 242.8 112.091C242.354 111.262 242.265 110.346 242.533 109.344C242.802 108.342 243.335 107.599 244.134 107.114C244.945 106.622 245.884 106.519 246.952 106.805C248.02 107.091 248.778 107.649 249.224 108.478C249.683 109.3 249.778 110.212 249.509 111.214C249.241 112.216 248.701 112.962 247.891 113.454ZM244.183 111.412C244.429 111.894 244.854 112.215 245.459 112.377C246.064 112.54 246.588 112.472 247.033 112.176C247.486 111.882 247.797 111.423 247.964 110.799C248.131 110.176 248.092 109.623 247.846 109.142C247.609 108.663 247.189 108.342 246.584 108.18C245.979 108.018 245.449 108.084 244.996 108.378C244.552 108.674 244.246 109.134 244.079 109.758C243.912 110.382 243.946 110.934 244.183 111.412Z" fill="#FF5525"/>
<path d="M257.733 109.876L254.021 112.27L255.962 116.483L253.935 115.94L252.315 112.285L251.51 115.29L249.964 114.876L252.624 104.951L254.169 105.365L252.505 111.576L255.776 109.352L257.733 109.876Z" fill="#FF5525"/>
<path d="M263.27 118.624C262.239 118.348 261.528 117.808 261.135 117.003C260.743 116.199 260.682 115.291 260.953 114.28C261.222 113.278 261.741 112.531 262.511 112.038C263.284 111.536 264.172 111.419 265.174 111.687C265.618 111.807 265.999 112.01 266.317 112.298C266.635 112.586 266.849 112.922 266.959 113.306L267.198 112.412L268.744 112.826L266.973 119.434L265.428 119.02L265.667 118.127C265.392 118.397 265.025 118.577 264.565 118.667C264.117 118.75 263.685 118.735 263.27 118.624ZM263.865 117.309C264.498 117.479 265.034 117.41 265.471 117.101C265.917 116.795 266.222 116.34 266.384 115.735C266.546 115.13 266.51 114.583 266.276 114.095C266.052 113.61 265.623 113.282 264.99 113.112C264.394 112.953 263.868 113.025 263.412 113.328C262.968 113.624 262.663 114.08 262.499 114.694C262.334 115.308 262.369 115.86 262.603 116.348C262.849 116.829 263.269 117.15 263.865 117.309Z" fill="#FF5525"/>
<path d="M275.558 120.336C275.87 120.42 276.135 120.47 276.353 120.488L275.988 121.849C275.652 121.82 275.261 121.746 274.817 121.627C274.562 121.558 274.345 121.48 274.166 121.392C273.987 121.303 273.788 121.158 273.568 120.958C273.351 120.748 273.217 120.453 273.166 120.075C273.115 119.697 273.16 119.248 273.299 118.728L274.124 115.651L273.003 115.351L273.349 114.06L274.469 114.361L275.005 112.361L276.551 112.775L276.015 114.775L277.532 115.181L277.186 116.472L275.669 116.065L274.94 118.787C274.798 119.317 274.78 119.687 274.885 119.897C274.994 120.099 275.218 120.245 275.558 120.336Z" fill="#FF5525"/>
<path d="M280.982 114.738C280.707 114.897 280.403 114.932 280.072 114.844C279.742 114.755 279.497 114.573 279.337 114.297C279.181 114.012 279.146 113.709 279.232 113.387C279.318 113.066 279.499 112.826 279.774 112.667C280.053 112.498 280.357 112.458 280.688 112.547C281.019 112.635 281.262 112.822 281.419 113.107C281.578 113.383 281.615 113.682 281.529 114.003C281.443 114.324 281.26 114.569 280.982 114.738ZM277.268 122.192L279.038 115.585L280.584 115.999L278.813 122.606L277.268 122.192Z" fill="#FF5525"/>
<path d="M280.657 123.1L282.427 116.493L283.973 116.907L283.726 117.829C283.963 117.548 284.274 117.352 284.658 117.243C285.044 117.123 285.446 117.119 285.862 117.231C286.911 117.512 287.5 118.09 287.631 118.966C287.882 118.669 288.222 118.461 288.649 118.342C289.078 118.214 289.52 118.211 289.974 118.333C291.562 118.758 292.124 119.836 291.66 121.566L290.54 125.748L288.994 125.334L290.035 121.449C290.316 120.4 290.046 119.765 289.223 119.545C288.788 119.428 288.409 119.484 288.084 119.711C287.763 119.929 287.504 120.401 287.309 121.129L286.371 124.631L284.825 124.217L285.87 120.318C286.149 119.278 285.886 118.651 285.083 118.435C284.639 118.316 284.25 118.369 283.916 118.594C283.594 118.812 283.336 119.284 283.141 120.012L282.202 123.514L280.657 123.1Z" fill="#FF5525"/>
<path d="M299.272 124.183C299.227 124.353 299.137 124.633 299.002 125.022L294.096 123.708C293.976 124.233 294.038 124.68 294.283 125.05C294.531 125.41 294.939 125.666 295.506 125.818C296.234 126.013 296.793 125.894 297.182 125.462L298.742 125.879C298.473 126.466 298.002 126.882 297.329 127.127C296.667 127.365 295.939 127.378 295.145 127.165C294.105 126.886 293.367 126.354 292.929 125.568C292.491 124.782 292.415 123.855 292.701 122.787C292.985 121.728 293.508 120.967 294.271 120.502C295.046 120.031 295.939 119.931 296.95 120.202C297.895 120.455 298.578 120.952 298.997 121.693C299.429 122.426 299.521 123.256 299.272 124.183ZM294.411 122.531L297.843 123.45C297.97 122.937 297.924 122.504 297.704 122.152C297.494 121.802 297.124 121.556 296.595 121.414C296.056 121.269 295.592 121.302 295.201 121.511C294.811 121.721 294.547 122.061 294.411 122.531Z" fill="#FF5525"/>
<path d="M190.079 253.765C190.58 253.952 190.956 254.273 191.205 254.726C191.465 255.174 191.516 255.693 191.358 256.284C191.158 257.03 190.747 257.549 190.127 257.839C189.515 258.133 188.77 258.162 187.892 257.926L184.766 257.089L187.073 248.477L190.035 249.27C190.921 249.508 191.563 249.895 191.962 250.433C192.363 250.962 192.47 251.575 192.283 252.272C191.993 253.355 191.258 253.853 190.079 253.765ZM189.639 250.496L188.196 250.109L187.563 252.471L189.006 252.858C189.462 252.98 189.843 252.973 190.152 252.835C190.47 252.692 190.679 252.436 190.778 252.067C190.879 251.69 190.831 251.365 190.632 251.092C190.434 250.819 190.103 250.62 189.639 250.496ZM188.2 256.677C188.638 256.795 189.011 256.771 189.317 256.607C189.624 256.443 189.832 256.156 189.941 255.746C190.038 255.385 189.99 255.06 189.796 254.771C189.604 254.473 189.302 254.269 188.888 254.158L187.23 253.714L186.554 256.236L188.2 256.677Z" fill="white"/>
<path d="M197.105 259.643C196.396 260.06 195.565 260.141 194.611 259.885C193.658 259.63 192.974 259.143 192.56 258.426C192.157 257.702 192.072 256.906 192.305 256.036C192.538 255.167 193.009 254.524 193.717 254.107C194.437 253.685 195.273 253.601 196.227 253.857C197.18 254.112 197.859 254.602 198.262 255.325C198.675 256.042 198.766 256.836 198.533 257.705C198.3 258.575 197.824 259.221 197.105 259.643ZM193.788 257.845C194.01 258.265 194.391 258.547 194.931 258.692C195.471 258.836 195.938 258.781 196.332 258.526C196.734 258.274 197.008 257.877 197.153 257.335C197.298 256.794 197.26 256.314 197.037 255.894C196.824 255.476 196.447 255.195 195.907 255.05C195.367 254.905 194.896 254.959 194.493 255.212C194.099 255.467 193.83 255.865 193.685 256.406C193.54 256.947 193.574 257.427 193.788 257.845Z" fill="white"/>
<path d="M204.209 261.547C203.501 261.964 202.67 262.044 201.716 261.789C200.762 261.533 200.079 261.047 199.665 260.329C199.262 259.606 199.177 258.81 199.41 257.94C199.643 257.071 200.114 256.428 200.822 256.011C201.541 255.588 202.378 255.505 203.331 255.76C204.285 256.016 204.963 256.505 205.366 257.229C205.78 257.946 205.871 258.739 205.638 259.609C205.405 260.478 204.929 261.124 204.209 261.547ZM200.893 259.748C201.115 260.168 201.496 260.451 202.036 260.595C202.576 260.74 203.043 260.685 203.437 260.43C203.839 260.177 204.113 259.781 204.258 259.239C204.403 258.698 204.364 258.217 204.142 257.797C203.929 257.38 203.552 257.098 203.012 256.954C202.472 256.809 202 256.863 201.598 257.116C201.204 257.37 200.935 257.769 200.79 258.31C200.645 258.851 200.679 259.331 200.893 259.748Z" fill="white"/>
<path d="M212.956 258.498L209.664 260.556L211.42 264.231L209.61 263.746L208.145 260.558L207.446 263.166L206.066 262.796L208.374 254.184L209.753 254.554L208.309 259.942L211.21 258.03L212.956 258.498Z" fill="white"/>
<path d="M215.592 265.349L217.9 256.736L219.292 257.11L220.36 264.464L224.95 258.626L226.342 258.999L224.035 267.611L222.642 267.238L224.169 261.541L220.364 266.627L219.263 266.332L218.527 259.964L216.984 265.722L215.592 265.349Z" fill="white"/>
<path d="M231.937 266.339C231.898 266.487 231.819 266.73 231.702 267.067L227.322 265.894C227.218 266.35 227.276 266.739 227.497 267.062C227.721 267.376 228.085 267.602 228.592 267.737C229.241 267.911 229.739 267.812 230.083 267.438L231.475 267.811C231.24 268.319 230.822 268.678 230.224 268.887C229.636 269.09 228.987 269.096 228.279 268.906C227.35 268.657 226.689 268.19 226.294 267.504C225.899 266.818 225.825 266.012 226.074 265.085C226.32 264.166 226.781 263.507 227.458 263.108C228.145 262.704 228.94 262.622 229.843 262.864C230.687 263.09 231.298 263.527 231.677 264.173C232.066 264.813 232.153 265.536 231.937 266.339ZM227.596 264.873L230.659 265.694C230.769 265.248 230.725 264.872 230.527 264.564C230.338 264.258 230.007 264.042 229.534 263.915C229.053 263.787 228.64 263.812 228.293 263.992C227.946 264.171 227.714 264.465 227.596 264.873Z" fill="white"/>
<path d="M238.609 268.127C238.57 268.275 238.491 268.518 238.374 268.855L233.994 267.682C233.89 268.137 233.949 268.527 234.17 268.85C234.393 269.164 234.757 269.389 235.264 269.525C235.914 269.699 236.411 269.599 236.755 269.226L238.147 269.599C237.912 270.107 237.494 270.466 236.896 270.675C236.308 270.877 235.659 270.884 234.951 270.694C234.022 270.445 233.361 269.978 232.966 269.292C232.571 268.606 232.497 267.799 232.746 266.872C232.992 265.954 233.453 265.295 234.13 264.896C234.817 264.491 235.612 264.41 236.515 264.652C237.359 264.878 237.97 265.314 238.349 265.961C238.738 266.601 238.825 267.323 238.609 268.127ZM234.268 266.661L237.331 267.481C237.441 267.036 237.397 266.66 237.199 266.352C237.01 266.046 236.679 265.83 236.206 265.703C235.725 265.574 235.312 265.6 234.965 265.779C234.618 265.959 234.386 266.253 234.268 266.661Z" fill="white"/>
<path d="M241.881 271.18C242.16 271.254 242.396 271.3 242.591 271.317L242.274 272.498C241.974 272.47 241.626 272.403 241.229 272.297C241.001 272.236 240.808 272.167 240.648 272.089C240.488 272.011 240.309 271.884 240.112 271.708C239.917 271.524 239.796 271.267 239.748 270.938C239.701 270.609 239.738 270.218 239.859 269.767L240.574 267.098L239.574 266.83L239.874 265.71L240.874 265.978L241.339 264.243L242.718 264.613L242.254 266.348L243.608 266.711L243.308 267.83L241.954 267.467L241.321 269.829C241.198 270.289 241.184 270.61 241.279 270.794C241.377 270.97 241.578 271.098 241.881 271.18Z" fill="white"/>
<path d="M246.679 266.347C246.435 266.483 246.165 266.512 245.869 266.433C245.574 266.354 245.355 266.194 245.211 265.953C245.07 265.705 245.036 265.441 245.111 265.162C245.186 264.883 245.346 264.675 245.59 264.539C245.837 264.394 246.108 264.361 246.404 264.44C246.699 264.519 246.917 264.683 247.059 264.932C247.202 265.173 247.236 265.432 247.162 265.711C247.087 265.99 246.926 266.202 246.679 266.347ZM243.416 272.804L244.952 267.071L246.332 267.441L244.796 273.174L243.416 272.804Z" fill="white"/>
<path d="M246.442 273.615L247.978 267.882L249.358 268.251L249.143 269.051C249.692 268.521 250.418 268.377 251.321 268.619C252.756 269.004 253.27 269.954 252.863 271.472L251.897 275.077L250.518 274.707L251.319 271.717C251.486 271.094 251.508 270.621 251.387 270.298C251.265 269.976 250.968 269.751 250.496 269.624C250.048 269.504 249.665 269.551 249.346 269.764C249.028 269.97 248.802 270.326 248.665 270.835L247.821 273.984L246.442 273.615Z" fill="white"/>
<path d="M259.363 270.932L260.742 271.302L259.272 276.789C258.964 277.937 258.389 278.666 257.546 278.977C256.992 279.189 256.272 279.176 255.386 278.939C254.525 278.708 253.879 278.35 253.448 277.866C252.955 277.311 252.782 276.707 252.93 276.052L254.373 276.439C254.326 277.121 254.758 277.584 255.67 277.828C256.252 277.984 256.72 277.96 257.073 277.756C257.432 277.562 257.697 277.149 257.866 276.518L258.034 275.89C257.791 276.124 257.464 276.278 257.055 276.353C256.657 276.422 256.272 276.407 255.901 276.307C255.006 276.068 254.373 275.595 254.002 274.889C253.641 274.177 253.577 273.386 253.81 272.517C254.041 271.655 254.503 271.01 255.197 270.581C255.899 270.153 256.685 270.056 257.554 270.289C257.951 270.395 258.292 270.575 258.577 270.827C258.862 271.079 259.055 271.373 259.155 271.707L259.363 270.932ZM256.423 275.168C256.963 275.313 257.435 275.255 257.84 274.994C258.247 274.725 258.519 274.332 258.658 273.816C258.796 273.299 258.755 272.826 258.536 272.398C258.318 271.962 257.939 271.671 257.399 271.527C256.884 271.389 256.42 271.449 256.007 271.708C255.605 271.96 255.332 272.353 255.189 272.886C255.047 273.419 255.085 273.9 255.305 274.328C255.536 274.75 255.908 275.03 256.423 275.168Z" fill="white"/>
<g filter="url(#filter1_d_4182_3672)">
<rect x="-33.2228" y="20" width="197.352" height="197.352" rx="34" transform="rotate(15 -33.2228 20)" fill="white" shape-rendering="crispEdges"/>
<rect x="-34.637" y="17.5505" width="201.352" height="201.352" rx="36" transform="rotate(15 -34.637 17.5505)" stroke="black" stroke-opacity="0.13" stroke-width="4" shape-rendering="crispEdges"/>
</g>
<circle cx="10.8779" cy="73.5551" r="12.3132" transform="rotate(15 10.8779 73.5551)" fill="#FFF1DD"/>
<circle cx="38.0634" cy="80.8393" r="12.3132" transform="rotate(15 38.0634 80.8393)" fill="#FFF1DD"/>
<circle cx="65.2489" cy="88.1225" r="12.3132" transform="rotate(15 65.2489 88.1225)" fill="#FFF1DD"/>
<circle cx="92.4344" cy="95.4077" r="12.3132" transform="rotate(15 92.4344 95.4077)" fill="#FFF1DD"/>
<circle cx="119.62" cy="102.692" r="12.3132" transform="rotate(15 119.62 102.692)" fill="#FFF1DD"/>
<circle cx="2.94003" cy="103.179" r="12.3132" transform="rotate(15 2.94003 103.179)" fill="#FFF1DD"/>
<circle cx="30.1256" cy="110.462" r="12.3132" transform="rotate(15 30.1256 110.462)" fill="#FFF1DD"/>
<circle cx="57.311" cy="117.748" r="12.3132" transform="rotate(15 57.311 117.748)" fill="#FFF1DD"/>
<circle cx="84.4965" cy="125.032" r="12.3132" transform="rotate(15 84.4965 125.032)" fill="#FFF1DD"/>
<circle cx="111.682" cy="132.316" r="12.3132" transform="rotate(15 111.682 132.316)" fill="#FFF1DD"/>
<circle cx="-4.99759" cy="132.804" r="12.3132" transform="rotate(15 -4.99759 132.804)" fill="#FFF1DD"/>
<circle cx="22.188" cy="140.087" r="12.3132" transform="rotate(15 22.188 140.087)" fill="#FFF1DD"/>
<circle cx="49.3734" cy="147.373" r="12.3132" transform="rotate(15 49.3734 147.373)" fill="#FABF26"/>
<circle cx="76.5589" cy="154.657" r="12.3132" transform="rotate(15 76.5589 154.657)" fill="#FFF1DD"/>
<circle cx="103.744" cy="161.941" r="12.3132" transform="rotate(15 103.744 161.941)" fill="#FFF1DD"/>
<circle cx="-12.9356" cy="162.428" r="12.3132" transform="rotate(15 -12.9356 162.428)" fill="#FFF1DD"/>
<circle cx="14.25" cy="169.712" r="12.3132" transform="rotate(15 14.25 169.712)" fill="#FFF1DD"/>
<circle cx="41.4353" cy="176.996" r="12.3132" transform="rotate(15 41.4353 176.996)" fill="#FFF1DD"/>
<circle cx="68.6208" cy="184.281" r="12.3132" transform="rotate(15 68.6208 184.281)" fill="#FFF1DD"/>
<circle cx="95.8062" cy="191.565" r="12.3132" transform="rotate(15 95.8062 191.565)" fill="#FFF1DD"/>
<rect x="-57.801" y="173.553" width="165.349" height="29.3361" rx="14.668" transform="rotate(15 -57.801 173.553)" fill="#FABF26"/>
<path d="M28.9062 50.1728C29.4676 50.384 29.8864 50.7495 30.1625 51.2692C30.4506 51.7821 30.5035 52.3788 30.3211 53.0594C30.0906 53.9196 29.6259 54.5195 28.9271 54.8591C28.2377 55.2012 27.4014 55.2405 26.4183 54.9771L22.9161 54.0387L25.5756 44.1133L28.8935 45.0023C29.886 45.2683 30.6038 45.7088 31.0469 46.324C31.4925 46.9297 31.6076 47.6343 31.3923 48.4378C31.058 49.6855 30.2293 50.2639 28.9062 50.1728ZM28.4389 46.4154L26.8224 45.9823L26.093 48.7047L27.7094 49.1378C28.2198 49.2746 28.6485 49.2628 28.9954 49.1025C29.3543 48.9352 29.5908 48.6389 29.7047 48.2135C29.8212 47.7787 29.7694 47.4051 29.5491 47.0928C29.3288 46.7805 28.9588 46.5547 28.4389 46.4154ZM26.7737 53.5374C27.2652 53.6691 27.6835 53.6394 28.0286 53.4481C28.3736 53.2569 28.6095 52.925 28.7361 52.4524C28.8476 52.0364 28.7957 51.6629 28.5805 51.3317C28.3678 50.991 28.0299 50.7586 27.5667 50.6345L25.7092 50.1368L24.9304 53.0435L26.7737 53.5374Z" fill="#FF5525"/>
<path d="M36.744 56.8776C35.9454 57.3627 35.012 57.4622 33.9438 57.1759C32.8757 56.8897 32.1123 56.3356 31.6537 55.5137C31.2072 54.6848 31.1181 53.7694 31.3866 52.7674C31.6551 51.7654 32.1886 51.0219 32.9873 50.5368C33.7979 50.0448 34.7373 49.9419 35.8055 50.2282C36.8736 50.5144 37.631 51.0719 38.0776 51.9008C38.5362 52.7227 38.6312 53.6347 38.3627 54.6367C38.0942 55.6387 37.5547 56.3857 36.744 56.8776ZM33.036 54.8355C33.2819 55.3168 33.7074 55.6385 34.3124 55.8006C34.9173 55.9627 35.4419 55.8955 35.886 55.5991C36.3396 55.3053 36.65 54.8464 36.8172 54.2225C36.9844 53.5987 36.945 53.0461 36.6991 52.5648C36.4626 52.0861 36.0419 51.7656 35.437 51.6035C34.832 51.4414 34.3027 51.5073 33.8491 51.8011C33.4049 52.0975 33.0993 52.5577 32.9321 53.1815C32.7649 53.8054 32.7996 54.3567 33.036 54.8355Z" fill="#FF5525"/>
<path d="M44.7027 59.0102C43.904 59.4952 42.9706 59.5947 41.9024 59.3084C40.8343 59.0222 40.0709 58.4681 39.6123 57.6462C39.1658 56.8173 39.0767 55.9019 39.3452 54.8999C39.6137 53.8979 40.1472 53.1544 40.9459 52.6693C41.7565 52.1773 42.6959 52.0744 43.7641 52.3607C44.8322 52.6469 45.5896 53.2044 46.0362 54.0333C46.4948 54.8552 46.5898 55.7672 46.3213 56.7692C46.0528 57.7712 45.5133 58.5182 44.7027 59.0102ZM40.9946 56.968C41.2405 57.4493 41.666 57.771 42.271 57.9331C42.8759 58.0952 43.4005 58.028 43.8447 57.7316C44.2983 57.4378 44.6086 56.9789 44.7758 56.355C44.943 55.7312 44.9036 55.1786 44.6577 54.6973C44.4212 54.2186 44.0005 53.8981 43.3956 53.736C42.7906 53.5739 42.2613 53.6398 41.8077 53.9336C41.3635 54.23 41.0579 54.6902 40.8907 55.314C40.7235 55.9379 40.7582 56.4892 40.9946 56.968Z" fill="#FF5525"/>
<path d="M54.5446 55.4317L50.8332 57.8261L52.7741 62.0391L50.7465 61.4958L49.1273 57.8402L48.3219 60.8462L46.7764 60.432L49.4359 50.5066L50.9814 50.9208L49.3173 57.1312L52.5879 54.9073L54.5446 55.4317Z" fill="#FF5525"/>
<path d="M60.0815 64.1795C59.0512 63.9034 58.3398 63.3633 57.9474 62.5591C57.555 61.7549 57.4943 60.847 57.7653 59.8356C58.0338 58.8336 58.5532 58.0863 59.3235 57.5936C60.0963 57.0915 60.9837 56.9746 61.9857 57.2431C62.43 57.3622 62.8112 57.5656 63.1292 57.8535C63.4472 58.1413 63.6611 58.4772 63.7709 58.8613L64.0103 57.968L65.5558 58.3821L63.7854 64.9896L62.2398 64.5755L62.4792 63.6822C62.204 63.9529 61.8366 64.1331 61.3769 64.2227C60.9293 64.3053 60.4975 64.291 60.0815 64.1795ZM60.6769 62.8649C61.3103 63.0346 61.8456 62.9653 62.2828 62.6569C62.7295 62.3511 63.0339 61.8957 63.196 61.2907C63.3581 60.6857 63.3222 60.1392 63.0882 59.651C62.8638 59.1653 62.4349 58.8376 61.8015 58.6679C61.206 58.5083 60.6802 58.5802 60.224 58.8835C59.7799 59.1799 59.4755 59.6353 59.3109 60.2497C59.1462 60.8641 59.1809 61.4155 59.4148 61.9037C59.6607 62.3849 60.0814 62.7054 60.6769 62.8649Z" fill="#FF5525"/>
<path d="M72.3701 65.8917C72.682 65.9753 72.9471 66.0261 73.1652 66.044L72.8004 67.4052C72.4638 67.3758 72.0734 67.3015 71.6291 67.1825C71.3739 67.1141 71.1568 67.0357 70.9779 66.9472C70.799 66.8587 70.5996 66.7141 70.3799 66.5134C70.1626 66.3032 70.0287 66.009 69.9781 65.6307C69.9275 65.2524 69.9718 64.8033 70.1111 64.2834L70.9356 61.2065L69.8154 60.9064L70.1612 59.6161L71.2813 59.9162L71.817 57.917L73.3626 58.3311L72.8269 60.3304L74.344 60.7369L73.9983 62.0272L72.4811 61.6207L71.7517 64.3431C71.6098 64.8724 71.5917 65.2424 71.6974 65.4531C71.8056 65.6543 72.0298 65.8005 72.3701 65.8917Z" fill="#FF5525"/>
<path d="M77.7942 60.2936C77.5185 60.4528 77.2153 60.488 76.8844 60.3994C76.5536 60.3107 76.3086 60.1286 76.1494 59.8529C75.9928 59.5678 75.9575 59.2645 76.0436 58.9431C76.1298 58.6217 76.3107 58.3814 76.5863 58.2223C76.8645 58.0537 77.1691 58.0137 77.4999 58.1024C77.8307 58.191 78.0745 58.3779 78.2311 58.663C78.3903 58.9387 78.4268 59.2372 78.3407 59.5586C78.2546 59.88 78.0724 60.125 77.7942 60.2936ZM74.0795 67.7479L75.85 61.1404L77.3955 61.5545L75.6251 68.162L74.0795 67.7479Z" fill="#FF5525"/>
<path d="M77.4687 68.656L79.2392 62.0485L80.7847 62.4627L80.5377 63.3843C80.7751 63.1034 81.0858 62.9081 81.4698 62.7982C81.8564 62.6789 82.2576 62.675 82.6736 62.7864C83.7228 63.0676 84.3125 63.646 84.4426 64.5218C84.6944 64.2245 85.0338 64.0166 85.4607 63.898C85.8902 63.7699 86.3318 63.7666 86.7855 63.8882C88.3736 64.3137 88.9359 65.3914 88.4723 67.1213L87.3516 71.3041L85.806 70.89L86.847 67.0049C87.1282 65.9557 86.8576 65.3209 86.0352 65.1005C85.6003 64.984 85.2208 65.0393 84.8965 65.2665C84.5747 65.4842 84.3163 65.957 84.1213 66.6849L83.1829 70.1871L81.6374 69.773L82.6822 65.8737C82.9608 64.8339 82.6983 64.2064 81.8949 63.9911C81.4506 63.8721 81.0616 63.9249 80.7278 64.1495C80.4061 64.3672 80.1477 64.84 79.9526 65.5679L79.0142 69.0701L77.4687 68.656Z" fill="#FF5525"/>
<path d="M96.0844 69.7384C96.0388 69.9086 95.9487 70.1884 95.8139 70.5778L90.9079 69.2632C90.7875 69.7882 90.85 70.2355 91.0954 70.6052C91.3434 70.9655 91.7509 71.2216 92.3181 71.3735C93.046 71.5686 93.6046 71.4498 93.9941 71.0172L95.5538 71.4351C95.2852 72.0217 94.8141 72.4375 94.1406 72.6825C93.479 72.9206 92.7512 72.9333 91.9572 72.7206C90.9174 72.4419 90.1786 71.9097 89.7407 71.1237C89.3029 70.3377 89.2271 69.4106 89.5134 68.3424C89.797 67.2837 90.3202 66.5222 91.0829 66.0579C91.8576 65.5867 92.7507 65.4866 93.7621 65.7576C94.7074 66.0109 95.3898 66.5078 95.8094 67.2484C96.241 67.982 96.3326 68.812 96.0844 69.7384ZM91.2233 68.0863L94.6546 69.0058C94.7819 68.4928 94.7358 68.06 94.5162 67.7073C94.3061 67.3572 93.9364 67.1112 93.407 66.9694C92.8682 66.825 92.4036 66.8576 92.0131 67.067C91.6226 67.2765 91.3594 67.6162 91.2233 68.0863Z" fill="#FF5525"/>
<path d="M-13.1092 199.321C-12.6076 199.508 -12.2322 199.828 -11.9829 200.282C-11.723 200.73 -11.6722 201.249 -11.8304 201.839C-12.0304 202.586 -12.4407 203.104 -13.0613 203.395C-13.6735 203.688 -14.4183 203.717 -15.296 203.482L-18.4225 202.644L-16.1149 194.032L-13.1529 194.826C-12.2669 195.063 -11.6245 195.451 -11.2259 195.988C-10.8251 196.518 -10.7181 197.131 -10.9049 197.828C-11.195 198.911 -11.9297 199.408 -13.1092 199.321ZM-13.5492 196.052L-14.9922 195.665L-15.6251 198.027L-14.1821 198.414C-13.7264 198.536 -13.3445 198.528 -13.0364 198.391C-12.7177 198.248 -12.5089 197.992 -12.41 197.623C-12.3089 197.245 -12.3574 196.92 -12.5556 196.647C-12.7539 196.375 -13.085 196.176 -13.5492 196.052ZM-14.9883 202.233C-14.5495 202.35 -14.177 202.327 -13.8707 202.163C-13.5645 201.999 -13.3564 201.712 -13.2465 201.302C-13.1498 200.941 -13.1984 200.616 -13.3922 200.326C-13.5838 200.029 -13.8864 199.825 -14.2999 199.714L-15.9581 199.27L-16.6339 201.792L-14.9883 202.233Z" fill="white"/>
<path d="M-6.08345 205.199C-6.79204 205.616 -7.62312 205.696 -8.57668 205.441C-9.53024 205.185 -10.2139 204.699 -10.6276 203.981C-11.0308 203.258 -11.1158 202.462 -10.8829 201.592C-10.6499 200.723 -10.1791 200.08 -9.47055 199.663C-8.75132 199.24 -7.91493 199.157 -6.96136 199.412C-6.0078 199.668 -5.32946 200.157 -4.92635 200.881C-4.51261 201.598 -4.42222 202.391 -4.65517 203.261C-4.88813 204.13 -5.36422 204.776 -6.08345 205.199ZM-9.4002 203.4C-9.17808 203.82 -8.79699 204.103 -8.25691 204.247C-7.71684 204.392 -7.24986 204.337 -6.85596 204.082C-6.45363 203.829 -6.17994 203.432 -6.03489 202.891C-5.88984 202.35 -5.92837 201.869 -6.1505 201.449C-6.36418 201.032 -6.74106 200.75 -7.28113 200.606C-7.8212 200.461 -8.2924 200.515 -8.69474 200.767C-9.08864 201.022 -9.35811 201.42 -9.50316 201.962C-9.64821 202.503 -9.61389 202.983 -9.4002 203.4Z" fill="white"/>
<path d="M1.0213 207.103C0.312713 207.519 -0.518364 207.6 -1.47193 207.344C-2.42549 207.089 -3.10915 206.602 -3.52289 205.885C-3.926 205.162 -4.01107 204.365 -3.77812 203.496C-3.54516 202.626 -3.07439 201.983 -2.3658 201.567C-1.64657 201.144 -0.810173 201.06 0.14339 201.316C1.09695 201.571 1.77529 202.061 2.1784 202.784C2.59214 203.502 2.68254 204.295 2.44958 205.165C2.21662 206.034 1.74053 206.68 1.0213 207.103ZM-2.29545 205.304C-2.07333 205.724 -1.69223 206.006 -1.15216 206.151C-0.612089 206.296 -0.145105 206.241 0.248791 205.986C0.651126 205.733 0.924818 205.336 1.06987 204.795C1.21492 204.254 1.17638 203.773 0.954256 203.353C0.740572 202.935 0.363695 202.654 -0.176377 202.509C-0.716448 202.365 -1.18765 202.419 -1.58999 202.671C-1.98388 202.926 -2.25335 203.324 -2.3984 203.866C-2.54345 204.407 -2.50914 204.886 -2.29545 205.304Z" fill="white"/>
<path d="M9.76845 204.053L6.47642 206.112L8.23225 209.786L6.42217 209.301L4.95654 206.113L4.25767 208.721L2.87795 208.352L5.18555 199.74L6.56526 200.109L5.12137 205.498L8.02166 203.585L9.76845 204.053Z" fill="white"/>
<path d="M12.404 210.904L14.7116 202.292L16.104 202.665L17.1724 210.019L21.7621 204.181L23.1545 204.554L20.8469 213.166L19.4545 212.793L20.9808 207.097L17.1761 212.183L16.0748 211.888L15.3392 205.52L13.7964 211.277L12.404 210.904Z" fill="white"/>
<path d="M28.7494 211.895C28.7098 212.043 28.6312 212.285 28.5136 212.623L24.134 211.45C24.03 211.905 24.0885 212.294 24.3095 212.617C24.5326 212.932 24.8974 213.157 25.4037 213.293C26.0535 213.467 26.5505 213.367 26.8948 212.994L28.2872 213.367C28.0515 213.875 27.6344 214.234 27.0358 214.442C26.4478 214.645 25.7994 214.652 25.0905 214.462C24.1623 214.213 23.5006 213.746 23.1056 213.06C22.7106 212.374 22.6373 211.567 22.8856 210.64C23.1317 209.722 23.5932 209.063 24.2698 208.664C24.9572 208.259 25.7523 208.178 26.6552 208.42C27.4991 208.646 28.1103 209.082 28.4888 209.729C28.8779 210.369 28.9648 211.091 28.7494 211.895ZM24.4076 210.428L27.4708 211.249C27.581 210.804 27.5372 210.427 27.3394 210.12C27.1499 209.814 26.819 209.598 26.3464 209.471C25.8654 209.342 25.4516 209.368 25.105 209.547C24.7584 209.727 24.5259 210.021 24.4076 210.428Z" fill="white"/>
<path d="M35.4215 213.683C35.3819 213.831 35.3033 214.073 35.1857 214.411L30.8061 213.237C30.7021 213.693 30.7606 214.082 30.9816 214.405C31.2047 214.72 31.5695 214.945 32.0758 215.081C32.7256 215.255 33.2226 215.155 33.567 214.781L34.9593 215.155C34.7236 215.663 34.3065 216.021 33.7079 216.23C33.1199 216.433 32.4715 216.44 31.7626 216.25C30.8344 216.001 30.1728 215.533 29.7777 214.847C29.3827 214.161 29.3094 213.355 29.5577 212.428C29.8038 211.51 30.2653 210.851 30.9419 210.452C31.6293 210.047 32.4244 209.966 33.3273 210.208C34.1712 210.434 34.7824 210.87 35.1609 211.516C35.55 212.157 35.6369 212.879 35.4215 213.683ZM31.0797 212.216L34.1429 213.037C34.2532 212.592 34.2093 212.215 34.0115 211.907C33.8221 211.602 33.4911 211.385 33.0185 211.259C32.5375 211.13 32.1237 211.155 31.7771 211.335C31.4305 211.515 31.198 211.808 31.0797 212.216Z" fill="white"/>
<path d="M38.6934 216.735C38.9719 216.81 39.2084 216.856 39.4028 216.873L39.0863 218.054C38.7862 218.026 38.4379 217.959 38.0413 217.853C37.8134 217.792 37.6195 217.722 37.4595 217.644C37.2995 217.566 37.121 217.439 36.9239 217.263C36.7291 217.079 36.6079 216.823 36.5604 216.493C36.513 216.164 36.5497 215.774 36.6706 215.323L37.3859 212.653L36.3859 212.385L36.6859 211.266L37.6859 211.534L38.1507 209.799L39.5304 210.169L39.0656 211.903L40.42 212.266L40.12 213.386L38.7656 213.023L38.1327 215.385C38.0096 215.844 37.9958 216.166 38.0913 216.35C38.1889 216.525 38.3896 216.654 38.6934 216.735Z" fill="white"/>
<path d="M43.4915 211.903C43.2468 212.039 42.9768 212.068 42.6815 211.989C42.3861 211.91 42.1667 211.75 42.0231 211.509C41.8818 211.26 41.8485 210.996 41.9232 210.717C41.9979 210.439 42.1576 210.231 42.4022 210.094C42.6491 209.949 42.9202 209.917 43.2155 209.996C43.5109 210.075 43.7292 210.239 43.8706 210.488C44.0141 210.728 44.0485 210.988 43.9738 211.267C43.8991 211.546 43.7383 211.758 43.4915 211.903ZM40.2282 218.36L41.7644 212.627L43.1441 212.996L41.6079 218.729L40.2282 218.36Z" fill="white"/>
<path d="M43.2538 219.17L44.79 213.437L46.1697 213.807L45.9554 214.607C46.5044 214.077 47.2303 213.933 48.1332 214.175C49.5678 214.559 50.0818 215.51 49.6752 217.027L48.7093 220.632L47.3296 220.263L48.1307 217.273C48.2977 216.65 48.3204 216.177 48.1989 215.854C48.0773 215.531 47.7802 215.307 47.3077 215.18C46.8604 215.06 46.4771 215.107 46.1576 215.32C45.8404 215.525 45.6137 215.882 45.4774 216.391L44.6335 219.54L43.2538 219.17Z" fill="white"/>
<path d="M56.1746 216.488L57.5543 216.857L56.084 222.345C55.7763 223.493 55.201 224.222 54.3581 224.533C53.8039 224.744 53.0838 224.732 52.1977 224.494C51.337 224.264 50.6912 223.906 50.2603 223.421C49.7666 222.867 49.5939 222.263 49.7422 221.608L51.1853 221.994C51.1382 222.676 51.5704 223.139 52.4817 223.384C53.064 223.54 53.5317 223.516 53.8849 223.311C54.2444 223.117 54.5087 222.705 54.6779 222.073L54.8461 221.446C54.6026 221.679 54.2763 221.834 53.8673 221.909C53.4689 221.978 53.0841 221.963 52.7128 221.863C51.8183 221.623 51.1853 221.151 50.8137 220.444C50.4528 219.732 50.3888 218.942 50.6218 218.072C50.8525 217.211 51.3149 216.566 52.0088 216.136C52.7111 215.709 53.4969 215.612 54.3661 215.845C54.7627 215.951 55.1036 216.13 55.3887 216.383C55.6739 216.635 55.8666 216.928 55.9669 217.263L56.1746 216.488ZM53.2351 220.724C53.7751 220.869 54.2474 220.811 54.652 220.55C55.0587 220.281 55.3313 219.888 55.4698 219.371C55.6082 218.855 55.5675 218.382 55.3476 217.954C55.1298 217.518 54.7509 217.227 54.2109 217.082C53.6961 216.944 53.2322 217.005 52.8193 217.263C52.4169 217.516 52.1443 217.909 52.0015 218.442C51.8586 218.975 51.8972 219.456 52.1171 219.884C52.3477 220.306 52.7203 220.586 53.2351 220.724Z" fill="white"/>
<g filter="url(#filter2_d_4182_3672)">
<rect x="373.436" y="128.964" width="197.352" height="197.352" rx="34" transform="rotate(15 373.436 128.964)" fill="white" shape-rendering="crispEdges"/>
<rect x="372.022" y="126.514" width="201.352" height="201.352" rx="36" transform="rotate(15 372.022 126.514)" stroke="black" stroke-opacity="0.13" stroke-width="4" shape-rendering="crispEdges"/>
</g>
<circle cx="390.351" cy="175.235" r="12.3132" transform="rotate(15 390.351 175.235)" fill="#DDE0FF"/>
<circle cx="417.537" cy="182.52" r="12.3132" transform="rotate(15 417.537 182.52)" fill="#DDE0FF"/>
<circle cx="444.722" cy="189.804" r="12.3132" transform="rotate(15 444.722 189.804)" fill="#DDE0FF"/>
<circle cx="471.908" cy="197.088" r="12.3132" transform="rotate(15 471.908 197.088)" fill="#DDE0FF"/>
<circle cx="499.093" cy="204.373" r="12.3132" transform="rotate(15 499.093 204.373)" fill="#DDE0FF"/>
<circle cx="526.279" cy="211.657" r="12.3132" transform="rotate(15 526.279 211.657)" fill="#DDE0FF"/>
<circle cx="382.413" cy="204.859" r="12.3132" transform="rotate(15 382.413 204.859)" fill="#DDE0FF"/>
<circle cx="409.599" cy="212.144" r="12.3132" transform="rotate(15 409.599 212.144)" fill="#DDE0FF"/>
<circle cx="436.784" cy="219.427" r="12.3132" transform="rotate(15 436.784 219.427)" fill="#DDE0FF"/>
<circle cx="463.97" cy="226.712" r="12.3132" transform="rotate(15 463.97 226.712)" fill="#DDE0FF"/>
<circle cx="491.155" cy="233.997" r="12.3132" transform="rotate(15 491.155 233.997)" fill="#DDE0FF"/>
<circle cx="518.341" cy="241.281" r="12.3132" transform="rotate(15 518.341 241.281)" fill="#DDE0FF"/>
<circle cx="374.476" cy="234.483" r="12.3132" transform="rotate(15 374.476 234.483)" fill="#DDE0FF"/>
<circle cx="401.661" cy="241.768" r="12.3132" transform="rotate(15 401.661 241.768)" fill="#DDE0FF"/>
<circle cx="428.847" cy="249.051" r="12.3132" transform="rotate(15 428.847 249.051)" fill="#DDE0FF"/>
<circle cx="456.032" cy="256.336" r="12.3132" transform="rotate(15 456.032 256.336)" fill="#7F48FB"/>
<circle cx="483.218" cy="263.621" r="12.3132" transform="rotate(15 483.218 263.621)" fill="#DDE0FF"/>
<circle cx="510.403" cy="270.905" r="12.3132" transform="rotate(15 510.403 270.905)" fill="#DDE0FF"/>
<circle cx="366.538" cy="264.109" r="12.3132" transform="rotate(15 366.538 264.109)" fill="#DDE0FF"/>
<circle cx="393.723" cy="271.393" r="12.3132" transform="rotate(15 393.723 271.393)" fill="#DDE0FF"/>
<circle cx="420.909" cy="278.678" r="12.3132" transform="rotate(15 420.909 278.678)" fill="#DDE0FF"/>
<circle cx="448.094" cy="285.961" r="12.3132" transform="rotate(15 448.094 285.961)" fill="#DDE0FF"/>
<circle cx="475.28" cy="293.247" r="12.3132" transform="rotate(15 475.28 293.247)" fill="#DDE0FF"/>
<circle cx="502.465" cy="300.531" r="12.3132" transform="rotate(15 502.465 300.531)" fill="#DDE0FF"/>
<rect x="348.858" y="282.517" width="165.349" height="29.3361" rx="14.668" transform="rotate(15 348.858 282.517)" fill="#7F48FB"/>
<path d="M435.565 159.137C436.127 159.348 436.545 159.713 436.821 160.233C437.11 160.746 437.162 161.343 436.98 162.023C436.75 162.883 436.285 163.483 435.586 163.823C434.897 164.165 434.06 164.204 433.077 163.941L429.575 163.003L432.234 153.077L435.552 153.966C436.545 154.232 437.263 154.673 437.706 155.288C438.151 155.894 438.267 156.598 438.051 157.402C437.717 158.649 436.888 159.228 435.565 159.137ZM435.098 155.379L433.481 154.946L432.752 157.669L434.368 158.102C434.879 158.238 435.307 158.227 435.654 158.066C436.013 157.899 436.25 157.603 436.364 157.177C436.48 156.743 436.428 156.369 436.208 156.057C435.988 155.744 435.618 155.519 435.098 155.379ZM433.433 162.501C433.924 162.633 434.342 162.603 434.688 162.412C435.033 162.221 435.268 161.889 435.395 161.416C435.506 161 435.455 160.627 435.239 160.296C435.027 159.955 434.689 159.722 434.226 159.598L432.368 159.101L431.589 162.007L433.433 162.501Z" fill="#7F48FB"/>
<path d="M443.403 165.842C442.604 166.327 441.671 166.426 440.603 166.14C439.535 165.854 438.771 165.3 438.313 164.478C437.866 163.649 437.777 162.733 438.046 161.731C438.314 160.729 438.848 159.986 439.646 159.501C440.457 159.009 441.396 158.906 442.464 159.192C443.533 159.478 444.29 160.036 444.737 160.865C445.195 161.687 445.29 162.599 445.022 163.601C444.753 164.603 444.214 165.35 443.403 165.842ZM439.695 163.799C439.941 164.281 440.366 164.602 440.971 164.764C441.576 164.927 442.101 164.859 442.545 164.563C442.999 164.269 443.309 163.81 443.476 163.186C443.643 162.563 443.604 162.01 443.358 161.529C443.122 161.05 442.701 160.73 442.096 160.567C441.491 160.405 440.962 160.471 440.508 160.765C440.064 161.061 439.758 161.522 439.591 162.145C439.424 162.769 439.459 163.321 439.695 163.799Z" fill="#7F48FB"/>
<path d="M451.362 167.974C450.563 168.459 449.63 168.559 448.561 168.272C447.493 167.986 446.73 167.432 446.271 166.61C445.825 165.781 445.736 164.866 446.004 163.864C446.273 162.862 446.806 162.118 447.605 161.633C448.415 161.141 449.355 161.038 450.423 161.325C451.491 161.611 452.249 162.168 452.695 162.997C453.154 163.819 453.249 164.731 452.98 165.733C452.712 166.735 452.172 167.482 451.362 167.974ZM447.654 165.932C447.899 166.413 448.325 166.735 448.93 166.897C449.535 167.059 450.059 166.992 450.504 166.696C450.957 166.402 451.268 165.943 451.435 165.319C451.602 164.695 451.563 164.142 451.317 163.661C451.08 163.182 450.659 162.862 450.054 162.7C449.45 162.538 448.92 162.604 448.467 162.898C448.022 163.194 447.717 163.654 447.55 164.278C447.382 164.902 447.417 165.453 447.654 165.932Z" fill="#7F48FB"/>
<path d="M461.204 164.396L457.492 166.79L459.433 171.003L457.405 170.46L455.786 166.804L454.981 169.81L453.435 169.396L456.095 159.47L457.64 159.885L455.976 166.095L459.247 163.871L461.204 164.396Z" fill="#7F48FB"/>
<path d="M466.74 173.143C465.71 172.867 464.999 172.327 464.606 171.523C464.214 170.719 464.153 169.811 464.424 168.799C464.693 167.797 465.212 167.05 465.982 166.557C466.755 166.055 467.643 165.939 468.645 166.207C469.089 166.326 469.47 166.529 469.788 166.817C470.106 167.105 470.32 167.441 470.43 167.825L470.669 166.932L472.215 167.346L470.444 173.953L468.899 173.539L469.138 172.646C468.863 172.917 468.496 173.097 468.036 173.187C467.588 173.269 467.156 173.255 466.74 173.143ZM467.336 171.829C467.969 171.998 468.504 171.929 468.942 171.621C469.388 171.315 469.693 170.86 469.855 170.255C470.017 169.65 469.981 169.103 469.747 168.615C469.523 168.129 469.094 167.801 468.46 167.632C467.865 167.472 467.339 167.544 466.883 167.847C466.439 168.144 466.134 168.599 465.97 169.214C465.805 169.828 465.84 170.379 466.074 170.868C466.32 171.349 466.74 171.669 467.336 171.829Z" fill="#7F48FB"/>
<path d="M479.029 174.856C479.341 174.939 479.606 174.99 479.824 175.008L479.459 176.369C479.123 176.34 478.732 176.265 478.288 176.146C478.033 176.078 477.816 176 477.637 175.911C477.458 175.823 477.259 175.678 477.039 175.477C476.822 175.267 476.688 174.973 476.637 174.595C476.586 174.216 476.631 173.767 476.77 173.247L477.595 170.17L476.474 169.87L476.82 168.58L477.94 168.88L478.476 166.881L480.021 167.295L479.486 169.294L481.003 169.701L480.657 170.991L479.14 170.585L478.411 173.307C478.269 173.836 478.251 174.206 478.356 174.417C478.464 174.618 478.689 174.764 479.029 174.856Z" fill="#7F48FB"/>
<path d="M484.453 169.257C484.177 169.417 483.874 169.452 483.543 169.363C483.213 169.275 482.967 169.092 482.808 168.817C482.652 168.532 482.616 168.228 482.703 167.907C482.789 167.586 482.97 167.345 483.245 167.186C483.523 167.018 483.828 166.978 484.159 167.066C484.49 167.155 484.733 167.342 484.89 167.627C485.049 167.903 485.086 168.201 485 168.522C484.913 168.844 484.731 169.089 484.453 169.257ZM480.738 176.712L482.509 170.104L484.054 170.518L482.284 177.126L480.738 176.712Z" fill="#7F48FB"/>
<path d="M484.128 177.62L485.898 171.012L487.444 171.427L487.197 172.348C487.434 172.067 487.745 171.872 488.129 171.762C488.515 171.643 488.917 171.639 489.332 171.75C490.382 172.031 490.971 172.61 491.101 173.486C491.353 173.188 491.693 172.98 492.12 172.862C492.549 172.734 492.991 172.731 493.444 172.852C495.033 173.278 495.595 174.355 495.131 176.085L494.01 180.268L492.465 179.854L493.506 175.969C493.787 174.92 493.516 174.285 492.694 174.064C492.259 173.948 491.88 174.003 491.555 174.23C491.234 174.448 490.975 174.921 490.78 175.649L489.842 179.151L488.296 178.737L489.341 174.838C489.62 173.798 489.357 173.17 488.554 172.955C488.11 172.836 487.72 172.889 487.387 173.113C487.065 173.331 486.807 173.804 486.612 174.532L485.673 178.034L484.128 177.62Z" fill="#7F48FB"/>
<path d="M502.743 178.702C502.698 178.872 502.608 179.152 502.473 179.542L497.567 178.227C497.446 178.752 497.509 179.199 497.754 179.569C498.002 179.929 498.41 180.185 498.977 180.337C499.705 180.532 500.264 180.414 500.653 179.981L502.213 180.399C501.944 180.986 501.473 181.401 500.799 181.646C500.138 181.885 499.41 181.897 498.616 181.684C497.576 181.406 496.837 180.874 496.4 180.088C495.962 179.302 495.886 178.374 496.172 177.306C496.456 176.248 496.979 175.486 497.742 175.022C498.517 174.551 499.41 174.45 500.421 174.721C501.366 174.975 502.049 175.472 502.468 176.212C502.9 176.946 502.992 177.776 502.743 178.702ZM497.882 177.05L501.314 177.97C501.441 177.457 501.395 177.024 501.175 176.671C500.965 176.321 500.595 176.075 500.066 175.933C499.527 175.789 499.063 175.821 498.672 176.031C498.282 176.24 498.018 176.58 497.882 177.05Z" fill="#7F48FB"/>
<path d="M393.55 308.285C394.051 308.472 394.427 308.792 394.676 309.246C394.936 309.694 394.987 310.213 394.828 310.803C394.628 311.55 394.218 312.068 393.598 312.359C392.985 312.652 392.24 312.681 391.363 312.446L388.236 311.608L390.544 302.996L393.506 303.79C394.392 304.027 395.034 304.415 395.433 304.952C395.834 305.482 395.941 306.095 395.754 306.792C395.464 307.875 394.729 308.372 393.55 308.285ZM393.11 305.015L391.667 304.629L391.034 306.991L392.477 307.378C392.932 307.5 393.314 307.492 393.622 307.355C393.941 307.212 394.15 306.956 394.249 306.587C394.35 306.209 394.301 305.884 394.103 305.611C393.905 305.338 393.574 305.14 393.11 305.015ZM391.67 311.197C392.109 311.314 392.482 311.291 392.788 311.127C393.094 310.963 393.302 310.676 393.412 310.265C393.509 309.905 393.46 309.58 393.267 309.29C393.075 308.993 392.772 308.789 392.359 308.678L390.701 308.234L390.025 310.756L391.67 311.197Z" fill="white"/>
<path d="M400.575 314.163C399.867 314.579 399.036 314.66 398.082 314.405C397.129 314.149 396.445 313.663 396.031 312.945C395.628 312.222 395.543 311.425 395.776 310.556C396.009 309.687 396.48 309.044 397.188 308.627C397.907 308.204 398.744 308.121 399.697 308.376C400.651 308.632 401.329 309.121 401.732 309.844C402.146 310.562 402.237 311.355 402.004 312.225C401.771 313.094 401.295 313.74 400.575 314.163ZM397.259 312.364C397.481 312.784 397.862 313.066 398.402 313.211C398.942 313.356 399.409 313.301 399.803 313.046C400.205 312.793 400.479 312.396 400.624 311.855C400.769 311.314 400.73 310.833 400.508 310.413C400.295 309.995 399.918 309.714 399.378 309.57C398.838 309.425 398.366 309.479 397.964 309.731C397.57 309.986 397.301 310.384 397.156 310.926C397.011 311.467 397.045 311.947 397.259 312.364Z" fill="white"/>
<path d="M407.68 316.066C406.972 316.483 406.14 316.564 405.187 316.308C404.233 316.053 403.55 315.566 403.136 314.849C402.733 314.126 402.648 313.329 402.881 312.46C403.114 311.59 403.584 310.947 404.293 310.531C405.012 310.108 405.849 310.024 406.802 310.28C407.756 310.535 408.434 311.025 408.837 311.748C409.251 312.466 409.341 313.259 409.108 314.128C408.875 314.998 408.399 315.644 407.68 316.066ZM404.363 314.268C404.585 314.688 404.967 314.97 405.507 315.115C406.047 315.26 406.514 315.205 406.908 314.95C407.31 314.697 407.584 314.3 407.729 313.759C407.874 313.217 407.835 312.737 407.613 312.317C407.399 311.899 407.023 311.618 406.482 311.473C405.942 311.329 405.471 311.382 405.069 311.635C404.675 311.89 404.405 312.288 404.26 312.829C404.115 313.371 404.15 313.85 404.363 314.268Z" fill="white"/>
<path d="M416.427 313.017L413.135 315.076L414.891 318.75L413.081 318.265L411.615 315.077L410.916 317.685L409.537 317.316L411.844 308.704L413.224 309.073L411.78 314.462L414.68 312.549L416.427 313.017Z" fill="white"/>
<path d="M419.063 319.868L421.37 311.256L422.763 311.629L423.831 318.983L428.421 313.145L429.813 313.518L427.506 322.13L426.113 321.757L427.64 316.061L423.835 321.147L422.734 320.852L421.998 314.483L420.455 320.241L419.063 319.868Z" fill="white"/>
<path d="M435.408 320.859C435.369 321.007 435.29 321.249 435.172 321.587L430.793 320.413C430.689 320.869 430.747 321.258 430.968 321.581C431.191 321.896 431.556 322.121 432.063 322.257C432.712 322.431 433.209 322.331 433.554 321.958L434.946 322.331C434.71 322.839 434.293 323.197 433.695 323.406C433.107 323.609 432.458 323.616 431.749 323.426C430.821 323.177 430.159 322.71 429.764 322.024C429.369 321.337 429.296 320.531 429.544 319.604C429.791 318.686 430.252 318.027 430.929 317.628C431.616 317.223 432.411 317.142 433.314 317.384C434.158 317.61 434.769 318.046 435.148 318.692C435.537 319.333 435.624 320.055 435.408 320.859ZM431.066 319.392L434.13 320.213C434.24 319.768 434.196 319.391 433.998 319.083C433.809 318.778 433.478 318.562 433.005 318.435C432.524 318.306 432.11 318.331 431.764 318.511C431.417 318.691 431.185 318.984 431.066 319.392Z" fill="white"/>
<path d="M442.08 322.647C442.041 322.794 441.962 323.037 441.845 323.375L437.465 322.201C437.361 322.657 437.419 323.046 437.64 323.369C437.864 323.684 438.228 323.909 438.735 324.045C439.384 324.219 439.881 324.119 440.226 323.745L441.618 324.118C441.382 324.627 440.965 324.985 440.367 325.194C439.779 325.397 439.13 325.403 438.421 325.213C437.493 324.965 436.832 324.497 436.437 323.811C436.042 323.125 435.968 322.319 436.217 321.392C436.463 320.473 436.924 319.815 437.601 319.416C438.288 319.011 439.083 318.929 439.986 319.171C440.83 319.398 441.441 319.834 441.82 320.48C442.209 321.121 442.296 321.843 442.08 322.647ZM437.739 321.18L440.802 322.001C440.912 321.556 440.868 321.179 440.67 320.871C440.481 320.565 440.15 320.349 439.677 320.223C439.196 320.094 438.783 320.119 438.436 320.299C438.089 320.478 437.857 320.772 437.739 321.18Z" fill="white"/>
<path d="M445.352 325.699C445.631 325.774 445.867 325.82 446.062 325.837L445.745 327.018C445.445 326.99 445.097 326.923 444.7 326.817C444.472 326.756 444.278 326.686 444.118 326.608C443.958 326.53 443.78 326.403 443.583 326.227C443.388 326.043 443.267 325.786 443.219 325.457C443.172 325.128 443.208 324.738 443.329 324.287L444.045 321.617L443.045 321.349L443.345 320.23L444.345 320.498L444.81 318.763L446.189 319.133L445.724 320.867L447.079 321.23L446.779 322.35L445.424 321.987L444.791 324.349C444.668 324.808 444.655 325.13 444.75 325.314C444.848 325.489 445.048 325.618 445.352 325.699Z" fill="white"/>
<path d="M450.15 320.866C449.906 321.003 449.636 321.032 449.34 320.953C449.045 320.873 448.825 320.714 448.682 320.473C448.541 320.224 448.507 319.96 448.582 319.681C448.657 319.402 448.816 319.195 449.061 319.058C449.308 318.913 449.579 318.88 449.874 318.96C450.17 319.039 450.388 319.203 450.529 319.452C450.673 319.692 450.707 319.952 450.633 320.231C450.558 320.51 450.397 320.722 450.15 320.866ZM446.887 327.324L448.423 321.59L449.803 321.96L448.267 327.693L446.887 327.324Z" fill="white"/>
<path d="M449.913 328.134L451.449 322.401L452.828 322.771L452.614 323.57C453.163 323.041 453.889 322.897 454.792 323.139C456.227 323.523 456.741 324.474 456.334 325.991L455.368 329.596L453.988 329.226L454.789 326.237C454.957 325.613 454.979 325.14 454.858 324.818C454.736 324.495 454.439 324.27 453.966 324.144C453.519 324.024 453.136 324.071 452.816 324.284C452.499 324.489 452.272 324.846 452.136 325.354L451.292 328.504L449.913 328.134Z" fill="white"/>
<path d="M462.833 325.452L464.213 325.821L462.743 331.308C462.435 332.457 461.86 333.186 461.017 333.496C460.463 333.708 459.743 333.696 458.857 333.458C457.996 333.227 457.35 332.87 456.919 332.385C456.425 331.831 456.253 331.226 456.401 330.572L457.844 330.958C457.797 331.64 458.229 332.103 459.141 332.347C459.723 332.503 460.191 332.479 460.544 332.275C460.903 332.081 461.168 331.669 461.337 331.037L461.505 330.41C461.261 330.643 460.935 330.798 460.526 330.873C460.128 330.942 459.743 330.927 459.372 330.827C458.477 330.587 457.844 330.114 457.473 329.408C457.112 328.696 457.048 327.906 457.281 327.036C457.511 326.175 457.974 325.53 458.668 325.1C459.37 324.673 460.156 324.576 461.025 324.809C461.422 324.915 461.762 325.094 462.048 325.346C462.333 325.599 462.525 325.892 462.626 326.227L462.833 325.452ZM459.894 329.688C460.434 329.833 460.906 329.775 461.311 329.514C461.718 329.245 461.99 328.852 462.129 328.335C462.267 327.818 462.226 327.346 462.006 326.918C461.789 326.481 461.41 326.191 460.87 326.046C460.355 325.908 459.891 325.969 459.478 326.227C459.076 326.48 458.803 326.873 458.66 327.406C458.517 327.939 458.556 328.42 458.776 328.848C459.006 329.27 459.379 329.55 459.894 329.688Z" fill="white"/>
<g filter="url(#filter3_d_4182_3672)">
<rect x="16.2421" y="248.295" width="197.352" height="197.352" rx="34" transform="rotate(15 16.2421 248.295)" fill="white" shape-rendering="crispEdges"/>
<rect x="14.8279" y="245.845" width="201.352" height="201.352" rx="36" transform="rotate(15 14.8279 245.845)" stroke="black" stroke-opacity="0.13" stroke-width="4" shape-rendering="crispEdges"/>
</g>
<circle cx="33.1573" cy="294.565" r="12.3132" transform="rotate(15 33.1573 294.565)" fill="#E4FFDD"/>
<circle cx="60.3426" cy="301.85" r="12.3132" transform="rotate(15 60.3426 301.85)" fill="#E4FFDD"/>
<circle cx="87.5282" cy="309.134" r="12.3132" transform="rotate(15 87.5282 309.134)" fill="#E4FFDD"/>
<circle cx="114.714" cy="316.417" r="12.3132" transform="rotate(15 114.714 316.417)" fill="#E4FFDD"/>
<circle cx="141.899" cy="323.703" r="12.3132" transform="rotate(15 141.899 323.703)" fill="#E4FFDD"/>
<circle cx="169.084" cy="330.987" r="12.3132" transform="rotate(15 169.084 330.987)" fill="#E4FFDD"/>
<circle cx="25.2192" cy="324.19" r="12.3132" transform="rotate(15 25.2192 324.19)" fill="#E4FFDD"/>
<circle cx="52.4046" cy="331.475" r="12.3132" transform="rotate(15 52.4046 331.475)" fill="#E4FFDD"/>
<circle cx="79.5903" cy="338.758" r="12.3132" transform="rotate(15 79.5903 338.758)" fill="#E4FFDD"/>
<circle cx="106.776" cy="346.043" r="12.3132" transform="rotate(15 106.776 346.043)" fill="#E4FFDD"/>
<circle cx="133.961" cy="353.328" r="12.3132" transform="rotate(15 133.961 353.328)" fill="#E4FFDD"/>
<circle cx="161.147" cy="360.612" r="12.3132" transform="rotate(15 161.147 360.612)" fill="#E4FFDD"/>
<circle cx="17.2815" cy="353.814" r="12.3132" transform="rotate(15 17.2815 353.814)" fill="#E4FFDD"/>
<circle cx="44.4669" cy="361.099" r="12.3132" transform="rotate(15 44.4669 361.099)" fill="#E4FFDD"/>
<circle cx="71.6525" cy="368.382" r="12.3132" transform="rotate(15 71.6525 368.382)" fill="#E4FFDD"/>
<circle cx="98.8379" cy="375.667" r="12.3132" transform="rotate(15 98.8379 375.667)" fill="#60D794"/>
<circle cx="126.023" cy="382.952" r="12.3132" transform="rotate(15 126.023 382.952)" fill="#E4FFDD"/>
<circle cx="153.209" cy="390.236" r="12.3132" transform="rotate(15 153.209 390.236)" fill="#E4FFDD"/>
<circle cx="9.34359" cy="383.438" r="12.3132" transform="rotate(15 9.34359 383.438)" fill="#E4FFDD"/>
<circle cx="36.529" cy="390.723" r="12.3132" transform="rotate(15 36.529 390.723)" fill="#E4FFDD"/>
<circle cx="63.7146" cy="398.007" r="12.3132" transform="rotate(15 63.7146 398.007)" fill="#E4FFDD"/>
<circle cx="90.8999" cy="405.29" r="12.3132" transform="rotate(15 90.8999 405.29)" fill="#E4FFDD"/>
<circle cx="118.085" cy="412.576" r="12.3132" transform="rotate(15 118.085 412.576)" fill="#E4FFDD"/>
<circle cx="145.271" cy="419.86" r="12.3132" transform="rotate(15 145.271 419.86)" fill="#E4FFDD"/>
<rect x="-8.33618" y="401.848" width="165.349" height="29.3361" rx="14.668" transform="rotate(15 -8.33618 401.848)" fill="#60D794"/>
<path d="M78.371 278.468C78.9325 278.679 79.3512 279.044 79.6274 279.564C79.9155 280.077 79.9683 280.674 79.786 281.354C79.5555 282.215 79.0908 282.814 78.3919 283.154C77.7025 283.496 76.8662 283.535 75.8832 283.272L72.3809 282.334L75.0404 272.408L78.3583 273.297C79.3509 273.563 80.0687 274.004 80.5117 274.619C80.9573 275.225 81.0725 275.929 80.8572 276.733C80.5228 277.98 79.6941 278.559 78.371 278.468ZM77.9037 274.71L76.2873 274.277L75.5578 277L77.1742 277.433C77.6847 277.57 78.1134 277.558 78.4603 277.397C78.8192 277.23 79.0556 276.934 79.1696 276.508C79.2861 276.074 79.2342 275.7 79.0139 275.388C78.7937 275.075 78.4236 274.85 77.9037 274.71ZM76.2385 281.832C76.7301 281.964 77.1484 281.934 77.4934 281.743C77.8385 281.552 78.0743 281.22 78.201 280.747C78.3124 280.331 78.2605 279.958 78.0453 279.627C77.8327 279.286 77.4947 279.054 77.0316 278.929L75.1741 278.432L74.3952 281.338L76.2385 281.832Z" fill="#60D794"/>
<path d="M86.2089 285.173C85.4102 285.658 84.4768 285.757 83.4087 285.471C82.3405 285.185 81.5771 284.631 81.1186 283.809C80.672 282.98 80.5829 282.064 80.8514 281.062C81.1199 280.06 81.6535 279.317 82.4521 278.832C83.2628 278.34 84.2022 278.237 85.2703 278.523C86.3385 278.809 87.0959 279.367 87.5424 280.196C88.001 281.018 88.0961 281.93 87.8276 282.932C87.5591 283.934 87.0195 284.681 86.2089 285.173ZM82.5009 283.13C82.7468 283.612 83.1722 283.933 83.7772 284.095C84.3822 284.258 84.9067 284.19 85.3509 283.894C85.8045 283.6 86.1149 283.141 86.282 282.517C86.4492 281.894 86.4098 281.341 86.1639 280.86C85.9275 280.381 85.5068 280.061 84.9018 279.898C84.2968 279.736 83.7675 279.802 83.3139 280.096C82.8698 280.392 82.5641 280.853 82.397 281.476C82.2298 282.1 82.2644 282.652 82.5009 283.13Z" fill="#60D794"/>
<path d="M94.1675 287.305C93.3688 287.79 92.4354 287.89 91.3673 287.603C90.2991 287.317 89.5357 286.763 89.0772 285.941C88.6306 285.112 88.5415 284.197 88.81 283.195C89.0785 282.193 89.6121 281.449 90.4107 280.964C91.2214 280.472 92.1608 280.369 93.2289 280.656C94.2971 280.942 95.0545 281.499 95.501 282.328C95.9596 283.15 96.0547 284.062 95.7862 285.064C95.5177 286.066 94.9781 286.813 94.1675 287.305ZM90.4595 285.263C90.7054 285.744 91.1308 286.066 91.7358 286.228C92.3408 286.39 92.8653 286.323 93.3095 286.027C93.7631 285.733 94.0735 285.274 94.2406 284.65C94.4078 284.026 94.3684 283.474 94.1225 282.992C93.8861 282.513 93.4654 282.193 92.8604 282.031C92.2554 281.869 91.7261 281.935 91.2725 282.229C90.8284 282.525 90.5227 282.985 90.3556 283.609C90.1884 284.233 90.223 284.784 90.4595 285.263Z" fill="#60D794"/>
<path d="M104.009 283.727L100.298 286.121L102.239 290.334L100.211 289.791L98.5922 286.135L97.7867 289.141L96.2412 288.727L98.9007 278.802L100.446 279.216L98.7821 285.426L102.053 283.202L104.009 283.727Z" fill="#60D794"/>
<path d="M109.546 292.474C108.516 292.198 107.805 291.658 107.412 290.854C107.02 290.05 106.959 289.142 107.23 288.131C107.499 287.129 108.018 286.381 108.788 285.889C109.561 285.386 110.449 285.27 111.451 285.538C111.895 285.657 112.276 285.861 112.594 286.148C112.912 286.436 113.126 286.772 113.236 287.156L113.475 286.263L115.021 286.677L113.25 293.285L111.705 292.87L111.944 291.977C111.669 292.248 111.301 292.428 110.842 292.518C110.394 292.6 109.962 292.586 109.546 292.474ZM110.142 291.16C110.775 291.33 111.31 291.26 111.748 290.952C112.194 290.646 112.499 290.191 112.661 289.586C112.823 288.981 112.787 288.434 112.553 287.946C112.329 287.46 111.9 287.133 111.266 286.963C110.671 286.803 110.145 286.875 109.689 287.178C109.245 287.475 108.94 287.93 108.776 288.545C108.611 289.159 108.646 289.71 108.88 290.199C109.126 290.68 109.546 291 110.142 291.16Z" fill="#60D794"/>
<path d="M121.835 294.187C122.147 294.27 122.412 294.321 122.63 294.339L122.265 295.7C121.929 295.671 121.538 295.596 121.094 295.477C120.839 295.409 120.622 295.331 120.443 295.242C120.264 295.154 120.064 295.009 119.845 294.808C119.627 294.598 119.494 294.304 119.443 293.926C119.392 293.547 119.437 293.098 119.576 292.578L120.4 289.501L119.28 289.201L119.626 287.911L120.746 288.211L121.282 286.212L122.827 286.626L122.292 288.625L123.809 289.032L123.463 290.322L121.946 289.916L121.216 292.638C121.075 293.167 121.057 293.537 121.162 293.748C121.27 293.949 121.495 294.095 121.835 294.187Z" fill="#60D794"/>
<path d="M127.259 288.589C126.983 288.748 126.68 288.783 126.349 288.694C126.018 288.606 125.773 288.423 125.614 288.148C125.458 287.863 125.422 287.559 125.508 287.238C125.595 286.917 125.775 286.676 126.051 286.517C126.329 286.349 126.634 286.309 126.965 286.397C127.296 286.486 127.539 286.673 127.696 286.958C127.855 287.234 127.892 287.532 127.806 287.854C127.719 288.175 127.537 288.42 127.259 288.589ZM123.544 296.043L125.315 289.435L126.86 289.849L125.09 296.457L123.544 296.043Z" fill="#60D794"/>
<path d="M126.934 296.951L128.704 290.343L130.25 290.758L130.003 291.679C130.24 291.398 130.551 291.203 130.935 291.093C131.321 290.974 131.722 290.97 132.138 291.081C133.188 291.362 133.777 291.941 133.907 292.817C134.159 292.519 134.499 292.312 134.926 292.193C135.355 292.065 135.797 292.062 136.25 292.183C137.838 292.609 138.401 293.686 137.937 295.416L136.816 299.599L135.271 299.185L136.312 295.3C136.593 294.251 136.322 293.616 135.5 293.395C135.065 293.279 134.686 293.334 134.361 293.561C134.04 293.779 133.781 294.252 133.586 294.98L132.648 298.482L131.102 298.068L132.147 294.169C132.426 293.129 132.163 292.501 131.36 292.286C130.915 292.167 130.526 292.22 130.193 292.444C129.871 292.662 129.613 293.135 129.417 293.863L128.479 297.365L126.934 296.951Z" fill="#60D794"/>
<path d="M145.549 298.033C145.504 298.203 145.413 298.483 145.279 298.873L140.373 297.558C140.252 298.083 140.315 298.53 140.56 298.9C140.808 299.26 141.216 299.516 141.783 299.668C142.511 299.863 143.069 299.745 143.459 299.312L145.019 299.73C144.75 300.317 144.279 300.732 143.605 300.977C142.944 301.216 142.216 301.228 141.422 301.015C140.382 300.737 139.643 300.205 139.206 299.419C138.768 298.633 138.692 297.706 138.978 296.637C139.262 295.579 139.785 294.817 140.548 294.353C141.322 293.882 142.215 293.781 143.227 294.053C144.172 294.306 144.855 294.803 145.274 295.543C145.706 296.277 145.797 297.107 145.549 298.033ZM140.688 296.381L144.119 297.301C144.247 296.788 144.201 296.355 143.981 296.002C143.771 295.652 143.401 295.406 142.872 295.264C142.333 295.12 141.868 295.152 141.478 295.362C141.087 295.571 140.824 295.911 140.688 296.381Z" fill="#60D794"/>
<path d="M36.3556 427.616C36.8572 427.803 37.2326 428.123 37.4819 428.577C37.7418 429.025 37.7927 429.544 37.6344 430.134C37.4344 430.881 37.0241 431.399 36.4035 431.69C35.7914 431.983 35.0465 432.012 34.1689 431.777L31.0424 430.939L33.35 422.327L36.3119 423.121C37.198 423.358 37.8403 423.746 38.239 424.283C38.6398 424.813 38.7468 425.426 38.56 426.123C38.2699 427.206 37.5351 427.703 36.3556 427.616ZM35.9157 424.346L34.4727 423.96L33.8397 426.322L35.2827 426.709C35.7384 426.831 36.1203 426.823 36.4284 426.686C36.7472 426.543 36.956 426.287 37.0549 425.918C37.156 425.54 37.1074 425.215 36.9092 424.942C36.711 424.669 36.3798 424.471 35.9157 424.346ZM34.4765 430.528C34.9153 430.645 35.2879 430.622 35.5941 430.458C35.9004 430.294 36.1084 430.007 36.2183 429.597C36.315 429.236 36.2665 428.911 36.0726 428.621C35.881 428.324 35.5785 428.12 35.165 428.009L33.5068 427.565L32.831 430.087L34.4765 430.528Z" fill="white"/>
<path d="M43.3814 433.494C42.6728 433.911 41.8417 433.991 40.8882 433.736C39.9346 433.48 39.2509 432.994 38.8372 432.276C38.4341 431.553 38.349 430.756 38.582 429.887C38.8149 429.018 39.2857 428.375 39.9943 427.958C40.7135 427.535 41.5499 427.452 42.5035 427.707C43.457 427.963 44.1354 428.452 44.5385 429.175C44.9522 429.893 45.0426 430.686 44.8097 431.556C44.5767 432.425 44.1006 433.071 43.3814 433.494ZM40.0646 431.695C40.2868 432.115 40.6679 432.398 41.2079 432.542C41.748 432.687 42.215 432.632 42.6089 432.377C43.0112 432.124 43.2849 431.727 43.43 431.186C43.575 430.645 43.5365 430.164 43.3143 429.744C43.1007 429.326 42.7238 429.045 42.1837 428.901C41.6436 428.756 41.1724 428.81 40.7701 429.062C40.3762 429.317 40.1067 429.715 39.9617 430.257C39.8166 430.798 39.851 431.278 40.0646 431.695Z" fill="white"/>
<path d="M50.4861 435.398C49.7776 435.814 48.9465 435.895 47.9929 435.639C47.0394 435.384 46.3557 434.897 45.942 434.18C45.5388 433.457 45.4538 432.66 45.6867 431.791C45.9197 430.921 46.3905 430.278 47.099 429.862C47.8183 429.439 48.6547 429.355 49.6082 429.611C50.5618 429.866 51.2401 430.356 51.6432 431.079C52.057 431.797 52.1474 432.59 51.9144 433.459C51.6815 434.329 51.2054 434.975 50.4861 435.398ZM47.1694 433.599C47.3915 434.019 47.7726 434.301 48.3127 434.446C48.8528 434.591 49.3197 434.536 49.7136 434.281C50.116 434.028 50.3897 433.631 50.5347 433.09C50.6798 432.548 50.6412 432.068 50.4191 431.648C50.2054 431.23 49.8285 430.949 49.2885 430.804C48.7484 430.66 48.2772 430.714 47.8749 430.966C47.481 431.221 47.2115 431.619 47.0664 432.16C46.9214 432.702 46.9557 433.181 47.1694 433.599Z" fill="white"/>
<path d="M59.2333 432.348L55.9413 434.407L57.6971 438.081L55.887 437.596L54.4214 434.408L53.7225 437.016L52.3428 436.647L54.6504 428.035L56.0301 428.404L54.5862 433.793L57.4865 431.88L59.2333 432.348Z" fill="white"/>
<path d="M61.8689 439.199L64.1765 430.587L65.5688 430.96L66.6373 438.314L71.2269 432.476L72.6193 432.849L70.3117 441.461L68.9193 441.088L70.4456 435.392L66.6409 440.478L65.5397 440.183L64.804 433.814L63.2612 439.572L61.8689 439.199Z" fill="white"/>
<path d="M78.2142 440.19C78.1747 440.338 78.0961 440.58 77.9785 440.918L73.5988 439.744C73.4948 440.2 73.5533 440.589 73.7743 440.912C73.9975 441.227 74.3622 441.452 74.8685 441.588C75.5183 441.762 76.0154 441.662 76.3597 441.289L77.7521 441.662C77.5164 442.17 77.0992 442.528 76.5006 442.737C75.9126 442.94 75.2642 442.947 74.5554 442.757C73.6271 442.508 72.9655 442.041 72.5705 441.355C72.1754 440.669 72.1021 439.862 72.3504 438.935C72.5966 438.017 73.058 437.358 73.7347 436.959C74.422 436.554 75.2171 436.473 76.1201 436.715C76.9639 436.941 77.5751 437.377 77.9536 438.024C78.3427 438.664 78.4296 439.386 78.2142 440.19ZM73.8724 438.723L76.9357 439.544C77.0459 439.099 77.0021 438.722 76.8042 438.414C76.6148 438.109 76.2838 437.893 75.8112 437.766C75.3302 437.637 74.9164 437.662 74.5698 437.842C74.2232 438.022 73.9908 438.316 73.8724 438.723Z" fill="white"/>
<path d="M84.8863 441.978C84.8468 442.125 84.7682 442.368 84.6506 442.706L80.2709 441.532C80.1669 441.988 80.2254 442.377 80.4464 442.7C80.6696 443.015 81.0343 443.24 81.5407 443.376C82.1904 443.55 82.6875 443.45 83.0318 443.076L84.4242 443.449C84.1885 443.958 83.7713 444.316 83.1727 444.525C82.5847 444.728 81.9363 444.734 81.2275 444.545C80.2992 444.296 79.6376 443.828 79.2426 443.142C78.8476 442.456 78.7742 441.65 79.0225 440.723C79.2687 439.804 79.7301 439.146 80.4068 438.747C81.0941 438.342 81.8892 438.261 82.7922 438.502C83.636 438.729 84.2472 439.165 84.6257 439.811C85.0148 440.452 85.1017 441.174 84.8863 441.978ZM80.5445 440.511L83.6078 441.332C83.718 440.887 83.6742 440.51 83.4763 440.202C83.2869 439.897 82.9559 439.68 82.4833 439.554C82.0023 439.425 81.5885 439.45 81.2419 439.63C80.8953 439.81 80.6629 440.103 80.5445 440.511Z" fill="white"/>
<path d="M88.1583 445.03C88.4368 445.105 88.6732 445.151 88.8677 445.168L88.5512 446.349C88.2511 446.321 87.9027 446.254 87.5061 446.148C87.2783 446.087 87.0844 446.017 86.9244 445.939C86.7644 445.861 86.5859 445.734 86.3888 445.558C86.1939 445.374 86.0727 445.118 86.0253 444.788C85.9778 444.459 86.0145 444.069 86.1354 443.618L86.8508 440.948L85.8508 440.68L86.1508 439.561L87.1507 439.829L87.6156 438.094L88.9953 438.464L88.5305 440.198L89.8849 440.561L89.5849 441.681L88.2305 441.318L87.5975 443.68C87.4745 444.139 87.4606 444.461 87.5561 444.645C87.6538 444.82 87.8545 444.949 88.1583 445.03Z" fill="white"/>
<path d="M92.9563 440.197C92.7117 440.334 92.4417 440.363 92.1463 440.284C91.851 440.205 91.6315 440.045 91.488 439.804C91.3466 439.555 91.3133 439.291 91.388 439.012C91.4628 438.734 91.6224 438.526 91.8671 438.389C92.1139 438.244 92.385 438.211 92.6804 438.291C92.9757 438.37 93.1941 438.534 93.3354 438.783C93.4789 439.023 93.5134 439.283 93.4386 439.562C93.3639 439.841 93.2031 440.053 92.9563 440.197ZM89.6931 446.655L91.2293 440.921L92.609 441.291L91.0728 447.024L89.6931 446.655Z" fill="white"/>
<path d="M92.7186 447.465L94.2548 441.732L95.6345 442.102L95.4202 442.902C95.9692 442.372 96.6951 442.228 97.5981 442.47C99.0326 442.854 99.5466 443.805 99.1401 445.322L98.1742 448.927L96.7945 448.557L97.5955 445.568C97.7625 444.944 97.7853 444.471 97.6637 444.149C97.5421 443.826 97.2451 443.601 96.7725 443.475C96.3253 443.355 95.9419 443.402 95.6225 443.615C95.3052 443.82 95.0785 444.177 94.9422 444.685L94.0983 447.835L92.7186 447.465Z" fill="white"/>
<path d="M105.639 444.783L107.019 445.152L105.549 450.639C105.241 451.788 104.666 452.517 103.823 452.827C103.269 453.039 102.549 453.027 101.663 452.789C100.802 452.559 100.156 452.201 99.7251 451.716C99.2315 451.162 99.0588 450.558 99.2071 449.903L100.65 450.289C100.603 450.971 101.035 451.434 101.947 451.679C102.529 451.835 102.997 451.81 103.35 451.606C103.709 451.412 103.974 451 104.143 450.368L104.311 449.741C104.067 449.974 103.741 450.129 103.332 450.204C102.934 450.273 102.549 450.258 102.178 450.158C101.283 449.918 100.65 449.446 100.279 448.739C99.9176 448.027 99.8537 447.237 100.087 446.367C100.317 445.506 100.78 444.861 101.474 444.431C102.176 444.004 102.962 443.907 103.831 444.14C104.228 444.246 104.568 444.425 104.854 444.678C105.139 444.93 105.331 445.223 105.432 445.558L105.639 444.783ZM102.7 449.019C103.24 449.164 103.712 449.106 104.117 448.845C104.524 448.576 104.796 448.183 104.935 447.666C105.073 447.149 105.032 446.677 104.812 446.249C104.595 445.813 104.216 445.522 103.676 445.377C103.161 445.239 102.697 445.3 102.284 445.558C101.882 445.811 101.609 446.204 101.466 446.737C101.323 447.27 101.362 447.751 101.582 448.179C101.813 448.601 102.185 448.881 102.7 449.019Z" fill="white"/>
<g filter="url(#filter4_d_4182_3672)">
<rect x="219.713" y="302.813" width="197.352" height="197.352" rx="34" transform="rotate(15 219.713 302.813)" fill="white" shape-rendering="crispEdges"/>
<rect x="218.299" y="300.364" width="201.352" height="201.352" rx="36" transform="rotate(15 218.299 300.364)" stroke="black" stroke-opacity="0.13" stroke-width="4" shape-rendering="crispEdges"/>
</g>
<circle cx="236.628" cy="349.083" r="12.3132" transform="rotate(15 236.628 349.083)" fill="#FFDDFC"/>
<circle cx="263.814" cy="356.369" r="12.3132" transform="rotate(15 263.814 356.369)" fill="#FFDDFC"/>
<circle cx="290.999" cy="363.653" r="12.3132" transform="rotate(15 290.999 363.653)" fill="#FFDDFC"/>
<circle cx="318.185" cy="370.936" r="12.3132" transform="rotate(15 318.185 370.936)" fill="#FFDDFC"/>
<circle cx="345.37" cy="378.221" r="12.3132" transform="rotate(15 345.37 378.221)" fill="#FFDDFC"/>
<circle cx="372.555" cy="385.505" r="12.3132" transform="rotate(15 372.555 385.505)" fill="#FFDDFC"/>
<circle cx="228.69" cy="378.708" r="12.3132" transform="rotate(15 228.69 378.708)" fill="#FFDDFC"/>
<circle cx="255.876" cy="385.994" r="12.3132" transform="rotate(15 255.876 385.994)" fill="#FFDDFC"/>
<circle cx="283.061" cy="393.277" r="12.3132" transform="rotate(15 283.061 393.277)" fill="#FFDDFC"/>
<circle cx="310.247" cy="400.561" r="12.3132" transform="rotate(15 310.247 400.561)" fill="#FFDDFC"/>
<circle cx="337.432" cy="407.846" r="12.3132" transform="rotate(15 337.432 407.846)" fill="#FFDDFC"/>
<circle cx="364.618" cy="415.13" r="12.3132" transform="rotate(15 364.618 415.13)" fill="#FFDDFC"/>
<circle cx="220.753" cy="408.332" r="12.3132" transform="rotate(15 220.753 408.332)" fill="#FFDDFC"/>
<circle cx="247.938" cy="415.618" r="12.3132" transform="rotate(15 247.938 415.618)" fill="#FFDDFC"/>
<circle cx="275.124" cy="422.901" r="12.3132" transform="rotate(15 275.124 422.901)" fill="#FFDDFC"/>
<circle cx="302.309" cy="430.186" r="12.3132" transform="rotate(15 302.309 430.186)" fill="#FF86E3"/>
<circle cx="329.494" cy="437.47" r="12.3132" transform="rotate(15 329.494 437.47)" fill="#FFDDFC"/>
<circle cx="356.68" cy="444.754" r="12.3132" transform="rotate(15 356.68 444.754)" fill="#FFDDFC"/>
<circle cx="212.815" cy="437.957" r="12.3132" transform="rotate(15 212.815 437.957)" fill="#FFDDFC"/>
<circle cx="240" cy="445.243" r="12.3132" transform="rotate(15 240 445.243)" fill="#FFDDFC"/>
<circle cx="267.186" cy="452.527" r="12.3132" transform="rotate(15 267.186 452.527)" fill="#FFDDFC"/>
<circle cx="294.371" cy="459.811" r="12.3132" transform="rotate(15 294.371 459.811)" fill="#FFDDFC"/>
<circle cx="321.556" cy="467.095" r="12.3132" transform="rotate(15 321.556 467.095)" fill="#FFDDFC"/>
<circle cx="348.742" cy="474.379" r="12.3132" transform="rotate(15 348.742 474.379)" fill="#FFDDFC"/>
<rect x="195.135" y="456.366" width="165.349" height="29.3361" rx="14.668" transform="rotate(15 195.135 456.366)" fill="#FF86E3"/>
<path d="M281.842 332.986C282.403 333.197 282.822 333.563 283.098 334.083C283.386 334.596 283.439 335.192 283.257 335.873C283.026 336.733 282.562 337.333 281.863 337.673C281.173 338.015 280.337 338.054 279.354 337.791L275.852 336.852L278.511 326.927L281.829 327.816C282.822 328.082 283.54 328.522 283.983 329.137C284.428 329.743 284.543 330.448 284.328 331.251C283.994 332.499 283.165 333.077 281.842 332.986ZM281.375 329.229L279.758 328.796L279.029 331.518L280.645 331.951C281.156 332.088 281.584 332.076 281.931 331.916C282.29 331.749 282.527 331.452 282.641 331.027C282.757 330.592 282.705 330.219 282.485 329.906C282.265 329.594 281.895 329.368 281.375 329.229ZM279.709 336.351C280.201 336.483 280.619 336.453 280.964 336.262C281.309 336.07 281.545 335.738 281.672 335.266C281.783 334.85 281.731 334.476 281.516 334.145C281.304 333.804 280.966 333.572 280.503 333.448L278.645 332.95L277.866 335.857L279.709 336.351Z" fill="#FF86E3"/>
<path d="M289.68 339.691C288.881 340.176 287.948 340.276 286.88 339.989C285.811 339.703 285.048 339.149 284.59 338.327C284.143 337.498 284.054 336.583 284.322 335.581C284.591 334.579 285.124 333.835 285.923 333.35C286.734 332.858 287.673 332.755 288.741 333.042C289.809 333.328 290.567 333.885 291.013 334.714C291.472 335.536 291.567 336.448 291.299 337.45C291.03 338.452 290.49 339.199 289.68 339.691ZM285.972 337.649C286.218 338.13 286.643 338.452 287.248 338.614C287.853 338.776 288.378 338.709 288.822 338.413C289.275 338.119 289.586 337.66 289.753 337.036C289.92 336.412 289.881 335.86 289.635 335.378C289.398 334.9 288.978 334.579 288.373 334.417C287.768 334.255 287.238 334.321 286.785 334.615C286.341 334.911 286.035 335.371 285.868 335.995C285.701 336.619 285.735 337.17 285.972 337.649Z" fill="#FF86E3"/>
<path d="M297.638 341.824C296.84 342.309 295.906 342.408 294.838 342.122C293.77 341.836 293.007 341.282 292.548 340.46C292.102 339.631 292.012 338.715 292.281 337.713C292.549 336.711 293.083 335.968 293.882 335.483C294.692 334.991 295.632 334.888 296.7 335.174C297.768 335.46 298.525 336.018 298.972 336.847C299.431 337.669 299.526 338.581 299.257 339.583C298.989 340.585 298.449 341.332 297.638 341.824ZM293.93 339.781C294.176 340.263 294.602 340.584 295.207 340.747C295.812 340.909 296.336 340.842 296.78 340.545C297.234 340.251 297.544 339.792 297.712 339.169C297.879 338.545 297.839 337.992 297.593 337.511C297.357 337.032 296.936 336.712 296.331 336.55C295.726 336.387 295.197 336.453 294.743 336.747C294.299 337.044 293.994 337.504 293.827 338.128C293.659 338.751 293.694 339.303 293.93 339.781Z" fill="#FF86E3"/>
<path d="M307.48 338.245L303.769 340.64L305.71 344.853L303.682 344.309L302.063 340.654L301.258 343.66L299.712 343.246L302.372 333.32L303.917 333.734L302.253 339.945L305.524 337.721L307.48 338.245Z" fill="#FF86E3"/>
<path d="M313.017 346.993C311.987 346.717 311.276 346.177 310.883 345.373C310.491 344.568 310.43 343.661 310.701 342.649C310.97 341.647 311.489 340.9 312.259 340.407C313.032 339.905 313.92 339.788 314.922 340.057C315.366 340.176 315.747 340.379 316.065 340.667C316.383 340.955 316.597 341.291 316.707 341.675L316.946 340.781L318.492 341.196L316.721 347.803L315.176 347.389L315.415 346.496C315.14 346.766 314.772 346.947 314.313 347.036C313.865 347.119 313.433 347.104 313.017 346.993ZM313.613 345.678C314.246 345.848 314.781 345.779 315.219 345.47C315.665 345.165 315.97 344.709 316.132 344.104C316.294 343.499 316.258 342.953 316.024 342.464C315.8 341.979 315.371 341.651 314.737 341.481C314.142 341.322 313.616 341.394 313.16 341.697C312.716 341.993 312.411 342.449 312.247 343.063C312.082 343.678 312.117 344.229 312.351 344.717C312.596 345.198 313.017 345.519 313.613 345.678Z" fill="#FF86E3"/>
<path d="M325.306 348.705C325.618 348.789 325.883 348.84 326.101 348.857L325.736 350.219C325.4 350.189 325.009 350.115 324.565 349.996C324.31 349.928 324.093 349.849 323.914 349.761C323.735 349.672 323.535 349.528 323.316 349.327C323.098 349.117 322.964 348.822 322.914 348.444C322.863 348.066 322.908 347.617 323.047 347.097L323.871 344.02L322.751 343.72L323.097 342.43L324.217 342.73L324.753 340.73L326.298 341.145L325.763 343.144L327.28 343.55L326.934 344.841L325.417 344.434L324.687 347.157C324.546 347.686 324.528 348.056 324.633 348.267C324.741 348.468 324.966 348.614 325.306 348.705Z" fill="#FF86E3"/>
<path d="M330.73 343.107C330.454 343.266 330.151 343.302 329.82 343.213C329.489 343.124 329.244 342.942 329.085 342.666C328.929 342.381 328.893 342.078 328.979 341.757C329.066 341.435 329.246 341.195 329.522 341.036C329.8 340.867 330.105 340.827 330.436 340.916C330.767 341.004 331.01 341.191 331.167 341.476C331.326 341.752 331.363 342.051 331.276 342.372C331.19 342.693 331.008 342.938 330.73 343.107ZM327.015 350.561L328.786 343.954L330.331 344.368L328.561 350.976L327.015 350.561Z" fill="#FF86E3"/>
<path d="M330.404 351.469L332.175 344.862L333.72 345.276L333.474 346.198C333.711 345.917 334.022 345.722 334.406 345.612C334.792 345.492 335.193 345.488 335.609 345.6C336.659 345.881 337.248 346.459 337.378 347.335C337.63 347.038 337.97 346.83 338.397 346.711C338.826 346.583 339.268 346.58 339.721 346.702C341.309 347.127 341.872 348.205 341.408 349.935L340.287 354.118L338.742 353.703L339.783 349.818C340.064 348.769 339.793 348.134 338.971 347.914C338.536 347.797 338.157 347.853 337.832 348.08C337.511 348.298 337.252 348.77 337.057 349.498L336.119 353.001L334.573 352.586L335.618 348.687C335.897 347.647 335.634 347.02 334.831 346.805C334.386 346.686 333.997 346.738 333.664 346.963C333.342 347.181 333.083 347.654 332.888 348.381L331.95 351.884L330.404 351.469Z" fill="#FF86E3"/>
<path d="M349.02 352.552C348.975 352.722 348.884 353.002 348.75 353.391L343.844 352.077C343.723 352.602 343.786 353.049 344.031 353.419C344.279 353.779 344.687 354.035 345.254 354.187C345.982 354.382 346.54 354.263 346.93 353.831L348.49 354.249C348.221 354.835 347.75 355.251 347.076 355.496C346.415 355.734 345.687 355.747 344.893 355.534C343.853 355.255 343.114 354.723 342.677 353.937C342.239 353.151 342.163 352.224 342.449 351.156C342.733 350.097 343.256 349.336 344.019 348.871C344.793 348.4 345.686 348.3 346.698 348.571C347.643 348.824 348.326 349.321 348.745 350.062C349.177 350.796 349.268 351.626 349.02 352.552ZM344.159 350.9L347.59 351.819C347.718 351.306 347.672 350.873 347.452 350.521C347.242 350.171 346.872 349.925 346.343 349.783C345.804 349.638 345.339 349.671 344.949 349.88C344.558 350.09 344.295 350.43 344.159 350.9Z" fill="#FF86E3"/>
<g filter="url(#filter5_d_4182_3672)">
<rect x="423.026" y="357.292" width="197.352" height="197.352" rx="34" transform="rotate(15 423.026 357.292)" fill="white" shape-rendering="crispEdges"/>
<rect x="421.612" y="354.843" width="201.352" height="201.352" rx="36" transform="rotate(15 421.612 354.843)" stroke="black" stroke-opacity="0.13" stroke-width="4" shape-rendering="crispEdges"/>
</g>
<circle cx="439.941" cy="403.562" r="12.3132" transform="rotate(15 439.941 403.562)" fill="#DDE7FF"/>
<circle cx="467.127" cy="410.847" r="12.3132" transform="rotate(15 467.127 410.847)" fill="#DDE7FF"/>
<circle cx="494.312" cy="418.131" r="12.3132" transform="rotate(15 494.312 418.131)" fill="#DDE7FF"/>
<circle cx="521.497" cy="425.415" r="12.3132" transform="rotate(15 521.497 425.415)" fill="#DDE7FF"/>
<circle cx="432.003" cy="433.187" r="12.3132" transform="rotate(15 432.003 433.187)" fill="#DDE7FF"/>
<circle cx="459.189" cy="440.472" r="12.3132" transform="rotate(15 459.189 440.472)" fill="#DDE7FF"/>
<circle cx="486.374" cy="447.755" r="12.3132" transform="rotate(15 486.374 447.755)" fill="#DDE7FF"/>
<circle cx="513.56" cy="455.04" r="12.3132" transform="rotate(15 513.56 455.04)" fill="#DDE7FF"/>
<circle cx="540.745" cy="462.325" r="12.3132" transform="rotate(15 540.745 462.325)" fill="#DDE7FF"/>
<circle cx="424.066" cy="462.811" r="12.3132" transform="rotate(15 424.066 462.811)" fill="#DDE7FF"/>
<circle cx="451.251" cy="470.096" r="12.3132" transform="rotate(15 451.251 470.096)" fill="#DDE7FF"/>
<circle cx="478.436" cy="477.379" r="12.3132" transform="rotate(15 478.436 477.379)" fill="#DDE7FF"/>
<path d="M485.155 387.465C485.716 387.676 486.135 388.041 486.411 388.561C486.699 389.074 486.752 389.671 486.57 390.351C486.339 391.212 485.875 391.812 485.176 392.151C484.486 392.493 483.65 392.533 482.667 392.269L479.165 391.331L481.824 381.405L485.142 382.294C486.135 382.56 486.853 383.001 487.296 383.616C487.741 384.222 487.856 384.926 487.641 385.73C487.307 386.978 486.478 387.556 485.155 387.465ZM484.688 383.707L483.071 383.274L482.342 385.997L483.958 386.43C484.469 386.567 484.897 386.555 485.244 386.394C485.603 386.227 485.84 385.931 485.954 385.506C486.07 385.071 486.018 384.697 485.798 384.385C485.578 384.073 485.208 383.847 484.688 383.707ZM483.022 390.829C483.514 390.961 483.932 390.931 484.277 390.74C484.622 390.549 484.858 390.217 484.985 389.744C485.096 389.328 485.044 388.955 484.829 388.624C484.617 388.283 484.279 388.051 483.815 387.926L481.958 387.429L481.179 390.336L483.022 390.829Z" fill="#86C5FF"/>
<path d="M492.993 394.17C492.194 394.655 491.261 394.754 490.193 394.468C489.124 394.182 488.361 393.628 487.903 392.806C487.456 391.977 487.367 391.061 487.635 390.059C487.904 389.057 488.437 388.314 489.236 387.829C490.047 387.337 490.986 387.234 492.054 387.52C493.122 387.806 493.88 388.364 494.326 389.193C494.785 390.015 494.88 390.927 494.612 391.929C494.343 392.931 493.803 393.678 492.993 394.17ZM489.285 392.127C489.531 392.609 489.956 392.93 490.561 393.093C491.166 393.255 491.691 393.188 492.135 392.891C492.588 392.597 492.899 392.138 493.066 391.515C493.233 390.891 493.194 390.338 492.948 389.857C492.711 389.378 492.291 389.058 491.686 388.896C491.081 388.733 490.551 388.799 490.098 389.093C489.654 389.39 489.348 389.85 489.181 390.474C489.014 391.097 489.048 391.649 489.285 392.127Z" fill="#86C5FF"/>
<path d="M500.951 396.302C500.153 396.787 499.219 396.887 498.151 396.6C497.083 396.314 496.32 395.76 495.861 394.938C495.415 394.109 495.325 393.194 495.594 392.192C495.862 391.19 496.396 390.446 497.195 389.961C498.005 389.469 498.945 389.366 500.013 389.653C501.081 389.939 501.838 390.496 502.285 391.325C502.744 392.147 502.839 393.059 502.57 394.061C502.302 395.063 501.762 395.81 500.951 396.302ZM497.243 394.26C497.489 394.741 497.915 395.063 498.52 395.225C499.125 395.387 499.649 395.32 500.093 395.024C500.547 394.73 500.857 394.271 501.025 393.647C501.192 393.023 501.152 392.471 500.906 391.989C500.67 391.511 500.249 391.19 499.644 391.028C499.039 390.866 498.51 390.932 498.056 391.226C497.612 391.522 497.307 391.982 497.139 392.606C496.972 393.23 497.007 393.781 497.243 394.26Z" fill="#86C5FF"/>
<path d="M510.793 392.724L507.082 395.118L509.023 399.331L506.995 398.788L505.376 395.132L504.571 398.138L503.025 397.724L505.685 387.799L507.23 388.213L505.566 394.423L508.837 392.199L510.793 392.724Z" fill="#86C5FF"/>
<path d="M516.33 401.472C515.3 401.195 514.589 400.655 514.196 399.851C513.804 399.047 513.743 398.139 514.014 397.128C514.283 396.126 514.802 395.378 515.572 394.886C516.345 394.383 517.233 394.267 518.235 394.535C518.679 394.654 519.06 394.858 519.378 395.145C519.696 395.433 519.91 395.769 520.02 396.153L520.259 395.26L521.805 395.674L520.034 402.282L518.489 401.867L518.728 400.974C518.453 401.245 518.085 401.425 517.626 401.515C517.178 401.597 516.746 401.583 516.33 401.472ZM516.926 400.157C517.559 400.327 518.094 400.257 518.532 399.949C518.978 399.643 519.283 399.188 519.445 398.583C519.607 397.978 519.571 397.431 519.337 396.943C519.113 396.457 518.684 396.13 518.05 395.96C517.455 395.8 516.929 395.872 516.473 396.175C516.029 396.472 515.724 396.927 515.56 397.542C515.395 398.156 515.43 398.707 515.664 399.196C515.909 399.677 516.33 399.997 516.926 400.157Z" fill="#86C5FF"/>
<path d="M528.619 403.184C528.931 403.267 529.196 403.318 529.414 403.336L529.049 404.697C528.713 404.668 528.322 404.594 527.878 404.474C527.623 404.406 527.406 404.328 527.227 404.239C527.048 404.151 526.848 404.006 526.629 403.805C526.411 403.595 526.277 403.301 526.227 402.923C526.176 402.544 526.221 402.095 526.36 401.575L527.184 398.499L526.064 398.198L526.41 396.908L527.53 397.208L528.066 395.209L529.611 395.623L529.076 397.622L530.593 398.029L530.247 399.319L528.73 398.913L528 401.635C527.859 402.164 527.84 402.534 527.946 402.745C528.054 402.946 528.279 403.093 528.619 403.184Z" fill="#86C5FF"/>
<path d="M534.043 397.586C533.767 397.745 533.464 397.78 533.133 397.691C532.802 397.603 532.557 397.421 532.398 397.145C532.242 396.86 532.206 396.557 532.292 396.235C532.379 395.914 532.559 395.673 532.835 395.514C533.113 395.346 533.418 395.306 533.749 395.394C534.08 395.483 534.323 395.67 534.48 395.955C534.639 396.231 534.676 396.529 534.589 396.851C534.503 397.172 534.321 397.417 534.043 397.586ZM530.328 405.04L532.099 398.432L533.644 398.847L531.874 405.454L530.328 405.04Z" fill="#86C5FF"/>
<path d="M533.717 405.948L535.488 399.341L537.033 399.755L536.787 400.676C537.024 400.395 537.335 400.2 537.719 400.09C538.105 399.971 538.506 399.967 538.922 400.078C539.972 400.36 540.561 400.938 540.691 401.814C540.943 401.517 541.283 401.309 541.71 401.19C542.139 401.062 542.581 401.059 543.034 401.18C544.622 401.606 545.185 402.683 544.721 404.413L543.6 408.596L542.055 408.182L543.096 404.297C543.377 403.248 543.106 402.613 542.284 402.392C541.849 402.276 541.47 402.331 541.145 402.558C540.824 402.776 540.565 403.249 540.37 403.977L539.432 407.479L537.886 407.065L538.931 403.166C539.21 402.126 538.947 401.498 538.144 401.283C537.699 401.164 537.31 401.217 536.977 401.441C536.655 401.659 536.396 402.132 536.201 402.86L535.263 406.362L533.717 405.948Z" fill="#86C5FF"/>
<path d="M552.333 407.03C552.288 407.201 552.197 407.48 552.063 407.87L547.157 406.555C547.036 407.08 547.099 407.528 547.344 407.897C547.592 408.257 548 408.514 548.567 408.666C549.295 408.861 549.853 408.742 550.243 408.309L551.803 408.727C551.534 409.314 551.063 409.729 550.389 409.975C549.728 410.213 549 410.225 548.206 410.013C547.166 409.734 546.427 409.202 545.99 408.416C545.552 407.63 545.476 406.703 545.762 405.634C546.046 404.576 546.569 403.814 547.332 403.35C548.106 402.879 548.999 402.779 550.011 403.05C550.956 403.303 551.639 403.8 552.058 404.54C552.49 405.274 552.581 406.104 552.333 407.03ZM547.472 405.378L550.903 406.298C551.031 405.785 550.985 405.352 550.765 404.999C550.555 404.649 550.185 404.403 549.656 404.261C549.117 404.117 548.652 404.15 548.262 404.359C547.871 404.568 547.608 404.908 547.472 405.378Z" fill="#86C5FF"/>
<path d="M118.643 425.851L119.475 417.694L121.486 425.643L129.643 426.474L121.694 428.485L120.863 436.643L118.851 428.694L110.694 427.862L118.643 425.851Z" fill="#FFC700"/>
<path d="M60.4757 423.091L62.9776 415.282L63.2997 423.476L71.1084 425.978L62.915 426.3L60.4131 434.108L60.0911 425.915L52.2823 423.413L60.4757 423.091Z" fill="#FFC700"/>
<path d="M4.47574 178.091L6.97764 170.282L7.29966 178.476L15.1084 180.978L6.91497 181.3L4.41307 189.108L4.09105 180.915L-3.71771 178.413L4.47574 178.091Z" fill="#FFC700"/>
<path d="M194.476 46.091L196.978 38.2823L197.3 46.4757L205.108 48.9776L196.915 49.2996L194.413 57.1084L194.091 48.915L186.282 46.4131L194.476 46.091Z" fill="#FFC700"/>
<path d="M469.449 68.9847L469.331 60.7858L472.248 68.449L480.447 68.3309L472.784 71.2482L472.902 79.4471L469.984 71.7839L461.786 71.902L469.449 68.9847Z" fill="#FFC700"/>
</g>
<defs>
<filter id="filter0_d_4182_3672" x="101.519" y="57.0762" width="276.442" height="276.441" filterUnits="userSpaceOnUse" color-interpolation-filters="sRGB">
<feFlood flood-opacity="0" result="BackgroundImageFix"/>
<feColorMatrix in="SourceAlpha" type="matrix" values="0 0 0 0 0 0 0 0 0 0 0 0 0 0 0 0 0 0 127 0" result="hardAlpha"/>
<feOffset/>
<feGaussianBlur stdDeviation="10.5"/>
<feComposite in2="hardAlpha" operator="out"/>
<feColorMatrix type="matrix" values="0 0 0 0 0.0653299 0 0 0 0 0.0995406 0 0 0 0 0.220833 0 0 0 0.17 0"/>
<feBlend mode="normal" in2="BackgroundImageFix" result="effect1_dropShadow_4182_3672"/>
<feBlend mode="normal" in="SourceGraphic" in2="effect1_dropShadow_4182_3672" result="shape"/>
</filter>
<filter id="filter1_d_4182_3672" x="-101.669" y="2.63184" width="276.442" height="276.441" filterUnits="userSpaceOnUse" color-interpolation-filters="sRGB">
<feFlood flood-opacity="0" result="BackgroundImageFix"/>
<feColorMatrix in="SourceAlpha" type="matrix" values="0 0 0 0 0 0 0 0 0 0 0 0 0 0 0 0 0 0 127 0" result="hardAlpha"/>
<feOffset/>
<feGaussianBlur stdDeviation="10.5"/>
<feComposite in2="hardAlpha" operator="out"/>
<feColorMatrix type="matrix" values="0 0 0 0 0.0653299 0 0 0 0 0.0995406 0 0 0 0 0.220833 0 0 0 0.17 0"/>
<feBlend mode="normal" in2="BackgroundImageFix" result="effect1_dropShadow_4182_3672"/>
<feBlend mode="normal" in="SourceGraphic" in2="effect1_dropShadow_4182_3672" result="shape"/>
</filter>
<filter id="filter2_d_4182_3672" x="304.99" y="111.596" width="276.442" height="276.441" filterUnits="userSpaceOnUse" color-interpolation-filters="sRGB">
<feFlood flood-opacity="0" result="BackgroundImageFix"/>
<feColorMatrix in="SourceAlpha" type="matrix" values="0 0 0 0 0 0 0 0 0 0 0 0 0 0 0 0 0 0 127 0" result="hardAlpha"/>
<feOffset/>
<feGaussianBlur stdDeviation="10.5"/>
<feComposite in2="hardAlpha" operator="out"/>
<feColorMatrix type="matrix" values="0 0 0 0 0.0653299 0 0 0 0 0.0995406 0 0 0 0 0.220833 0 0 0 0.17 0"/>
<feBlend mode="normal" in2="BackgroundImageFix" result="effect1_dropShadow_4182_3672"/>
<feBlend mode="normal" in="SourceGraphic" in2="effect1_dropShadow_4182_3672" result="shape"/>
</filter>
<filter id="filter3_d_4182_3672" x="-52.2045" y="230.927" width="276.442" height="276.441" filterUnits="userSpaceOnUse" color-interpolation-filters="sRGB">
<feFlood flood-opacity="0" result="BackgroundImageFix"/>
<feColorMatrix in="SourceAlpha" type="matrix" values="0 0 0 0 0 0 0 0 0 0 0 0 0 0 0 0 0 0 127 0" result="hardAlpha"/>
<feOffset/>
<feGaussianBlur stdDeviation="10.5"/>
<feComposite in2="hardAlpha" operator="out"/>
<feColorMatrix type="matrix" values="0 0 0 0 0.0653299 0 0 0 0 0.0995406 0 0 0 0 0.220833 0 0 0 0.17 0"/>
<feBlend mode="normal" in2="BackgroundImageFix" result="effect1_dropShadow_4182_3672"/>
<feBlend mode="normal" in="SourceGraphic" in2="effect1_dropShadow_4182_3672" result="shape"/>
</filter>
<filter id="filter4_d_4182_3672" x="151.266" y="285.445" width="276.442" height="276.441" filterUnits="userSpaceOnUse" color-interpolation-filters="sRGB">
<feFlood flood-opacity="0" result="BackgroundImageFix"/>
<feColorMatrix in="SourceAlpha" type="matrix" values="0 0 0 0 0 0 0 0 0 0 0 0 0 0 0 0 0 0 127 0" result="hardAlpha"/>
<feOffset/>
<feGaussianBlur stdDeviation="10.5"/>
<feComposite in2="hardAlpha" operator="out"/>
<feColorMatrix type="matrix" values="0 0 0 0 0.0653299 0 0 0 0 0.0995406 0 0 0 0 0.220833 0 0 0 0.17 0"/>
<feBlend mode="normal" in2="BackgroundImageFix" result="effect1_dropShadow_4182_3672"/>
<feBlend mode="normal" in="SourceGraphic" in2="effect1_dropShadow_4182_3672" result="shape"/>
</filter>
<filter id="filter5_d_4182_3672" x="354.579" y="339.924" width="276.442" height="276.441" filterUnits="userSpaceOnUse" color-interpolation-filters="sRGB">
<feFlood flood-opacity="0" result="BackgroundImageFix"/>
<feColorMatrix in="SourceAlpha" type="matrix" values="0 0 0 0 0 0 0 0 0 0 0 0 0 0 0 0 0 0 127 0" result="hardAlpha"/>
<feOffset/>
<feGaussianBlur stdDeviation="10.5"/>
<feComposite in2="hardAlpha" operator="out"/>
<feColorMatrix type="matrix" values="0 0 0 0 0.0653299 0 0 0 0 0.0995406 0 0 0 0 0.220833 0 0 0 0.17 0"/>
<feBlend mode="normal" in2="BackgroundImageFix" result="effect1_dropShadow_4182_3672"/>
<feBlend mode="normal" in="SourceGraphic" in2="effect1_dropShadow_4182_3672" result="shape"/>
</filter>
<clipPath id="clip0_4182_3672">
<rect width="528" height="464" fill="white"/>
</clipPath>
</defs>
</svg>
