<svg width="389" height="190" viewBox="0 0 389 190" fill="none" xmlns="http://www.w3.org/2000/svg">
<g clip-path="url(#clip0_4175_2785)">
<rect width="389" height="190" fill="white"/>
<path d="M350.519 113.933L324.339 103.879C320.296 102.327 316.326 106.297 317.879 110.339L327.933 136.519C329.23 139.898 333.577 140.822 336.136 138.262L338.535 135.864L339.953 134.446L343.484 137.978C345.829 140.323 349.632 140.323 351.977 137.978C354.322 135.632 354.322 131.83 351.977 129.485L348.445 125.953L349.863 124.535L352.262 122.136C354.821 119.577 353.898 115.231 350.519 113.933Z" fill="black" stroke="white" stroke-width="4"/>
<rect x="21" y="-64" width="531" height="238" rx="17" fill="#F7F7F7"/>
<g clip-path="url(#clip1_4175_2785)">
<g filter="url(#filter0_d_4175_2785)">
<rect x="33" y="-8" width="303" height="171" fill="#D9D9D9"/>
</g>
<g filter="url(#filter1_d_4175_2785)">
<circle cx="184.541" cy="73.541" r="21.5" fill="#33362F"/>
</g>
<path d="M192.853 72.2517C194.225 73.0137 194.225 74.9863 192.853 75.7483L180.971 82.3493C179.638 83.0899 178 82.1259 178 80.601L178 67.399C178 65.8741 179.638 64.9101 180.971 65.6507L192.853 72.2517Z" fill="white"/>
</g>
<g clip-path="url(#clip2_4175_2785)">
<g filter="url(#filter2_d_4175_2785)">
<rect x="347" y="-5" width="303" height="168" fill="#D9D9D9"/>
</g>
</g>
</g>
<defs>
<filter id="filter0_d_4175_2785" x="13" y="-28" width="343" height="211" filterUnits="userSpaceOnUse" color-interpolation-filters="sRGB">
<feFlood flood-opacity="0" result="BackgroundImageFix"/>
<feColorMatrix in="SourceAlpha" type="matrix" values="0 0 0 0 0 0 0 0 0 0 0 0 0 0 0 0 0 0 127 0" result="hardAlpha"/>
<feOffset/>
<feGaussianBlur stdDeviation="10"/>
<feComposite in2="hardAlpha" operator="out"/>
<feColorMatrix type="matrix" values="0 0 0 0 0.375 0 0 0 0 0.38 0 0 0 0 0.5 0 0 0 0.1 0"/>
<feBlend mode="normal" in2="BackgroundImageFix" result="effect1_dropShadow_4175_2785"/>
<feBlend mode="normal" in="SourceGraphic" in2="effect1_dropShadow_4175_2785" result="shape"/>
</filter>
<filter id="filter1_d_4175_2785" x="141.041" y="30.041" width="87" height="87" filterUnits="userSpaceOnUse" color-interpolation-filters="sRGB">
<feFlood flood-opacity="0" result="BackgroundImageFix"/>
<feColorMatrix in="SourceAlpha" type="matrix" values="0 0 0 0 0 0 0 0 0 0 0 0 0 0 0 0 0 0 127 0" result="hardAlpha"/>
<feOffset/>
<feGaussianBlur stdDeviation="11"/>
<feComposite in2="hardAlpha" operator="out"/>
<feColorMatrix type="matrix" values="0 0 0 0 0 0 0 0 0 0 0 0 0 0 0 0 0 0 0.2 0"/>
<feBlend mode="normal" in2="BackgroundImageFix" result="effect1_dropShadow_4175_2785"/>
<feBlend mode="normal" in="SourceGraphic" in2="effect1_dropShadow_4175_2785" result="shape"/>
</filter>
<filter id="filter2_d_4175_2785" x="327" y="-25" width="343" height="208" filterUnits="userSpaceOnUse" color-interpolation-filters="sRGB">
<feFlood flood-opacity="0" result="BackgroundImageFix"/>
<feColorMatrix in="SourceAlpha" type="matrix" values="0 0 0 0 0 0 0 0 0 0 0 0 0 0 0 0 0 0 127 0" result="hardAlpha"/>
<feOffset/>
<feGaussianBlur stdDeviation="10"/>
<feComposite in2="hardAlpha" operator="out"/>
<feColorMatrix type="matrix" values="0 0 0 0 0.375 0 0 0 0 0.38 0 0 0 0 0.5 0 0 0 0.1 0"/>
<feBlend mode="normal" in2="BackgroundImageFix" result="effect1_dropShadow_4175_2785"/>
<feBlend mode="normal" in="SourceGraphic" in2="effect1_dropShadow_4175_2785" result="shape"/>
</filter>
<clipPath id="clip0_4175_2785">
<rect width="389" height="190" fill="white"/>
</clipPath>
<clipPath id="clip1_4175_2785">
<rect x="33" y="-15" width="303" height="178" rx="17" fill="white"/>
</clipPath>
<clipPath id="clip2_4175_2785">
<rect x="347" y="-15" width="303" height="178" rx="17" fill="white"/>
</clipPath>
</defs>
</svg>
