<svg width="528" height="464" viewBox="0 0 528 464" fill="none" xmlns="http://www.w3.org/2000/svg">
<g clip-path="url(#clip0_4065_7203)">
<rect width="528" height="464" fill="#FE3458"/>
<g clip-path="url(#clip1_4065_7203)">
<g filter="url(#filter0_d_4065_7203)">
<rect x="42" y="152" width="303" height="195" fill="#E12A4B"/>
</g>
<g filter="url(#filter1_d_4065_7203)">
<circle cx="193.542" cy="257.541" r="21.5" fill="white"/>
</g>
<path d="M201.853 256.252C203.225 257.014 203.225 258.986 201.853 259.748L189.971 266.349C188.638 267.09 187 266.126 187 264.601L187 251.399C187 249.874 188.638 248.91 189.971 249.651L201.853 256.252Z" fill="#E12A4B"/>
</g>
<path d="M94.425 131V117.7H96.61V128.948H101.949V131H94.425ZM107.349 131.228C105.968 131.228 104.898 130.791 104.138 129.917C103.378 129.043 102.998 127.928 102.998 126.573C102.998 125.23 103.397 124.122 104.195 123.248C104.993 122.361 106.063 121.918 107.406 121.918C108.001 121.918 108.546 122.045 109.04 122.298C109.534 122.551 109.914 122.9 110.18 123.343V122.146H112.251V131H110.18V129.803C109.927 130.234 109.528 130.582 108.983 130.848C108.451 131.101 107.906 131.228 107.349 131.228ZM107.653 129.385C108.502 129.385 109.148 129.119 109.591 128.587C110.047 128.055 110.275 127.384 110.275 126.573C110.275 125.762 110.047 125.091 109.591 124.559C109.148 124.027 108.502 123.761 107.653 123.761C106.855 123.761 106.222 124.027 105.753 124.559C105.297 125.078 105.069 125.75 105.069 126.573C105.069 127.396 105.297 128.074 105.753 128.606C106.222 129.125 106.855 129.385 107.653 129.385ZM118.916 129.252C119.334 129.252 119.682 129.227 119.961 129.176V131C119.53 131.076 119.017 131.114 118.422 131.114C118.08 131.114 117.782 131.089 117.529 131.038C117.276 130.987 116.978 130.873 116.636 130.696C116.294 130.506 116.028 130.183 115.838 129.727C115.648 129.271 115.553 128.695 115.553 127.998V123.875H114.052V122.146H115.553V119.467H117.624V122.146H119.657V123.875H117.624V127.523C117.624 128.232 117.725 128.701 117.928 128.929C118.131 129.144 118.46 129.252 118.916 129.252ZM129.79 126.117C129.79 126.345 129.771 126.725 129.733 127.257H123.159C123.185 127.954 123.413 128.492 123.843 128.872C124.274 129.239 124.869 129.423 125.629 129.423C126.605 129.423 127.263 129.087 127.605 128.416H129.695C129.556 129.239 129.106 129.917 128.346 130.449C127.599 130.968 126.693 131.228 125.629 131.228C124.236 131.228 123.134 130.81 122.323 129.974C121.513 129.138 121.107 128.004 121.107 126.573C121.107 125.154 121.506 124.027 122.304 123.191C123.115 122.342 124.198 121.918 125.553 121.918C126.82 121.918 127.84 122.311 128.612 123.096C129.398 123.869 129.79 124.876 129.79 126.117ZM123.159 125.68H127.757C127.745 124.996 127.542 124.47 127.149 124.103C126.769 123.736 126.225 123.552 125.515 123.552C124.793 123.552 124.223 123.748 123.805 124.141C123.387 124.534 123.172 125.047 123.159 125.68ZM134.889 131.228C133.774 131.228 132.869 130.943 132.172 130.373C131.475 129.803 131.127 129.106 131.127 128.283H133.198C133.198 128.663 133.363 128.973 133.692 129.214C134.034 129.455 134.471 129.575 135.003 129.575C135.396 129.575 135.706 129.48 135.934 129.29C136.162 129.1 136.276 128.847 136.276 128.53C136.276 128.023 136.054 127.713 135.611 127.599L133.331 126.972C132.052 126.617 131.412 125.8 131.412 124.521C131.412 123.786 131.729 123.172 132.362 122.678C132.995 122.171 133.812 121.918 134.813 121.918C135.94 121.918 136.802 122.171 137.397 122.678C138.005 123.185 138.309 123.85 138.309 124.673H136.276C136.276 124.306 136.137 124.021 135.858 123.818C135.592 123.603 135.218 123.495 134.737 123.495C134.37 123.495 134.066 123.584 133.825 123.761C133.584 123.926 133.464 124.141 133.464 124.407C133.464 124.888 133.717 125.205 134.224 125.357L136.333 125.965C136.941 126.142 137.435 126.446 137.815 126.877C138.195 127.295 138.385 127.783 138.385 128.34C138.385 129.201 138.075 129.898 137.454 130.43C136.846 130.962 135.991 131.228 134.889 131.228ZM144.299 129.252C144.717 129.252 145.065 129.227 145.344 129.176V131C144.913 131.076 144.4 131.114 143.805 131.114C143.463 131.114 143.165 131.089 142.912 131.038C142.659 130.987 142.361 130.873 142.019 130.696C141.677 130.506 141.411 130.183 141.221 129.727C141.031 129.271 140.936 128.695 140.936 127.998V123.875H139.435V122.146H140.936V119.467H143.007V122.146H145.04V123.875H143.007V127.523C143.007 128.232 143.108 128.701 143.311 128.929C143.514 129.144 143.843 129.252 144.299 129.252ZM159.313 117.7H161.707L155.114 131H152.72L155.361 125.661L150.383 117.7H152.91L156.482 123.419L159.313 117.7ZM168.351 129.917C167.515 130.791 166.382 131.228 164.95 131.228C163.519 131.228 162.379 130.791 161.53 129.917C160.694 129.03 160.276 127.916 160.276 126.573C160.276 125.23 160.694 124.122 161.53 123.248C162.379 122.361 163.519 121.918 164.95 121.918C166.382 121.918 167.515 122.361 168.351 123.248C169.2 124.122 169.624 125.23 169.624 126.573C169.624 127.916 169.2 129.03 168.351 129.917ZM163.031 128.606C163.5 129.125 164.14 129.385 164.95 129.385C165.761 129.385 166.394 129.125 166.85 128.606C167.319 128.087 167.553 127.409 167.553 126.573C167.553 125.737 167.319 125.059 166.85 124.54C166.394 124.021 165.761 123.761 164.95 123.761C164.14 123.761 163.5 124.021 163.031 124.54C162.575 125.059 162.347 125.737 162.347 126.573C162.347 127.409 162.575 128.087 163.031 128.606ZM174.802 131.228C173.802 131.228 173.004 130.93 172.408 130.335C171.813 129.74 171.515 128.866 171.515 127.713V122.146H173.586V127.2C173.586 127.947 173.726 128.511 174.004 128.891C174.283 129.271 174.745 129.461 175.391 129.461C176.139 129.461 176.683 129.252 177.025 128.834C177.367 128.403 177.538 127.84 177.538 127.143V122.146H179.609V131H177.538V129.765C176.994 130.74 176.082 131.228 174.802 131.228ZM184.883 131V119.752H181.026V117.7H190.944V119.752H187.068V131H184.883ZM194.433 131.228C193.432 131.228 192.634 130.93 192.039 130.335C191.444 129.74 191.146 128.866 191.146 127.713V122.146H193.217V127.2C193.217 127.947 193.356 128.511 193.635 128.891C193.914 129.271 194.376 129.461 195.022 129.461C195.769 129.461 196.314 129.252 196.656 128.834C196.998 128.403 197.169 127.84 197.169 127.143V122.146H199.24V131H197.169V129.765C196.624 130.74 195.712 131.228 194.433 131.228ZM206.927 121.918C208.193 121.918 209.213 122.349 209.986 123.21C210.758 124.059 211.145 125.18 211.145 126.573C211.145 127.941 210.739 129.062 209.929 129.936C209.118 130.797 208.073 131.228 206.794 131.228C206.211 131.228 205.66 131.101 205.141 130.848C204.621 130.582 204.229 130.234 203.963 129.803V131H201.892V117.7H203.963V123.343C204.229 122.912 204.634 122.57 205.179 122.317C205.723 122.051 206.306 121.918 206.927 121.918ZM206.49 129.385C207.25 129.385 207.87 129.125 208.352 128.606C208.833 128.074 209.074 127.396 209.074 126.573C209.074 125.75 208.833 125.078 208.352 124.559C207.87 124.027 207.25 123.761 206.49 123.761C205.704 123.761 205.071 124.021 204.59 124.54C204.108 125.059 203.868 125.737 203.868 126.573C203.868 127.409 204.108 128.087 204.59 128.606C205.071 129.125 205.704 129.385 206.49 129.385ZM221.154 126.117C221.154 126.345 221.135 126.725 221.097 127.257H214.523C214.548 127.954 214.776 128.492 215.207 128.872C215.637 129.239 216.233 129.423 216.993 129.423C217.968 129.423 218.627 129.087 218.969 128.416H221.059C220.919 129.239 220.47 129.917 219.71 130.449C218.962 130.968 218.057 131.228 216.993 131.228C215.599 131.228 214.497 130.81 213.687 129.974C212.876 129.138 212.471 128.004 212.471 126.573C212.471 125.154 212.87 124.027 213.668 123.191C214.478 122.342 215.561 121.918 216.917 121.918C218.183 121.918 219.203 122.311 219.976 123.096C220.761 123.869 221.154 124.876 221.154 126.117ZM214.523 125.68H219.121C219.108 124.996 218.905 124.47 218.513 124.103C218.133 123.736 217.588 123.552 216.879 123.552C216.157 123.552 215.587 123.748 215.169 124.141C214.751 124.534 214.535 125.047 214.523 125.68ZM230.983 131L226.575 117.7H228.95L232.028 127.561L235.106 117.7H237.481L233.073 131H230.983ZM240.777 120.436C240.485 120.727 240.118 120.873 239.675 120.873C239.231 120.873 238.864 120.727 238.573 120.436C238.281 120.132 238.136 119.765 238.136 119.334C238.136 118.903 238.281 118.542 238.573 118.251C238.864 117.947 239.231 117.795 239.675 117.795C240.118 117.795 240.485 117.947 240.777 118.251C241.068 118.542 241.214 118.903 241.214 119.334C241.214 119.765 241.068 120.132 240.777 120.436ZM238.63 131V122.146H240.701V131H238.63ZM249.878 117.7H251.949V131H249.878V129.803C249.625 130.234 249.226 130.582 248.681 130.848C248.149 131.101 247.605 131.228 247.047 131.228C245.667 131.228 244.596 130.791 243.836 129.917C243.076 129.043 242.696 127.928 242.696 126.573C242.696 125.23 243.095 124.122 243.893 123.248C244.691 122.361 245.762 121.918 247.104 121.918C247.7 121.918 248.244 122.045 248.738 122.298C249.232 122.551 249.612 122.9 249.878 123.343V117.7ZM247.351 129.385C248.2 129.385 248.846 129.119 249.289 128.587C249.745 128.055 249.973 127.384 249.973 126.573C249.973 125.762 249.745 125.091 249.289 124.559C248.846 124.027 248.2 123.761 247.351 123.761C246.553 123.761 245.92 124.027 245.451 124.559C244.995 125.078 244.767 125.75 244.767 126.573C244.767 127.396 244.995 128.074 245.451 128.606C245.92 129.125 246.553 129.385 247.351 129.385ZM262.623 126.117C262.623 126.345 262.604 126.725 262.566 127.257H255.992C256.018 127.954 256.246 128.492 256.676 128.872C257.107 129.239 257.702 129.423 258.462 129.423C259.438 129.423 260.096 129.087 260.438 128.416H262.528C262.389 129.239 261.939 129.917 261.179 130.449C260.432 130.968 259.526 131.228 258.462 131.228C257.069 131.228 255.967 130.81 255.156 129.974C254.346 129.138 253.94 128.004 253.94 126.573C253.94 125.154 254.339 124.027 255.137 123.191C255.948 122.342 257.031 121.918 258.386 121.918C259.653 121.918 260.673 122.311 261.445 123.096C262.231 123.869 262.623 124.876 262.623 126.117ZM255.992 125.68H260.59C260.578 124.996 260.375 124.47 259.982 124.103C259.602 123.736 259.058 123.552 258.348 123.552C257.626 123.552 257.056 123.748 256.638 124.141C256.22 124.534 256.005 125.047 255.992 125.68ZM272.22 129.917C271.384 130.791 270.251 131.228 268.819 131.228C267.388 131.228 266.248 130.791 265.399 129.917C264.563 129.03 264.145 127.916 264.145 126.573C264.145 125.23 264.563 124.122 265.399 123.248C266.248 122.361 267.388 121.918 268.819 121.918C270.251 121.918 271.384 122.361 272.22 123.248C273.069 124.122 273.493 125.23 273.493 126.573C273.493 127.916 273.069 129.03 272.22 129.917ZM266.9 128.606C267.369 129.125 268.009 129.385 268.819 129.385C269.63 129.385 270.263 129.125 270.719 128.606C271.188 128.087 271.422 127.409 271.422 126.573C271.422 125.737 271.188 125.059 270.719 124.54C270.263 124.021 269.63 123.761 268.819 123.761C268.009 123.761 267.369 124.021 266.9 124.54C266.444 125.059 266.216 125.737 266.216 126.573C266.216 127.409 266.444 128.087 266.9 128.606ZM278.576 131.228C277.462 131.228 276.556 130.943 275.859 130.373C275.163 129.803 274.814 129.106 274.814 128.283H276.885C276.885 128.663 277.05 128.973 277.379 129.214C277.721 129.455 278.158 129.575 278.69 129.575C279.083 129.575 279.393 129.48 279.621 129.29C279.849 129.1 279.963 128.847 279.963 128.53C279.963 128.023 279.742 127.713 279.298 127.599L277.018 126.972C275.739 126.617 275.099 125.8 275.099 124.521C275.099 123.786 275.416 123.172 276.049 122.678C276.683 122.171 277.5 121.918 278.5 121.918C279.628 121.918 280.489 122.171 281.084 122.678C281.692 123.185 281.996 123.85 281.996 124.673H279.963C279.963 124.306 279.824 124.021 279.545 123.818C279.279 123.603 278.906 123.495 278.424 123.495C278.057 123.495 277.753 123.584 277.512 123.761C277.272 123.926 277.151 124.141 277.151 124.407C277.151 124.888 277.405 125.205 277.911 125.357L280.02 125.965C280.628 126.142 281.122 126.446 281.502 126.877C281.882 127.295 282.072 127.783 282.072 128.34C282.072 129.201 281.762 129.898 281.141 130.43C280.533 130.962 279.678 131.228 278.576 131.228Z" fill="white"/>
<circle cx="63.5" cy="125.5" r="21.5" fill="#1A1A1A"/>
<path d="M64.9497 122.707L60.7071 126.95M61.4142 119.172L62.1213 118.464C64.0739 116.512 67.2398 116.512 69.1924 118.464C71.145 120.417 71.145 123.583 69.1924 125.536L68.4853 126.243M57.1716 123.414L56.4645 124.121C54.5118 126.074 54.5118 129.24 56.4645 131.192C58.4171 133.145 61.5829 133.145 63.5355 131.192L64.2426 130.485" stroke="white" stroke-width="2" stroke-linecap="round" stroke-linejoin="round"/>
<g clip-path="url(#clip2_4065_7203)">
<g filter="url(#filter2_d_4065_7203)">
<rect x="356" y="152" width="303" height="195" fill="#E12A4B"/>
</g>
<g filter="url(#filter3_d_4065_7203)">
<circle cx="507.542" cy="257.541" r="21.5" fill="white"/>
</g>
<path d="M515.853 256.252C517.225 257.014 517.225 258.986 515.853 259.748L503.971 266.349C502.638 267.09 501 266.126 501 264.601L501 251.399C501 249.874 502.638 248.91 503.971 249.651L515.853 256.252Z" fill="#E12A4B"/>
</g>
<path d="M40.6433 173.851L41.4746 165.694L43.4857 173.643L51.6432 174.474L43.6939 176.485L42.8625 184.643L40.8515 176.694L32.6939 175.862L40.6433 173.851Z" fill="#FFC700"/>
<path d="M286.476 180.091L288.978 172.282L289.3 180.476L297.108 182.978L288.915 183.3L286.413 191.108L286.091 182.915L278.282 180.413L286.476 180.091Z" fill="#FFC700"/>
<path d="M50.4757 327.091L52.9776 319.282L53.2997 327.476L61.1084 329.978L52.915 330.3L50.4131 338.108L50.0911 329.915L42.2823 327.413L50.4757 327.091Z" fill="#FFC700"/>
<path d="M249.476 347.091L251.978 339.282L252.3 347.476L260.108 349.978L251.915 350.3L249.413 358.108L249.091 349.915L241.282 347.413L249.476 347.091Z" fill="#FFC700"/>
<path d="M341.449 150.985L341.331 142.786L344.248 150.449L352.447 150.331L344.784 153.248L344.902 161.447L341.984 153.784L333.786 153.902L341.449 150.985Z" fill="#FFC700"/>
</g>
<defs>
<filter id="filter0_d_4065_7203" x="22" y="132" width="343" height="235" filterUnits="userSpaceOnUse" color-interpolation-filters="sRGB">
<feFlood flood-opacity="0" result="BackgroundImageFix"/>
<feColorMatrix in="SourceAlpha" type="matrix" values="0 0 0 0 0 0 0 0 0 0 0 0 0 0 0 0 0 0 127 0" result="hardAlpha"/>
<feOffset/>
<feGaussianBlur stdDeviation="10"/>
<feComposite in2="hardAlpha" operator="out"/>
<feColorMatrix type="matrix" values="0 0 0 0 0.375 0 0 0 0 0.38 0 0 0 0 0.5 0 0 0 0.1 0"/>
<feBlend mode="normal" in2="BackgroundImageFix" result="effect1_dropShadow_4065_7203"/>
<feBlend mode="normal" in="SourceGraphic" in2="effect1_dropShadow_4065_7203" result="shape"/>
</filter>
<filter id="filter1_d_4065_7203" x="150.042" y="214.041" width="87" height="87" filterUnits="userSpaceOnUse" color-interpolation-filters="sRGB">
<feFlood flood-opacity="0" result="BackgroundImageFix"/>
<feColorMatrix in="SourceAlpha" type="matrix" values="0 0 0 0 0 0 0 0 0 0 0 0 0 0 0 0 0 0 127 0" result="hardAlpha"/>
<feOffset/>
<feGaussianBlur stdDeviation="11"/>
<feComposite in2="hardAlpha" operator="out"/>
<feColorMatrix type="matrix" values="0 0 0 0 0 0 0 0 0 0 0 0 0 0 0 0 0 0 0.2 0"/>
<feBlend mode="normal" in2="BackgroundImageFix" result="effect1_dropShadow_4065_7203"/>
<feBlend mode="normal" in="SourceGraphic" in2="effect1_dropShadow_4065_7203" result="shape"/>
</filter>
<filter id="filter2_d_4065_7203" x="336" y="132" width="343" height="235" filterUnits="userSpaceOnUse" color-interpolation-filters="sRGB">
<feFlood flood-opacity="0" result="BackgroundImageFix"/>
<feColorMatrix in="SourceAlpha" type="matrix" values="0 0 0 0 0 0 0 0 0 0 0 0 0 0 0 0 0 0 127 0" result="hardAlpha"/>
<feOffset/>
<feGaussianBlur stdDeviation="10"/>
<feComposite in2="hardAlpha" operator="out"/>
<feColorMatrix type="matrix" values="0 0 0 0 0.375 0 0 0 0 0.38 0 0 0 0 0.5 0 0 0 0.1 0"/>
<feBlend mode="normal" in2="BackgroundImageFix" result="effect1_dropShadow_4065_7203"/>
<feBlend mode="normal" in="SourceGraphic" in2="effect1_dropShadow_4065_7203" result="shape"/>
</filter>
<filter id="filter3_d_4065_7203" x="464.042" y="214.041" width="87" height="87" filterUnits="userSpaceOnUse" color-interpolation-filters="sRGB">
<feFlood flood-opacity="0" result="BackgroundImageFix"/>
<feColorMatrix in="SourceAlpha" type="matrix" values="0 0 0 0 0 0 0 0 0 0 0 0 0 0 0 0 0 0 127 0" result="hardAlpha"/>
<feOffset/>
<feGaussianBlur stdDeviation="11"/>
<feComposite in2="hardAlpha" operator="out"/>
<feColorMatrix type="matrix" values="0 0 0 0 0 0 0 0 0 0 0 0 0 0 0 0 0 0 0.2 0"/>
<feBlend mode="normal" in2="BackgroundImageFix" result="effect1_dropShadow_4065_7203"/>
<feBlend mode="normal" in="SourceGraphic" in2="effect1_dropShadow_4065_7203" result="shape"/>
</filter>
<clipPath id="clip0_4065_7203">
<rect width="528" height="464" fill="white"/>
</clipPath>
<clipPath id="clip1_4065_7203">
<rect x="42" y="169" width="303" height="178" rx="17" fill="white"/>
</clipPath>
<clipPath id="clip2_4065_7203">
<rect x="356" y="169" width="303" height="178" rx="17" fill="white"/>
</clipPath>
</defs>
</svg>
