<svg width="389" height="242" viewBox="0 0 389 242" fill="none" xmlns="http://www.w3.org/2000/svg">
<g filter="url(#filter0_d_4173_2641)">
<rect x="45" y="41" width="299" height="75" rx="17" fill="black"/>
<path d="M120.275 84V72.1H122.145L125.953 81.212L129.744 72.1H131.614V84H129.744V76.129L126.684 84H125.205L122.145 76.044V84H120.275ZM136.007 74.548C135.746 74.8087 135.417 74.939 135.021 74.939C134.624 74.939 134.295 74.8087 134.035 74.548C133.774 74.276 133.644 73.9473 133.644 73.562C133.644 73.1767 133.774 72.8537 134.035 72.593C134.295 72.321 134.624 72.185 135.021 72.185C135.417 72.185 135.746 72.321 136.007 72.593C136.267 72.8537 136.398 73.1767 136.398 73.562C136.398 73.9473 136.267 74.276 136.007 74.548ZM134.086 84V76.078H135.939V84H134.086ZM141.668 84.204C140.455 84.204 139.492 83.8243 138.778 83.065C138.075 82.2943 137.724 81.2857 137.724 80.039C137.724 78.7923 138.075 77.7893 138.778 77.03C139.492 76.2593 140.455 75.874 141.668 75.874C142.756 75.874 143.629 76.1517 144.286 76.707C144.955 77.251 145.334 77.982 145.425 78.9H143.572C143.368 77.982 142.733 77.523 141.668 77.523C141.011 77.523 140.495 77.744 140.121 78.186C139.758 78.6167 139.577 79.2343 139.577 80.039C139.577 80.8437 139.758 81.467 140.121 81.909C140.495 82.3397 141.011 82.555 141.668 82.555C142.722 82.555 143.357 82.1243 143.572 81.263H145.425C145.334 82.1583 144.955 82.8723 144.286 83.405C143.629 83.9377 142.756 84.204 141.668 84.204ZM151.654 75.874C153.581 75.874 154.544 76.9223 154.544 79.019V84H152.691V79.869C152.691 79.0077 152.561 78.39 152.3 78.016C152.04 77.642 151.592 77.455 150.957 77.455C150.357 77.455 149.892 77.6477 149.563 78.033C149.235 78.407 149.07 78.9453 149.07 79.648V84H147.217V72.1H149.07V77.183C149.58 76.3103 150.442 75.874 151.654 75.874ZM160.144 84.204C158.909 84.204 157.951 83.813 157.271 83.031C156.591 82.249 156.251 81.2517 156.251 80.039C156.251 78.8377 156.608 77.846 157.322 77.064C158.036 76.2707 158.994 75.874 160.195 75.874C160.728 75.874 161.215 75.9873 161.657 76.214C162.099 76.4407 162.439 76.7523 162.677 77.149V76.078H164.53V84H162.677V82.929C162.451 83.3143 162.094 83.626 161.606 83.864C161.13 84.0907 160.643 84.204 160.144 84.204ZM160.416 82.555C161.176 82.555 161.754 82.317 162.15 81.841C162.558 81.365 162.762 80.7643 162.762 80.039C162.762 79.3137 162.558 78.713 162.15 78.237C161.754 77.761 161.176 77.523 160.416 77.523C159.702 77.523 159.136 77.761 158.716 78.237C158.308 78.7017 158.104 79.3023 158.104 80.039C158.104 80.7757 158.308 81.382 158.716 81.858C159.136 82.3227 159.702 82.555 160.416 82.555ZM174.081 79.631C174.081 79.835 174.064 80.175 174.03 80.651H168.148C168.17 81.2743 168.374 81.756 168.76 82.096C169.145 82.4247 169.678 82.589 170.358 82.589C171.23 82.589 171.82 82.2887 172.126 81.688H173.996C173.871 82.4247 173.469 83.031 172.789 83.507C172.12 83.9717 171.31 84.204 170.358 84.204C169.111 84.204 168.125 83.83 167.4 83.082C166.674 82.334 166.312 81.3197 166.312 80.039C166.312 78.7697 166.669 77.761 167.383 77.013C168.108 76.2537 169.077 75.874 170.29 75.874C171.423 75.874 172.335 76.2253 173.027 76.928C173.729 77.6193 174.081 78.5203 174.081 79.631ZM168.148 79.24H172.262C172.25 78.628 172.069 78.1577 171.718 77.829C171.378 77.5003 170.89 77.336 170.256 77.336C169.61 77.336 169.1 77.5117 168.726 77.863C168.352 78.2143 168.159 78.6733 168.148 79.24ZM175.872 84V72.1H177.725V84H175.872ZM183.76 84.289C182.377 84.289 181.306 83.9263 180.547 83.201C179.799 82.4757 179.425 81.4443 179.425 80.107H181.38C181.38 80.8777 181.59 81.484 182.009 81.926C182.428 82.368 183.006 82.589 183.743 82.589C184.389 82.589 184.882 82.4473 185.222 82.164C185.573 81.8693 185.749 81.4557 185.749 80.923C185.749 80.4697 185.619 80.107 185.358 79.835C185.109 79.563 184.65 79.291 183.981 79.019L182.043 78.237C180.524 77.6477 179.765 76.5937 179.765 75.075C179.765 74.1117 180.116 73.3297 180.819 72.729C181.533 72.117 182.451 71.811 183.573 71.811C184.752 71.811 185.698 72.151 186.412 72.831C187.137 73.511 187.5 74.412 187.5 75.534H185.545C185.545 74.8767 185.369 74.3723 185.018 74.021C184.667 73.6583 184.162 73.477 183.505 73.477C182.95 73.477 182.513 73.613 182.196 73.885C181.89 74.1457 181.737 74.5027 181.737 74.956C181.737 75.364 181.89 75.7153 182.196 76.01C182.502 76.3047 183.006 76.5937 183.709 76.877L185.46 77.591C186.956 78.203 187.704 79.2967 187.704 80.872C187.704 81.892 187.341 82.7193 186.616 83.354C185.891 83.9773 184.939 84.289 183.76 84.289ZM192.917 84.204C191.704 84.204 190.741 83.8243 190.027 83.065C189.324 82.2943 188.973 81.2857 188.973 80.039C188.973 78.7923 189.324 77.7893 190.027 77.03C190.741 76.2593 191.704 75.874 192.917 75.874C194.005 75.874 194.878 76.1517 195.535 76.707C196.204 77.251 196.583 77.982 196.674 78.9H194.821C194.617 77.982 193.982 77.523 192.917 77.523C192.26 77.523 191.744 77.744 191.37 78.186C191.007 78.6167 190.826 79.2343 190.826 80.039C190.826 80.8437 191.007 81.467 191.37 81.909C191.744 82.3397 192.26 82.555 192.917 82.555C193.971 82.555 194.606 82.1243 194.821 81.263H196.674C196.583 82.1583 196.204 82.8723 195.535 83.405C194.878 83.9377 194.005 84.204 192.917 84.204ZM205.262 83.031C204.514 83.813 203.5 84.204 202.219 84.204C200.939 84.204 199.919 83.813 199.159 83.031C198.411 82.2377 198.037 81.2403 198.037 80.039C198.037 78.8377 198.411 77.846 199.159 77.064C199.919 76.2707 200.939 75.874 202.219 75.874C203.5 75.874 204.514 76.2707 205.262 77.064C206.022 77.846 206.401 78.8377 206.401 80.039C206.401 81.2403 206.022 82.2377 205.262 83.031ZM200.502 81.858C200.922 82.3227 201.494 82.555 202.219 82.555C202.945 82.555 203.511 82.3227 203.919 81.858C204.339 81.3933 204.548 80.787 204.548 80.039C204.548 79.291 204.339 78.6847 203.919 78.22C203.511 77.7553 202.945 77.523 202.219 77.523C201.494 77.523 200.922 77.7553 200.502 78.22C200.094 78.6847 199.89 79.291 199.89 80.039C199.89 80.787 200.094 81.3933 200.502 81.858ZM211.682 82.436C212.056 82.436 212.368 82.4133 212.617 82.368V84C212.232 84.068 211.773 84.102 211.24 84.102C210.934 84.102 210.668 84.0793 210.441 84.034C210.215 83.9887 209.948 83.8867 209.642 83.728C209.336 83.558 209.098 83.269 208.928 82.861C208.758 82.453 208.673 81.9373 208.673 81.314V77.625H207.33V76.078H208.673V73.681H210.526V76.078H212.345V77.625H210.526V80.889C210.526 81.5237 210.617 81.943 210.798 82.147C210.98 82.3397 211.274 82.436 211.682 82.436ZM217.908 82.436C218.282 82.436 218.594 82.4133 218.843 82.368V84C218.458 84.068 217.999 84.102 217.466 84.102C217.16 84.102 216.894 84.0793 216.667 84.034C216.44 83.9887 216.174 83.8867 215.868 83.728C215.562 83.558 215.324 83.269 215.154 82.861C214.984 82.453 214.899 81.9373 214.899 81.314V77.625H213.556V76.078H214.899V73.681H216.752V76.078H218.571V77.625H216.752V80.889C216.752 81.5237 216.843 81.943 217.024 82.147C217.205 82.3397 217.5 82.436 217.908 82.436ZM222.824 83.711C222.541 83.9943 222.201 84.136 221.804 84.136C221.408 84.136 221.068 83.9943 220.784 83.711C220.512 83.4277 220.376 83.0877 220.376 82.691C220.376 82.2943 220.512 81.96 220.784 81.688C221.068 81.4047 221.408 81.263 221.804 81.263C222.201 81.263 222.541 81.4047 222.824 81.688C223.108 81.96 223.249 82.2943 223.249 82.691C223.249 83.0877 223.108 83.4277 222.824 83.711ZM228.477 84.204C227.265 84.204 226.301 83.8243 225.587 83.065C224.885 82.2943 224.533 81.2857 224.533 80.039C224.533 78.7923 224.885 77.7893 225.587 77.03C226.301 76.2593 227.265 75.874 228.477 75.874C229.565 75.874 230.438 76.1517 231.095 76.707C231.764 77.251 232.144 77.982 232.234 78.9H230.381C230.177 77.982 229.543 77.523 228.477 77.523C227.82 77.523 227.304 77.744 226.93 78.186C226.568 78.6167 226.386 79.2343 226.386 80.039C226.386 80.8437 226.568 81.467 226.93 81.909C227.304 82.3397 227.82 82.555 228.477 82.555C229.531 82.555 230.166 82.1243 230.381 81.263H232.234C232.144 82.1583 231.764 82.8723 231.095 83.405C230.438 83.9377 229.565 84.204 228.477 84.204ZM240.823 83.031C240.075 83.813 239.061 84.204 237.78 84.204C236.499 84.204 235.479 83.813 234.72 83.031C233.972 82.2377 233.598 81.2403 233.598 80.039C233.598 78.8377 233.972 77.846 234.72 77.064C235.479 76.2707 236.499 75.874 237.78 75.874C239.061 75.874 240.075 76.2707 240.823 77.064C241.582 77.846 241.962 78.8377 241.962 80.039C241.962 81.2403 241.582 82.2377 240.823 83.031ZM236.063 81.858C236.482 82.3227 237.055 82.555 237.78 82.555C238.505 82.555 239.072 82.3227 239.48 81.858C239.899 81.3933 240.109 80.787 240.109 80.039C240.109 79.291 239.899 78.6847 239.48 78.22C239.072 77.7553 238.505 77.523 237.78 77.523C237.055 77.523 236.482 77.7553 236.063 78.22C235.655 78.6847 235.451 79.291 235.451 80.039C235.451 80.787 235.655 81.3933 236.063 81.858ZM243.739 84V76.078H245.592V77.183C245.773 76.7977 246.062 76.486 246.459 76.248C246.855 75.9987 247.303 75.874 247.802 75.874C249.06 75.874 249.893 76.3443 250.301 77.285C250.493 76.877 250.811 76.5427 251.253 76.282C251.695 76.01 252.188 75.874 252.732 75.874C254.636 75.874 255.588 76.911 255.588 78.985V84H253.735V79.342C253.735 78.084 253.242 77.455 252.256 77.455C251.734 77.455 251.326 77.6307 251.032 77.982C250.737 78.322 250.59 78.9283 250.59 79.801V84H248.737V79.325C248.737 78.0783 248.255 77.455 247.292 77.455C246.759 77.455 246.34 77.6307 246.034 77.982C245.739 78.322 245.592 78.9283 245.592 79.801V84H243.739Z" fill="white"/>
<rect x="64" y="58" width="42" height="42" rx="11" fill="#2F2F2F"/>
<path d="M86.9497 76.7071L82.7071 80.9497M83.4142 73.1716L84.1213 72.4645C86.0739 70.5118 89.2398 70.5118 91.1924 72.4645C93.145 74.4171 93.145 77.5829 91.1924 79.5355L90.4853 80.2426M79.1716 77.4142L78.4645 78.1213C76.5118 80.0739 76.5118 83.2398 78.4645 85.1924C80.4171 87.145 83.5829 87.145 85.5355 85.1924L86.2426 84.4853" stroke="white" stroke-width="2" stroke-linecap="round" stroke-linejoin="round"/>
</g>
<rect x="45" y="126" width="299" height="75" rx="17" fill="url(#paint0_linear_4173_2641)" fill-opacity="0.1"/>
<path d="M120.275 169V157.1H122.145L125.953 166.212L129.744 157.1H131.614V169H129.744V161.129L126.684 169H125.205L122.145 161.044V169H120.275ZM136.007 159.548C135.746 159.809 135.417 159.939 135.021 159.939C134.624 159.939 134.295 159.809 134.035 159.548C133.774 159.276 133.644 158.947 133.644 158.562C133.644 158.177 133.774 157.854 134.035 157.593C134.295 157.321 134.624 157.185 135.021 157.185C135.417 157.185 135.746 157.321 136.007 157.593C136.267 157.854 136.398 158.177 136.398 158.562C136.398 158.947 136.267 159.276 136.007 159.548ZM134.086 169V161.078H135.939V169H134.086ZM141.668 169.204C140.455 169.204 139.492 168.824 138.778 168.065C138.075 167.294 137.724 166.286 137.724 165.039C137.724 163.792 138.075 162.789 138.778 162.03C139.492 161.259 140.455 160.874 141.668 160.874C142.756 160.874 143.629 161.152 144.286 161.707C144.955 162.251 145.334 162.982 145.425 163.9H143.572C143.368 162.982 142.733 162.523 141.668 162.523C141.011 162.523 140.495 162.744 140.121 163.186C139.758 163.617 139.577 164.234 139.577 165.039C139.577 165.844 139.758 166.467 140.121 166.909C140.495 167.34 141.011 167.555 141.668 167.555C142.722 167.555 143.357 167.124 143.572 166.263H145.425C145.334 167.158 144.955 167.872 144.286 168.405C143.629 168.938 142.756 169.204 141.668 169.204ZM151.654 160.874C153.581 160.874 154.544 161.922 154.544 164.019V169H152.691V164.869C152.691 164.008 152.561 163.39 152.3 163.016C152.04 162.642 151.592 162.455 150.957 162.455C150.357 162.455 149.892 162.648 149.563 163.033C149.235 163.407 149.07 163.945 149.07 164.648V169H147.217V157.1H149.07V162.183C149.58 161.31 150.442 160.874 151.654 160.874ZM160.144 169.204C158.909 169.204 157.951 168.813 157.271 168.031C156.591 167.249 156.251 166.252 156.251 165.039C156.251 163.838 156.608 162.846 157.322 162.064C158.036 161.271 158.994 160.874 160.195 160.874C160.728 160.874 161.215 160.987 161.657 161.214C162.099 161.441 162.439 161.752 162.677 162.149V161.078H164.53V169H162.677V167.929C162.451 168.314 162.094 168.626 161.606 168.864C161.13 169.091 160.643 169.204 160.144 169.204ZM160.416 167.555C161.176 167.555 161.754 167.317 162.15 166.841C162.558 166.365 162.762 165.764 162.762 165.039C162.762 164.314 162.558 163.713 162.15 163.237C161.754 162.761 161.176 162.523 160.416 162.523C159.702 162.523 159.136 162.761 158.716 163.237C158.308 163.702 158.104 164.302 158.104 165.039C158.104 165.776 158.308 166.382 158.716 166.858C159.136 167.323 159.702 167.555 160.416 167.555ZM174.081 164.631C174.081 164.835 174.064 165.175 174.03 165.651H168.148C168.17 166.274 168.374 166.756 168.76 167.096C169.145 167.425 169.678 167.589 170.358 167.589C171.23 167.589 171.82 167.289 172.126 166.688H173.996C173.871 167.425 173.469 168.031 172.789 168.507C172.12 168.972 171.31 169.204 170.358 169.204C169.111 169.204 168.125 168.83 167.4 168.082C166.674 167.334 166.312 166.32 166.312 165.039C166.312 163.77 166.669 162.761 167.383 162.013C168.108 161.254 169.077 160.874 170.29 160.874C171.423 160.874 172.335 161.225 173.027 161.928C173.729 162.619 174.081 163.52 174.081 164.631ZM168.148 164.24H172.262C172.25 163.628 172.069 163.158 171.718 162.829C171.378 162.5 170.89 162.336 170.256 162.336C169.61 162.336 169.1 162.512 168.726 162.863C168.352 163.214 168.159 163.673 168.148 164.24ZM175.872 169V157.1H177.725V169H175.872ZM183.76 169.289C182.377 169.289 181.306 168.926 180.547 168.201C179.799 167.476 179.425 166.444 179.425 165.107H181.38C181.38 165.878 181.59 166.484 182.009 166.926C182.428 167.368 183.006 167.589 183.743 167.589C184.389 167.589 184.882 167.447 185.222 167.164C185.573 166.869 185.749 166.456 185.749 165.923C185.749 165.47 185.619 165.107 185.358 164.835C185.109 164.563 184.65 164.291 183.981 164.019L182.043 163.237C180.524 162.648 179.765 161.594 179.765 160.075C179.765 159.112 180.116 158.33 180.819 157.729C181.533 157.117 182.451 156.811 183.573 156.811C184.752 156.811 185.698 157.151 186.412 157.831C187.137 158.511 187.5 159.412 187.5 160.534H185.545C185.545 159.877 185.369 159.372 185.018 159.021C184.667 158.658 184.162 158.477 183.505 158.477C182.95 158.477 182.513 158.613 182.196 158.885C181.89 159.146 181.737 159.503 181.737 159.956C181.737 160.364 181.89 160.715 182.196 161.01C182.502 161.305 183.006 161.594 183.709 161.877L185.46 162.591C186.956 163.203 187.704 164.297 187.704 165.872C187.704 166.892 187.341 167.719 186.616 168.354C185.891 168.977 184.939 169.289 183.76 169.289ZM192.917 169.204C191.704 169.204 190.741 168.824 190.027 168.065C189.324 167.294 188.973 166.286 188.973 165.039C188.973 163.792 189.324 162.789 190.027 162.03C190.741 161.259 191.704 160.874 192.917 160.874C194.005 160.874 194.878 161.152 195.535 161.707C196.204 162.251 196.583 162.982 196.674 163.9H194.821C194.617 162.982 193.982 162.523 192.917 162.523C192.26 162.523 191.744 162.744 191.37 163.186C191.007 163.617 190.826 164.234 190.826 165.039C190.826 165.844 191.007 166.467 191.37 166.909C191.744 167.34 192.26 167.555 192.917 167.555C193.971 167.555 194.606 167.124 194.821 166.263H196.674C196.583 167.158 196.204 167.872 195.535 168.405C194.878 168.938 194.005 169.204 192.917 169.204ZM205.262 168.031C204.514 168.813 203.5 169.204 202.219 169.204C200.939 169.204 199.919 168.813 199.159 168.031C198.411 167.238 198.037 166.24 198.037 165.039C198.037 163.838 198.411 162.846 199.159 162.064C199.919 161.271 200.939 160.874 202.219 160.874C203.5 160.874 204.514 161.271 205.262 162.064C206.022 162.846 206.401 163.838 206.401 165.039C206.401 166.24 206.022 167.238 205.262 168.031ZM200.502 166.858C200.922 167.323 201.494 167.555 202.219 167.555C202.945 167.555 203.511 167.323 203.919 166.858C204.339 166.393 204.548 165.787 204.548 165.039C204.548 164.291 204.339 163.685 203.919 163.22C203.511 162.755 202.945 162.523 202.219 162.523C201.494 162.523 200.922 162.755 200.502 163.22C200.094 163.685 199.89 164.291 199.89 165.039C199.89 165.787 200.094 166.393 200.502 166.858ZM211.682 167.436C212.056 167.436 212.368 167.413 212.617 167.368V169C212.232 169.068 211.773 169.102 211.24 169.102C210.934 169.102 210.668 169.079 210.441 169.034C210.215 168.989 209.948 168.887 209.642 168.728C209.336 168.558 209.098 168.269 208.928 167.861C208.758 167.453 208.673 166.937 208.673 166.314V162.625H207.33V161.078H208.673V158.681H210.526V161.078H212.345V162.625H210.526V165.889C210.526 166.524 210.617 166.943 210.798 167.147C210.98 167.34 211.274 167.436 211.682 167.436ZM217.908 167.436C218.282 167.436 218.594 167.413 218.843 167.368V169C218.458 169.068 217.999 169.102 217.466 169.102C217.16 169.102 216.894 169.079 216.667 169.034C216.44 168.989 216.174 168.887 215.868 168.728C215.562 168.558 215.324 168.269 215.154 167.861C214.984 167.453 214.899 166.937 214.899 166.314V162.625H213.556V161.078H214.899V158.681H216.752V161.078H218.571V162.625H216.752V165.889C216.752 166.524 216.843 166.943 217.024 167.147C217.205 167.34 217.5 167.436 217.908 167.436ZM222.824 168.711C222.541 168.994 222.201 169.136 221.804 169.136C221.408 169.136 221.068 168.994 220.784 168.711C220.512 168.428 220.376 168.088 220.376 167.691C220.376 167.294 220.512 166.96 220.784 166.688C221.068 166.405 221.408 166.263 221.804 166.263C222.201 166.263 222.541 166.405 222.824 166.688C223.108 166.96 223.249 167.294 223.249 167.691C223.249 168.088 223.108 168.428 222.824 168.711ZM228.477 169.204C227.265 169.204 226.301 168.824 225.587 168.065C224.885 167.294 224.533 166.286 224.533 165.039C224.533 163.792 224.885 162.789 225.587 162.03C226.301 161.259 227.265 160.874 228.477 160.874C229.565 160.874 230.438 161.152 231.095 161.707C231.764 162.251 232.144 162.982 232.234 163.9H230.381C230.177 162.982 229.543 162.523 228.477 162.523C227.82 162.523 227.304 162.744 226.93 163.186C226.568 163.617 226.386 164.234 226.386 165.039C226.386 165.844 226.568 166.467 226.93 166.909C227.304 167.34 227.82 167.555 228.477 167.555C229.531 167.555 230.166 167.124 230.381 166.263H232.234C232.144 167.158 231.764 167.872 231.095 168.405C230.438 168.938 229.565 169.204 228.477 169.204ZM240.823 168.031C240.075 168.813 239.061 169.204 237.78 169.204C236.499 169.204 235.479 168.813 234.72 168.031C233.972 167.238 233.598 166.24 233.598 165.039C233.598 163.838 233.972 162.846 234.72 162.064C235.479 161.271 236.499 160.874 237.78 160.874C239.061 160.874 240.075 161.271 240.823 162.064C241.582 162.846 241.962 163.838 241.962 165.039C241.962 166.24 241.582 167.238 240.823 168.031ZM236.063 166.858C236.482 167.323 237.055 167.555 237.78 167.555C238.505 167.555 239.072 167.323 239.48 166.858C239.899 166.393 240.109 165.787 240.109 165.039C240.109 164.291 239.899 163.685 239.48 163.22C239.072 162.755 238.505 162.523 237.78 162.523C237.055 162.523 236.482 162.755 236.063 163.22C235.655 163.685 235.451 164.291 235.451 165.039C235.451 165.787 235.655 166.393 236.063 166.858ZM243.739 169V161.078H245.592V162.183C245.773 161.798 246.062 161.486 246.459 161.248C246.855 160.999 247.303 160.874 247.802 160.874C249.06 160.874 249.893 161.344 250.301 162.285C250.493 161.877 250.811 161.543 251.253 161.282C251.695 161.01 252.188 160.874 252.732 160.874C254.636 160.874 255.588 161.911 255.588 163.985V169H253.735V164.342C253.735 163.084 253.242 162.455 252.256 162.455C251.734 162.455 251.326 162.631 251.032 162.982C250.737 163.322 250.59 163.928 250.59 164.801V169H248.737V164.325C248.737 163.078 248.255 162.455 247.292 162.455C246.759 162.455 246.34 162.631 246.034 162.982C245.739 163.322 245.592 163.928 245.592 164.801V169H243.739ZM258.359 170.173L256.863 169.527L262.694 156.012L264.19 156.658L258.359 170.173ZM268.697 160.874C269.83 160.874 270.743 161.259 271.434 162.03C272.125 162.789 272.471 163.792 272.471 165.039C272.471 166.263 272.108 167.266 271.383 168.048C270.658 168.819 269.723 169.204 268.578 169.204C268.057 169.204 267.564 169.091 267.099 168.864C266.634 168.626 266.283 168.314 266.045 167.929V172.57H264.192V161.078H266.045V162.149C266.283 161.764 266.646 161.458 267.133 161.231C267.62 160.993 268.142 160.874 268.697 160.874ZM268.306 167.555C268.986 167.555 269.541 167.323 269.972 166.858C270.403 166.382 270.618 165.776 270.618 165.039C270.618 164.302 270.403 163.702 269.972 163.237C269.541 162.761 268.986 162.523 268.306 162.523C267.603 162.523 267.037 162.755 266.606 163.22C266.175 163.685 265.96 164.291 265.96 165.039C265.96 165.787 266.175 166.393 266.606 166.858C267.037 167.323 267.603 167.555 268.306 167.555ZM280.883 168.031C280.135 168.813 279.12 169.204 277.84 169.204C276.559 169.204 275.539 168.813 274.78 168.031C274.032 167.238 273.658 166.24 273.658 165.039C273.658 163.838 274.032 162.846 274.78 162.064C275.539 161.271 276.559 160.874 277.84 160.874C279.12 160.874 280.135 161.271 280.883 162.064C281.642 162.846 282.022 163.838 282.022 165.039C282.022 166.24 281.642 167.238 280.883 168.031ZM276.123 166.858C276.542 167.323 277.114 167.555 277.84 167.555C278.565 167.555 279.132 167.323 279.54 166.858C279.959 166.393 280.169 165.787 280.169 165.039C280.169 164.291 279.959 163.685 279.54 163.22C279.132 162.755 278.565 162.523 277.84 162.523C277.114 162.523 276.542 162.755 276.123 163.22C275.715 163.685 275.511 164.291 275.511 165.039C275.511 165.787 275.715 166.393 276.123 166.858ZM286.569 169.204C285.572 169.204 284.762 168.949 284.138 168.439C283.515 167.929 283.203 167.306 283.203 166.569H285.056C285.056 166.909 285.204 167.187 285.498 167.402C285.804 167.617 286.195 167.725 286.671 167.725C287.023 167.725 287.3 167.64 287.504 167.47C287.708 167.3 287.81 167.073 287.81 166.79C287.81 166.337 287.612 166.059 287.215 165.957L285.175 165.396C284.031 165.079 283.458 164.348 283.458 163.203C283.458 162.546 283.742 161.996 284.308 161.554C284.875 161.101 285.606 160.874 286.501 160.874C287.51 160.874 288.281 161.101 288.813 161.554C289.357 162.007 289.629 162.602 289.629 163.339H287.81C287.81 163.01 287.686 162.755 287.436 162.574C287.198 162.381 286.864 162.285 286.433 162.285C286.105 162.285 285.833 162.364 285.617 162.523C285.402 162.67 285.294 162.863 285.294 163.101C285.294 163.532 285.521 163.815 285.974 163.951L287.861 164.495C288.405 164.654 288.847 164.926 289.187 165.311C289.527 165.685 289.697 166.121 289.697 166.62C289.697 167.391 289.42 168.014 288.864 168.49C288.32 168.966 287.555 169.204 286.569 169.204ZM294.989 167.436C295.363 167.436 295.675 167.413 295.924 167.368V169C295.539 169.068 295.08 169.102 294.547 169.102C294.241 169.102 293.975 169.079 293.748 169.034C293.521 168.989 293.255 168.887 292.949 168.728C292.643 168.558 292.405 168.269 292.235 167.861C292.065 167.453 291.98 166.937 291.98 166.314V162.625H290.637V161.078H291.98V158.681H293.833V161.078H295.652V162.625H293.833V165.889C293.833 166.524 293.924 166.943 294.105 167.147C294.286 167.34 294.581 167.436 294.989 167.436ZM300.315 169.204C299.318 169.204 298.508 168.949 297.884 168.439C297.261 167.929 296.949 167.306 296.949 166.569H298.802C298.802 166.909 298.95 167.187 299.244 167.402C299.55 167.617 299.941 167.725 300.417 167.725C300.769 167.725 301.046 167.64 301.25 167.47C301.454 167.3 301.556 167.073 301.556 166.79C301.556 166.337 301.358 166.059 300.961 165.957L298.921 165.396C297.777 165.079 297.204 164.348 297.204 163.203C297.204 162.546 297.488 161.996 298.054 161.554C298.621 161.101 299.352 160.874 300.247 160.874C301.256 160.874 302.027 161.101 302.559 161.554C303.103 162.007 303.375 162.602 303.375 163.339H301.556C301.556 163.01 301.432 162.755 301.182 162.574C300.944 162.381 300.61 162.285 300.179 162.285C299.851 162.285 299.579 162.364 299.363 162.523C299.148 162.67 299.04 162.863 299.04 163.101C299.04 163.532 299.267 163.815 299.72 163.951L301.607 164.495C302.151 164.654 302.593 164.926 302.933 165.311C303.273 165.685 303.443 166.121 303.443 166.62C303.443 167.391 303.166 168.014 302.61 168.49C302.066 168.966 301.301 169.204 300.315 169.204Z" fill="white"/>
<rect x="64" y="143" width="42" height="42" rx="11" fill="#2F2F2F" fill-opacity="0.1"/>
<path d="M86.9497 161.707L82.7071 165.95M83.4142 158.172L84.1213 157.464C86.0739 155.512 89.2398 155.512 91.1924 157.464C93.145 159.417 93.145 162.583 91.1924 164.536L90.4853 165.243M79.1716 162.414L78.4645 163.121C76.5118 165.074 76.5118 168.24 78.4645 170.192C80.4171 172.145 83.5829 172.145 85.5355 170.192L86.2426 169.485" stroke="white" stroke-width="2" stroke-linecap="round" stroke-linejoin="round"/>
<path d="M350.519 113.933L324.339 103.879C320.296 102.327 316.326 106.297 317.879 110.339L327.933 136.519C329.23 139.898 333.577 140.822 336.136 138.262L338.535 135.864L339.953 134.446L343.484 137.978C345.829 140.323 349.632 140.323 351.977 137.978C354.322 135.632 354.322 131.83 351.977 129.485L348.445 125.953L349.863 124.535L352.262 122.136C354.821 119.577 353.898 115.231 350.519 113.933Z" fill="black" stroke="white" stroke-width="4"/>
<defs>
<filter id="filter0_d_4173_2641" x="25" y="21" width="339" height="115" filterUnits="userSpaceOnUse" color-interpolation-filters="sRGB">
<feFlood flood-opacity="0" result="BackgroundImageFix"/>
<feColorMatrix in="SourceAlpha" type="matrix" values="0 0 0 0 0 0 0 0 0 0 0 0 0 0 0 0 0 0 127 0" result="hardAlpha"/>
<feOffset/>
<feGaussianBlur stdDeviation="10"/>
<feComposite in2="hardAlpha" operator="out"/>
<feColorMatrix type="matrix" values="0 0 0 0 0 0 0 0 0 0 0 0 0 0 0 0 0 0 0.2 0"/>
<feBlend mode="normal" in2="BackgroundImageFix" result="effect1_dropShadow_4173_2641"/>
<feBlend mode="normal" in="SourceGraphic" in2="effect1_dropShadow_4173_2641" result="shape"/>
</filter>
<linearGradient id="paint0_linear_4173_2641" x1="194.5" y1="126" x2="194.5" y2="201" gradientUnits="userSpaceOnUse">
<stop/>
<stop offset="1" stop-opacity="0"/>
</linearGradient>
</defs>
</svg>
