<svg width="389" height="242" viewBox="0 0 389 242" fill="none" xmlns="http://www.w3.org/2000/svg">
<g clip-path="url(#clip0_4175_2747)">
<g clip-path="url(#clip1_4175_2747)">
<rect x="-54" y="-66" width="625" height="352" rx="24" fill="#272727"/>
<path d="M98.693 24.323C97.3377 24.323 96.28 23.8987 95.52 23.05C94.76 22.2013 94.38 21.074 94.38 19.668H96.565C96.565 20.4913 96.7423 21.15 97.097 21.644C97.4643 22.1253 97.9963 22.366 98.693 22.366C99.3897 22.366 99.9217 22.1253 100.289 21.644C100.669 21.15 100.859 20.4977 100.859 19.687V10.7H103.044V19.687C103.044 21.093 102.658 22.2203 101.885 23.069C101.125 23.905 100.061 24.323 98.693 24.323ZM112.927 22.917C112.091 23.791 110.957 24.228 109.526 24.228C108.094 24.228 106.954 23.791 106.106 22.917C105.27 22.0303 104.852 20.9157 104.852 19.573C104.852 18.2303 105.27 17.122 106.106 16.248C106.954 15.3613 108.094 14.918 109.526 14.918C110.957 14.918 112.091 15.3613 112.927 16.248C113.775 17.122 114.2 18.2303 114.2 19.573C114.2 20.9157 113.775 22.0303 112.927 22.917ZM107.607 21.606C108.075 22.1253 108.715 22.385 109.526 22.385C110.336 22.385 110.97 22.1253 111.426 21.606C111.894 21.0867 112.129 20.409 112.129 19.573C112.129 18.737 111.894 18.0593 111.426 17.54C110.97 17.0207 110.336 16.761 109.526 16.761C108.715 16.761 108.075 17.0207 107.607 17.54C107.151 18.0593 106.923 18.737 106.923 19.573C106.923 20.409 107.151 21.0867 107.607 21.606ZM118.332 13.436C118.041 13.7273 117.674 13.873 117.23 13.873C116.787 13.873 116.42 13.7273 116.128 13.436C115.837 13.132 115.691 12.7647 115.691 12.334C115.691 11.9033 115.837 11.5423 116.128 11.251C116.42 10.947 116.787 10.795 117.23 10.795C117.674 10.795 118.041 10.947 118.332 11.251C118.624 11.5423 118.769 11.9033 118.769 12.334C118.769 12.7647 118.624 13.132 118.332 13.436ZM116.185 24V15.146H118.256V24H116.185ZM120.917 24V15.146H122.988V16.381C123.558 15.4057 124.521 14.918 125.876 14.918C128.029 14.918 129.106 16.0897 129.106 18.433V24H127.035V19.383C127.035 18.4203 126.889 17.73 126.598 17.312C126.307 16.894 125.806 16.685 125.097 16.685C124.426 16.685 123.906 16.9003 123.539 17.331C123.172 17.749 122.988 18.3507 122.988 19.136V24H120.917ZM136.429 24V15.146H138.5V16.381C138.702 15.9503 139.025 15.602 139.469 15.336C139.912 15.0573 140.412 14.918 140.97 14.918C142.376 14.918 143.307 15.4437 143.763 16.495C143.978 16.039 144.333 15.6653 144.827 15.374C145.321 15.07 145.872 14.918 146.48 14.918C148.608 14.918 149.672 16.077 149.672 18.395V24H147.601V18.794C147.601 17.388 147.05 16.685 145.948 16.685C145.365 16.685 144.909 16.8813 144.58 17.274C144.25 17.654 144.086 18.3317 144.086 19.307V24H142.015V18.775C142.015 17.3817 141.476 16.685 140.4 16.685C139.804 16.685 139.336 16.8813 138.994 17.274C138.664 17.654 138.5 18.3317 138.5 19.307V24H136.429ZM158.26 15.146H160.331V24.038C160.331 25.3933 159.945 26.4447 159.172 27.192C158.425 27.876 157.424 28.218 156.17 28.218C154.866 28.218 153.852 27.914 153.13 27.306C152.497 26.7487 152.168 25.9823 152.142 25.007H154.232C154.283 25.5137 154.448 25.8873 154.726 26.128C155.018 26.3813 155.486 26.508 156.132 26.508C156.791 26.508 157.31 26.2927 157.69 25.862C158.07 25.444 158.26 24.7853 158.26 23.886V22.765C157.69 23.7403 156.74 24.228 155.41 24.228C154.359 24.228 153.548 23.8923 152.978 23.221C152.421 22.537 152.142 21.644 152.142 20.542V15.146H154.213V20.105C154.213 21.6377 154.853 22.404 156.132 22.404C156.829 22.404 157.355 22.157 157.709 21.663C158.077 21.169 158.26 20.523 158.26 19.725V15.146ZM167.749 24V15.146H169.82V16.381C170.39 15.4057 171.353 14.918 172.708 14.918C174.861 14.918 175.938 16.0897 175.938 18.433V24H173.867V19.383C173.867 18.4203 173.721 17.73 173.43 17.312C173.139 16.894 172.638 16.685 171.929 16.685C171.258 16.685 170.738 16.9003 170.371 17.331C170.004 17.749 169.82 18.3507 169.82 19.136V24H167.749ZM186.529 19.117C186.529 19.345 186.51 19.725 186.472 20.257H179.898C179.923 20.9537 180.151 21.492 180.582 21.872C181.012 22.2393 181.608 22.423 182.368 22.423C183.343 22.423 184.002 22.0873 184.344 21.416H186.434C186.294 22.2393 185.845 22.917 185.085 23.449C184.337 23.9683 183.432 24.228 182.368 24.228C180.974 24.228 179.872 23.81 179.062 22.974C178.251 22.138 177.846 21.0043 177.846 19.573C177.846 18.1543 178.245 17.027 179.043 16.191C179.853 15.3423 180.936 14.918 182.292 14.918C183.558 14.918 184.578 15.3107 185.351 16.096C186.136 16.8687 186.529 17.8757 186.529 19.117ZM179.898 18.68H184.496C184.483 17.996 184.28 17.4703 183.888 17.103C183.508 16.7357 182.963 16.552 182.254 16.552C181.532 16.552 180.962 16.7483 180.544 17.141C180.126 17.5337 179.91 18.0467 179.898 18.68ZM190.192 24L186.924 15.146H189.204L191.047 20.998L192.966 15.146H195.208L197.127 20.998L198.97 15.146H201.25L197.982 24H196.234L194.087 17.692L191.94 24H190.192ZM205.58 24.228C204.466 24.228 203.56 23.943 202.863 23.373C202.167 22.803 201.818 22.1063 201.818 21.283H203.889C203.889 21.663 204.054 21.9733 204.383 22.214C204.725 22.4547 205.162 22.575 205.694 22.575C206.087 22.575 206.397 22.48 206.625 22.29C206.853 22.1 206.967 21.8467 206.967 21.53C206.967 21.0233 206.746 20.713 206.302 20.599L204.022 19.972C202.743 19.6173 202.103 18.8003 202.103 17.521C202.103 16.7863 202.42 16.172 203.053 15.678C203.687 15.1713 204.504 14.918 205.504 14.918C206.632 14.918 207.493 15.1713 208.088 15.678C208.696 16.1847 209 16.8497 209 17.673H206.967C206.967 17.3057 206.828 17.0207 206.549 16.818C206.283 16.6027 205.91 16.495 205.428 16.495C205.061 16.495 204.757 16.5837 204.516 16.761C204.276 16.9257 204.155 17.141 204.155 17.407C204.155 17.8883 204.409 18.205 204.915 18.357L207.024 18.965C207.632 19.1423 208.126 19.4463 208.506 19.877C208.886 20.295 209.076 20.7827 209.076 21.34C209.076 22.2013 208.766 22.898 208.145 23.43C207.537 23.962 206.682 24.228 205.58 24.228ZM211.167 24V10.7H213.238V24H211.167ZM223.916 19.117C223.916 19.345 223.897 19.725 223.859 20.257H217.285C217.311 20.9537 217.539 21.492 217.969 21.872C218.4 22.2393 218.995 22.423 219.755 22.423C220.731 22.423 221.389 22.0873 221.731 21.416H223.821C223.682 22.2393 223.232 22.917 222.472 23.449C221.725 23.9683 220.819 24.228 219.755 24.228C218.362 24.228 217.26 23.81 216.449 22.974C215.639 22.138 215.233 21.0043 215.233 19.573C215.233 18.1543 215.632 17.027 216.43 16.191C217.241 15.3423 218.324 14.918 219.679 14.918C220.946 14.918 221.966 15.3107 222.738 16.096C223.524 16.8687 223.916 17.8757 223.916 19.117ZM217.285 18.68H221.883C221.871 17.996 221.668 17.4703 221.275 17.103C220.895 16.7357 220.351 16.552 219.641 16.552C218.919 16.552 218.349 16.7483 217.931 17.141C217.513 17.5337 217.298 18.0467 217.285 18.68ZM229.834 22.252C230.252 22.252 230.6 22.2267 230.879 22.176V24C230.448 24.076 229.935 24.114 229.34 24.114C228.998 24.114 228.7 24.0887 228.447 24.038C228.194 23.9873 227.896 23.8733 227.554 23.696C227.212 23.506 226.946 23.183 226.756 22.727C226.566 22.271 226.471 21.6947 226.471 20.998V16.875H224.97V15.146H226.471V12.467H228.542V15.146H230.575V16.875H228.542V20.523C228.542 21.2323 228.643 21.701 228.846 21.929C229.049 22.1443 229.378 22.252 229.834 22.252ZM236.792 22.252C237.21 22.252 237.558 22.2267 237.837 22.176V24C237.406 24.076 236.893 24.114 236.298 24.114C235.956 24.114 235.658 24.0887 235.405 24.038C235.152 23.9873 234.854 23.8733 234.512 23.696C234.17 23.506 233.904 23.183 233.714 22.727C233.524 22.271 233.429 21.6947 233.429 20.998V16.875H231.928V15.146H233.429V12.467H235.5V15.146H237.533V16.875H235.5V20.523C235.5 21.2323 235.601 21.701 235.804 21.929C236.007 22.1443 236.336 22.252 236.792 22.252ZM247.666 19.117C247.666 19.345 247.647 19.725 247.609 20.257H241.035C241.061 20.9537 241.289 21.492 241.719 21.872C242.15 22.2393 242.745 22.423 243.505 22.423C244.481 22.423 245.139 22.0873 245.481 21.416H247.571C247.432 22.2393 246.982 22.917 246.222 23.449C245.475 23.9683 244.569 24.228 243.505 24.228C242.112 24.228 241.01 23.81 240.199 22.974C239.389 22.138 238.983 21.0043 238.983 19.573C238.983 18.1543 239.382 17.027 240.18 16.191C240.991 15.3423 242.074 14.918 243.429 14.918C244.696 14.918 245.716 15.3107 246.488 16.096C247.274 16.8687 247.666 17.8757 247.666 19.117ZM241.035 18.68H245.633C245.621 17.996 245.418 17.4703 245.025 17.103C244.645 16.7357 244.101 16.552 243.391 16.552C242.669 16.552 242.099 16.7483 241.681 17.141C241.263 17.5337 241.048 18.0467 241.035 18.68ZM249.668 24V15.146H251.739V16.856C251.891 16.2607 252.189 15.811 252.632 15.507C253.075 15.1903 253.563 15.032 254.095 15.032C254.437 15.032 254.709 15.0573 254.912 15.108V17.008C254.697 16.9827 254.424 16.97 254.095 16.97C253.36 16.97 252.784 17.2423 252.366 17.787C251.948 18.319 251.739 19.0853 251.739 20.086V24H249.668Z" fill="white"/>
<circle cx="64.5" cy="17.5" r="21.5" fill="#1A1A1A"/>
<path d="M68 13V18.5C68 19.8807 69.1193 21 70.5 21C72.6808 21 73 18.7332 73 17C73 12.0294 68.9706 8 64 8C59.0294 8 55 12.0294 55 17C55 21.9706 59.0294 26 64 26C65.0519 26 66.0617 25.8195 67 25.4879M68 17C68 19.2091 66.2091 21 64 21C61.7909 21 60 19.2091 60 17C60 14.7909 61.7909 13 64 13C66.2091 13 68 14.7909 68 17Z" stroke="white" stroke-width="2" stroke-linecap="round" stroke-linejoin="round"/>
<rect x="43.5" y="52" width="295" height="40" rx="20" fill="#33362F"/>
<path d="M69.55 77V67.2H75.206V68.642H71.16V71.75H75.206V73.192H71.16V77H69.55ZM78.4722 69.216C78.2575 69.4307 77.9868 69.538 77.6602 69.538C77.3335 69.538 77.0628 69.4307 76.8482 69.216C76.6335 68.992 76.5262 68.7213 76.5262 68.404C76.5262 68.0867 76.6335 67.8207 76.8482 67.606C77.0628 67.382 77.3335 67.27 77.6602 67.27C77.9868 67.27 78.2575 67.382 78.4722 67.606C78.6868 67.8207 78.7942 68.0867 78.7942 68.404C78.7942 68.7213 78.6868 68.992 78.4722 69.216ZM76.8902 77V70.476H78.4162V77H76.8902ZM80.3765 77V70.476H81.9025V71.736C82.0145 71.2973 82.2338 70.966 82.5605 70.742C82.8872 70.5087 83.2465 70.392 83.6385 70.392C83.8905 70.392 84.0912 70.4107 84.2405 70.448V71.848C84.0818 71.8293 83.8812 71.82 83.6385 71.82C83.0972 71.82 82.6725 72.0207 82.3645 72.422C82.0565 72.814 81.9025 73.3787 81.9025 74.116V77H80.3765ZM87.6487 77.168C86.8274 77.168 86.1601 76.958 85.6467 76.538C85.1334 76.118 84.8767 75.6047 84.8767 74.998H86.4027C86.4027 75.278 86.5241 75.5067 86.7667 75.684C87.0187 75.8613 87.3407 75.95 87.7327 75.95C88.0221 75.95 88.2507 75.88 88.4187 75.74C88.5867 75.6 88.6707 75.4133 88.6707 75.18C88.6707 74.8067 88.5074 74.578 88.1807 74.494L86.5007 74.032C85.5581 73.7707 85.0867 73.1687 85.0867 72.226C85.0867 71.6847 85.3201 71.232 85.7867 70.868C86.2534 70.4947 86.8554 70.308 87.5927 70.308C88.4234 70.308 89.0581 70.4947 89.4967 70.868C89.9447 71.2413 90.1687 71.7313 90.1687 72.338H88.6707C88.6707 72.0673 88.5681 71.8573 88.3627 71.708C88.1667 71.5493 87.8914 71.47 87.5367 71.47C87.2661 71.47 87.0421 71.5353 86.8647 71.666C86.6874 71.7873 86.5987 71.946 86.5987 72.142C86.5987 72.4967 86.7854 72.73 87.1587 72.842L88.7127 73.29C89.1607 73.4207 89.5247 73.6447 89.8047 73.962C90.0847 74.27 90.2247 74.6293 90.2247 75.04C90.2247 75.6747 89.9961 76.188 89.5387 76.58C89.0907 76.972 88.4607 77.168 87.6487 77.168ZM94.5824 75.712C94.8904 75.712 95.1471 75.6933 95.3524 75.656V77C95.0351 77.056 94.6571 77.084 94.2184 77.084C93.9664 77.084 93.7471 77.0653 93.5604 77.028C93.3738 76.9907 93.1544 76.9067 92.9024 76.776C92.6504 76.636 92.4544 76.398 92.3144 76.062C92.1744 75.726 92.1044 75.3013 92.1044 74.788V71.75H90.9984V70.476H92.1044V68.502H93.6304V70.476H95.1284V71.75H93.6304V74.438C93.6304 74.9607 93.7051 75.306 93.8544 75.474C94.0038 75.6327 94.2464 75.712 94.5824 75.712ZM100.325 77V67.2H102.019L105.897 74.312V67.2H107.437V77H105.743L101.865 69.888V77H100.325ZM112.186 77.168C111.169 77.168 110.38 76.846 109.82 76.202C109.26 75.558 108.98 74.7367 108.98 73.738C108.98 72.7487 109.274 71.932 109.862 71.288C110.45 70.6347 111.239 70.308 112.228 70.308C112.667 70.308 113.068 70.4013 113.432 70.588C113.796 70.7747 114.076 71.0313 114.272 71.358V70.476H115.798V77H114.272V76.118C114.086 76.4353 113.792 76.692 113.39 76.888C112.998 77.0747 112.597 77.168 112.186 77.168ZM112.41 75.81C113.036 75.81 113.512 75.614 113.838 75.222C114.174 74.83 114.342 74.3353 114.342 73.738C114.342 73.1407 114.174 72.646 113.838 72.254C113.512 71.862 113.036 71.666 112.41 71.666C111.822 71.666 111.356 71.862 111.01 72.254C110.674 72.6367 110.506 73.1313 110.506 73.738C110.506 74.3447 110.674 74.844 111.01 75.236C111.356 75.6187 111.822 75.81 112.41 75.81ZM117.755 77V70.476H119.281V71.386C119.431 71.0687 119.669 70.812 119.995 70.616C120.322 70.4107 120.691 70.308 121.101 70.308C122.137 70.308 122.823 70.6953 123.159 71.47C123.318 71.134 123.579 70.8587 123.943 70.644C124.307 70.42 124.713 70.308 125.161 70.308C126.729 70.308 127.513 71.162 127.513 72.87V77H125.987V73.164C125.987 72.128 125.581 71.61 124.769 71.61C124.34 71.61 124.004 71.7547 123.761 72.044C123.519 72.324 123.397 72.8233 123.397 73.542V77H121.871V73.15C121.871 72.1233 121.475 71.61 120.681 71.61C120.243 71.61 119.897 71.7547 119.645 72.044C119.403 72.324 119.281 72.8233 119.281 73.542V77H117.755ZM135.312 73.402C135.312 73.57 135.298 73.85 135.27 74.242H130.426C130.444 74.7553 130.612 75.152 130.93 75.432C131.247 75.7027 131.686 75.838 132.246 75.838C132.964 75.838 133.45 75.5907 133.702 75.096H135.242C135.139 75.7027 134.808 76.202 134.248 76.594C133.697 76.9767 133.03 77.168 132.246 77.168C131.219 77.168 130.407 76.86 129.81 76.244C129.212 75.628 128.914 74.7927 128.914 73.738C128.914 72.6927 129.208 71.862 129.796 71.246C130.393 70.6207 131.191 70.308 132.19 70.308C133.123 70.308 133.874 70.5973 134.444 71.176C135.022 71.7453 135.312 72.4873 135.312 73.402ZM130.426 73.08H133.814C133.804 72.576 133.655 72.1887 133.366 71.918C133.086 71.6473 132.684 71.512 132.162 71.512C131.63 71.512 131.21 71.6567 130.902 71.946C130.594 72.2353 130.435 72.6133 130.426 73.08Z" fill="white" fill-opacity="0.83"/>
<rect x="43" y="51.5" width="296" height="41" rx="20.5" stroke="white" stroke-opacity="0.65"/>
<rect x="43" y="148" width="295" height="40" rx="20" fill="white"/>
<path d="M180.458 173.238C179.459 173.238 178.68 172.925 178.12 172.3C177.56 171.675 177.28 170.844 177.28 169.808H178.89C178.89 170.415 179.021 170.9 179.282 171.264C179.553 171.619 179.945 171.796 180.458 171.796C180.971 171.796 181.363 171.619 181.634 171.264C181.914 170.9 182.054 170.419 182.054 169.822V163.2H183.664V169.822C183.664 170.858 183.379 171.689 182.81 172.314C182.25 172.93 181.466 173.238 180.458 173.238ZM190.946 172.202C190.33 172.846 189.495 173.168 188.44 173.168C187.385 173.168 186.545 172.846 185.92 172.202C185.304 171.549 184.996 170.727 184.996 169.738C184.996 168.749 185.304 167.932 185.92 167.288C186.545 166.635 187.385 166.308 188.44 166.308C189.495 166.308 190.33 166.635 190.946 167.288C191.571 167.932 191.884 168.749 191.884 169.738C191.884 170.727 191.571 171.549 190.946 172.202ZM187.026 171.236C187.371 171.619 187.843 171.81 188.44 171.81C189.037 171.81 189.504 171.619 189.84 171.236C190.185 170.853 190.358 170.354 190.358 169.738C190.358 169.122 190.185 168.623 189.84 168.24C189.504 167.857 189.037 167.666 188.44 167.666C187.843 167.666 187.371 167.857 187.026 168.24C186.69 168.623 186.522 169.122 186.522 169.738C186.522 170.354 186.69 170.853 187.026 171.236ZM194.929 165.216C194.715 165.431 194.444 165.538 194.117 165.538C193.791 165.538 193.52 165.431 193.305 165.216C193.091 164.992 192.983 164.721 192.983 164.404C192.983 164.087 193.091 163.821 193.305 163.606C193.52 163.382 193.791 163.27 194.117 163.27C194.444 163.27 194.715 163.382 194.929 163.606C195.144 163.821 195.251 164.087 195.251 164.404C195.251 164.721 195.144 164.992 194.929 165.216ZM193.347 173V166.476H194.873V173H193.347ZM196.834 173V166.476H198.36V167.386C198.78 166.667 199.489 166.308 200.488 166.308C202.074 166.308 202.868 167.171 202.868 168.898V173H201.342V169.598C201.342 168.889 201.234 168.38 201.02 168.072C200.805 167.764 200.436 167.61 199.914 167.61C199.419 167.61 199.036 167.769 198.766 168.086C198.495 168.394 198.36 168.837 198.36 169.416V173H196.834Z" fill="#0F1116"/>
<rect x="43" y="100" width="295" height="40" rx="20" fill="#33362F"/>
<path d="M69.05 125V115.2H74.706V116.642H70.66V119.414H74.706V120.856H70.66V123.558H74.706V125H69.05ZM76.5952 125V118.476H78.1212V119.386C78.2706 119.069 78.5086 118.812 78.8352 118.616C79.1619 118.411 79.5306 118.308 79.9412 118.308C80.9772 118.308 81.6632 118.695 81.9992 119.47C82.1579 119.134 82.4192 118.859 82.7832 118.644C83.1472 118.42 83.5532 118.308 84.0012 118.308C85.5692 118.308 86.3532 119.162 86.3532 120.87V125H84.8272V121.164C84.8272 120.128 84.4212 119.61 83.6092 119.61C83.1799 119.61 82.8439 119.755 82.6012 120.044C82.3586 120.324 82.2372 120.823 82.2372 121.542V125H80.7112V121.15C80.7112 120.123 80.3146 119.61 79.5212 119.61C79.0826 119.61 78.7372 119.755 78.4852 120.044C78.2426 120.324 78.1212 120.823 78.1212 121.542V125H76.5952ZM90.9597 125.168C89.9423 125.168 89.1537 124.846 88.5937 124.202C88.0337 123.558 87.7537 122.737 87.7537 121.738C87.7537 120.749 88.0477 119.932 88.6357 119.288C89.2237 118.635 90.0123 118.308 91.0017 118.308C91.4403 118.308 91.8417 118.401 92.2057 118.588C92.5697 118.775 92.8497 119.031 93.0457 119.358V118.476H94.5717V125H93.0457V124.118C92.859 124.435 92.565 124.692 92.1637 124.888C91.7717 125.075 91.3703 125.168 90.9597 125.168ZM91.1837 123.81C91.809 123.81 92.285 123.614 92.6117 123.222C92.9477 122.83 93.1157 122.335 93.1157 121.738C93.1157 121.141 92.9477 120.646 92.6117 120.254C92.285 119.862 91.809 119.666 91.1837 119.666C90.5957 119.666 90.129 119.862 89.7837 120.254C89.4477 120.637 89.2797 121.131 89.2797 121.738C89.2797 122.345 89.4477 122.844 89.7837 123.236C90.129 123.619 90.5957 123.81 91.1837 123.81ZM98.1108 117.216C97.8962 117.431 97.6255 117.538 97.2988 117.538C96.9722 117.538 96.7015 117.431 96.4868 117.216C96.2722 116.992 96.1648 116.721 96.1648 116.404C96.1648 116.087 96.2722 115.821 96.4868 115.606C96.7015 115.382 96.9722 115.27 97.2988 115.27C97.6255 115.27 97.8962 115.382 98.1108 115.606C98.3255 115.821 98.4328 116.087 98.4328 116.404C98.4328 116.721 98.3255 116.992 98.1108 117.216ZM96.5288 125V118.476H98.0548V125H96.5288ZM100.015 125V115.2H101.541V125H100.015ZM112.503 125L112.125 123.754H108.359L107.981 125H106.231L109.535 115.2H110.949L114.253 125H112.503ZM108.779 122.312H111.691L110.235 117.454L108.779 122.312ZM120.102 115.2H121.628V125H120.102V124.118C119.916 124.435 119.622 124.692 119.22 124.888C118.828 125.075 118.427 125.168 118.016 125.168C116.999 125.168 116.21 124.846 115.65 124.202C115.09 123.558 114.81 122.737 114.81 121.738C114.81 120.749 115.104 119.932 115.692 119.288C116.28 118.635 117.069 118.308 118.058 118.308C118.497 118.308 118.898 118.401 119.262 118.588C119.626 118.775 119.906 119.031 120.102 119.358V115.2ZM118.24 123.81C118.866 123.81 119.342 123.614 119.668 123.222C120.004 122.83 120.172 122.335 120.172 121.738C120.172 121.141 120.004 120.646 119.668 120.254C119.342 119.862 118.866 119.666 118.24 119.666C117.652 119.666 117.186 119.862 116.84 120.254C116.504 120.637 116.336 121.131 116.336 121.738C116.336 122.345 116.504 122.844 116.84 123.236C117.186 123.619 117.652 123.81 118.24 123.81ZM128.387 115.2H129.913V125H128.387V124.118C128.201 124.435 127.907 124.692 127.505 124.888C127.113 125.075 126.712 125.168 126.301 125.168C125.284 125.168 124.495 124.846 123.935 124.202C123.375 123.558 123.095 122.737 123.095 121.738C123.095 120.749 123.389 119.932 123.977 119.288C124.565 118.635 125.354 118.308 126.343 118.308C126.782 118.308 127.183 118.401 127.547 118.588C127.911 118.775 128.191 119.031 128.387 119.358V115.2ZM126.525 123.81C127.151 123.81 127.627 123.614 127.953 123.222C128.289 122.83 128.457 122.335 128.457 121.738C128.457 121.141 128.289 120.646 127.953 120.254C127.627 119.862 127.151 119.666 126.525 119.666C125.937 119.666 125.471 119.862 125.125 120.254C124.789 120.637 124.621 121.131 124.621 121.738C124.621 122.345 124.789 122.844 125.125 123.236C125.471 123.619 125.937 123.81 126.525 123.81ZM131.871 125V118.476H133.397V119.736C133.509 119.297 133.728 118.966 134.055 118.742C134.381 118.509 134.741 118.392 135.133 118.392C135.385 118.392 135.585 118.411 135.735 118.448V119.848C135.576 119.829 135.375 119.82 135.133 119.82C134.591 119.82 134.167 120.021 133.859 120.422C133.551 120.814 133.397 121.379 133.397 122.116V125H131.871ZM142.701 121.402C142.701 121.57 142.687 121.85 142.659 122.242H137.815C137.833 122.755 138.001 123.152 138.319 123.432C138.636 123.703 139.075 123.838 139.635 123.838C140.353 123.838 140.839 123.591 141.091 123.096H142.631C142.528 123.703 142.197 124.202 141.637 124.594C141.086 124.977 140.419 125.168 139.635 125.168C138.608 125.168 137.796 124.86 137.199 124.244C136.601 123.628 136.303 122.793 136.303 121.738C136.303 120.693 136.597 119.862 137.185 119.246C137.782 118.621 138.58 118.308 139.579 118.308C140.512 118.308 141.263 118.597 141.833 119.176C142.411 119.745 142.701 120.487 142.701 121.402ZM137.815 121.08H141.203C141.193 120.576 141.044 120.189 140.755 119.918C140.475 119.647 140.073 119.512 139.551 119.512C139.019 119.512 138.599 119.657 138.291 119.946C137.983 120.235 137.824 120.613 137.815 121.08ZM146.457 125.168C145.636 125.168 144.969 124.958 144.455 124.538C143.942 124.118 143.685 123.605 143.685 122.998H145.211C145.211 123.278 145.333 123.507 145.575 123.684C145.827 123.861 146.149 123.95 146.541 123.95C146.831 123.95 147.059 123.88 147.227 123.74C147.395 123.6 147.479 123.413 147.479 123.18C147.479 122.807 147.316 122.578 146.989 122.494L145.309 122.032C144.367 121.771 143.895 121.169 143.895 120.226C143.895 119.685 144.129 119.232 144.595 118.868C145.062 118.495 145.664 118.308 146.401 118.308C147.232 118.308 147.867 118.495 148.305 118.868C148.753 119.241 148.977 119.731 148.977 120.338H147.479C147.479 120.067 147.377 119.857 147.171 119.708C146.975 119.549 146.7 119.47 146.345 119.47C146.075 119.47 145.851 119.535 145.673 119.666C145.496 119.787 145.407 119.946 145.407 120.142C145.407 120.497 145.594 120.73 145.967 120.842L147.521 121.29C147.969 121.421 148.333 121.645 148.613 121.962C148.893 122.27 149.033 122.629 149.033 123.04C149.033 123.675 148.805 124.188 148.347 124.58C147.899 124.972 147.269 125.168 146.457 125.168ZM152.856 125.168C152.034 125.168 151.367 124.958 150.854 124.538C150.34 124.118 150.084 123.605 150.084 122.998H151.61C151.61 123.278 151.731 123.507 151.974 123.684C152.226 123.861 152.548 123.95 152.94 123.95C153.229 123.95 153.458 123.88 153.626 123.74C153.794 123.6 153.878 123.413 153.878 123.18C153.878 122.807 153.714 122.578 153.388 122.494L151.708 122.032C150.765 121.771 150.294 121.169 150.294 120.226C150.294 119.685 150.527 119.232 150.994 118.868C151.46 118.495 152.062 118.308 152.8 118.308C153.63 118.308 154.265 118.495 154.704 118.868C155.152 119.241 155.376 119.731 155.376 120.338H153.878C153.878 120.067 153.775 119.857 153.57 119.708C153.374 119.549 153.098 119.47 152.744 119.47C152.473 119.47 152.249 119.535 152.072 119.666C151.894 119.787 151.806 119.946 151.806 120.142C151.806 120.497 151.992 120.73 152.366 120.842L153.92 121.29C154.368 121.421 154.732 121.645 155.012 121.962C155.292 122.27 155.432 122.629 155.432 123.04C155.432 123.675 155.203 124.188 154.746 124.58C154.298 124.972 153.668 125.168 152.856 125.168Z" fill="white" fill-opacity="0.83"/>
</g>
<g filter="url(#filter0_d_4175_2747)">
<circle cx="35.5602" cy="205.56" r="21.5" transform="rotate(12.2078 35.5602 205.56)" fill="#33362F"/>
<path d="M39.0868 205.812C38.6196 207.971 36.4906 209.343 34.3314 208.876C32.1722 208.409 30.8005 206.28 31.2677 204.12C31.7348 201.961 33.8639 200.59 36.0231 201.057C38.1822 201.524 39.5539 203.653 39.0868 205.812Z" fill="#33362F"/>
<path d="M39.9326 201.902L38.7696 207.278C38.4776 208.628 39.3349 209.958 40.6844 210.25C42.8159 210.711 43.6072 208.563 43.9737 206.869C45.0248 202.011 41.9385 197.221 37.0804 196.17C32.2222 195.119 27.4318 198.205 26.3807 203.063C25.3297 207.921 28.4159 212.712 33.2741 213.763C34.3022 213.985 35.3273 214.022 36.3146 213.897M39.0868 205.812C38.6196 207.971 36.4906 209.343 34.3314 208.876C32.1722 208.409 30.8005 206.28 31.2677 204.12C31.7348 201.961 33.8639 200.59 36.0231 201.057C38.1822 201.524 39.5539 203.653 39.0868 205.812Z" stroke="white" stroke-width="2" stroke-linecap="round" stroke-linejoin="round"/>
</g>
<g filter="url(#filter1_d_4175_2747)">
<circle cx="365.56" cy="170.541" r="21.5" transform="rotate(-8.81711 365.56 170.541)" fill="#33362F"/>
<path d="M368.942 169.51C369.281 171.693 367.786 173.738 365.603 174.076C363.42 174.415 361.375 172.92 361.037 170.737C360.698 168.554 362.193 166.509 364.376 166.171C366.559 165.832 368.604 167.327 368.942 169.51Z" fill="#33362F"/>
<path d="M368.329 165.558L369.172 170.993C369.384 172.357 370.661 173.292 372.026 173.08C374.181 172.746 374.149 170.457 373.883 168.744C373.121 163.832 368.522 160.468 363.61 161.23C358.698 161.992 355.334 166.591 356.096 171.503C356.858 176.415 361.457 179.779 366.369 179.017C367.408 178.856 368.379 178.523 369.255 178.051M368.942 169.51C369.281 171.693 367.786 173.738 365.603 174.076C363.42 174.415 361.375 172.92 361.037 170.737C360.698 168.554 362.193 166.509 364.376 166.171C366.559 165.832 368.604 167.327 368.942 169.51Z" stroke="white" stroke-width="2" stroke-linecap="round" stroke-linejoin="round"/>
</g>
<g filter="url(#filter2_d_4175_2747)">
<path d="M301.746 89.6222C300.814 87.1968 303.196 84.8146 305.622 85.746L331.802 95.8004C333.829 96.5789 334.383 99.1867 332.848 100.722L330.449 103.121L327.617 105.953L332.563 110.899C334.127 112.463 334.127 114.999 332.563 116.563V116.563V116.563C330.999 118.128 328.463 118.128 326.898 116.563L321.953 111.617L319.12 114.45L316.722 116.848C315.186 118.384 312.578 117.83 311.8 115.802L301.746 89.6222Z" fill="black"/>
<path d="M332.519 93.9333L306.339 83.879C302.296 82.3266 298.326 86.2969 299.879 90.3392L309.933 116.519C311.23 119.898 315.577 120.822 318.136 118.262L320.535 115.864L321.953 114.446L325.484 117.978C327.829 120.323 331.632 120.323 333.977 117.978C336.322 115.632 336.322 111.83 333.977 109.485L330.445 105.953L331.863 104.535L334.262 102.136C336.821 99.5772 335.898 95.2309 332.519 93.9333Z" stroke="white" stroke-width="4"/>
</g>
</g>
<defs>
<filter id="filter0_d_4175_2747" x="-7.94434" y="162.056" width="87.009" height="87.0088" filterUnits="userSpaceOnUse" color-interpolation-filters="sRGB">
<feFlood flood-opacity="0" result="BackgroundImageFix"/>
<feColorMatrix in="SourceAlpha" type="matrix" values="0 0 0 0 0 0 0 0 0 0 0 0 0 0 0 0 0 0 127 0" result="hardAlpha"/>
<feOffset/>
<feGaussianBlur stdDeviation="11"/>
<feComposite in2="hardAlpha" operator="out"/>
<feColorMatrix type="matrix" values="0 0 0 0 0 0 0 0 0 0 0 0 0 0 0 0 0 0 0.2 0"/>
<feBlend mode="normal" in2="BackgroundImageFix" result="effect1_dropShadow_4175_2747"/>
<feBlend mode="normal" in="SourceGraphic" in2="effect1_dropShadow_4175_2747" result="shape"/>
</filter>
<filter id="filter1_d_4175_2747" x="322.057" y="127.038" width="87.0061" height="87.0059" filterUnits="userSpaceOnUse" color-interpolation-filters="sRGB">
<feFlood flood-opacity="0" result="BackgroundImageFix"/>
<feColorMatrix in="SourceAlpha" type="matrix" values="0 0 0 0 0 0 0 0 0 0 0 0 0 0 0 0 0 0 127 0" result="hardAlpha"/>
<feOffset/>
<feGaussianBlur stdDeviation="11"/>
<feComposite in2="hardAlpha" operator="out"/>
<feColorMatrix type="matrix" values="0 0 0 0 0 0 0 0 0 0 0 0 0 0 0 0 0 0 0.2 0"/>
<feBlend mode="normal" in2="BackgroundImageFix" result="effect1_dropShadow_4175_2747"/>
<feBlend mode="normal" in="SourceGraphic" in2="effect1_dropShadow_4175_2747" result="shape"/>
</filter>
<filter id="filter2_d_4175_2747" x="271.53" y="55.5303" width="92.2065" height="92.2061" filterUnits="userSpaceOnUse" color-interpolation-filters="sRGB">
<feFlood flood-opacity="0" result="BackgroundImageFix"/>
<feColorMatrix in="SourceAlpha" type="matrix" values="0 0 0 0 0 0 0 0 0 0 0 0 0 0 0 0 0 0 127 0" result="hardAlpha"/>
<feOffset/>
<feGaussianBlur stdDeviation="13"/>
<feComposite in2="hardAlpha" operator="out"/>
<feColorMatrix type="matrix" values="0 0 0 0 1 0 0 0 0 1 0 0 0 0 1 0 0 0 0.25 0"/>
<feBlend mode="normal" in2="BackgroundImageFix" result="effect1_dropShadow_4175_2747"/>
<feBlend mode="normal" in="SourceGraphic" in2="effect1_dropShadow_4175_2747" result="shape"/>
</filter>
<clipPath id="clip0_4175_2747">
<rect width="389" height="242" fill="white"/>
</clipPath>
<clipPath id="clip1_4175_2747">
<rect x="22" y="-29" width="344" height="248" rx="30" fill="white"/>
</clipPath>
</defs>
</svg>
