<svg width="25" height="25" viewBox="0 0 25 25" fill="none" xmlns="http://www.w3.org/2000/svg">
<path fill-rule="evenodd" clip-rule="evenodd" d="M8.00625 2.93305C8.0182 2.94102 8.0302 2.94901 8.04222 2.95703L18.591 9.98954C18.8962 10.193 19.1792 10.3816 19.3965 10.5569C19.6234 10.7398 19.8908 10.9935 20.0447 11.3646C20.2481 11.8551 20.2481 12.4064 20.0447 12.8969C19.8908 13.268 19.6234 13.5217 19.3965 13.7046C19.1792 13.8799 18.8962 14.0685 18.591 14.2719L8.00628 21.3284C7.63319 21.5772 7.29771 21.8008 7.01305 21.9551C6.72818 22.1095 6.33717 22.2859 5.8808 22.2587C5.29705 22.2238 4.75779 21.9352 4.40498 21.4688C4.12916 21.1042 4.05905 20.681 4.02949 20.3584C3.99994 20.0359 3.99997 19.6327 4 19.1844L4 5.12036C4 5.1059 4 5.09149 4 5.07712C3.99997 4.62872 3.99994 4.22552 4.02949 3.9031C4.05905 3.58045 4.12916 3.15725 4.40498 2.79264C4.75779 2.32626 5.29705 2.03766 5.8808 2.00281C6.33717 1.97556 6.72818 2.15197 7.01305 2.30635C7.29771 2.46062 7.63318 2.68429 8.00625 2.93305ZM6.02513 4.04619C6.02378 4.05831 6.02244 4.07142 6.02114 4.08559C6.00101 4.30533 6 4.61491 6 5.12036V19.1411C6 19.6466 6.00101 19.9561 6.02114 20.1759C6.02244 20.19 6.02378 20.2032 6.02512 20.2153C6.03595 20.2097 6.04761 20.2035 6.06011 20.1967C6.25412 20.0916 6.51227 19.9207 6.93282 19.6403L17.4484 12.63C17.7982 12.3967 18.0033 12.2589 18.141 12.1478C18.1485 12.1418 18.1554 12.1361 18.1618 12.1307C18.1554 12.1254 18.1485 12.1197 18.141 12.1137C18.0033 12.0026 17.7982 11.8647 17.4484 11.6315L6.93282 4.62113C6.51227 4.34076 6.25412 4.16987 6.06011 4.06473C6.04761 4.05795 6.03596 4.05179 6.02513 4.04619Z" fill="white"/>
</svg>
