<svg width="1222" height="499" viewBox="0 0 1222 499" fill="none" xmlns="http://www.w3.org/2000/svg">
<path d="M114.167 63.6302C101.227 75.3936 86.8102 85.8722 74.8399 98.7292C68.6972 105.327 62.4219 112.914 58.487 121.065C54.8894 128.517 54.8606 137.593 52.4244 145.475C51.4197 148.725 49.2649 153.255 53.3019 154.808C66.1637 159.755 87.7432 152.266 99.2497 146.591C125.779 133.509 146.694 108.64 167.294 88.0399C179.727 75.6072 192.241 62.6436 208.136 54.6959C210.943 53.2926 216.139 50.0306 219.544 50.7871C222.122 51.36 223.06 64.2052 223.213 66.3424C223.929 76.3702 218.027 86.0298 213.561 94.5811C203.24 114.344 183.418 129.868 168.411 146.113C158.215 157.149 148.573 168.504 137.938 179.138C127.989 189.087 115.409 199.518 108.742 212.163C98.1235 232.302 85.3342 250.864 76.196 271.751C72.6382 279.884 68.4029 288.983 68.219 297.996C68.1754 300.134 66.6226 313.233 70.293 311.397C83.5941 304.747 97.2555 295.699 109.7 287.546C124.429 277.896 136.609 264.201 151.021 253.803C161.304 246.384 172.432 240.103 182.291 232.105C190.834 225.175 198.071 216.962 206.062 209.451C220.735 195.659 236.643 183.228 251.532 169.645C280.456 143.258 308.558 114.75 339.917 91.2308C356.562 78.7471 371.118 63.3109 392.725 59.6416C400.504 58.3208 399.669 64.3874 400.543 71.1286C403.09 90.774 398.398 109.786 389.056 127.207C378.526 146.844 364.742 164.567 350.367 181.451C333.717 201.009 317.318 220.827 298.756 238.647C270.201 266.059 243.225 294.579 215.475 322.725C204.964 333.386 196.399 345.681 185.641 356.149C176.574 364.971 168.345 375.791 163.066 387.339C161.713 390.298 146.965 417.601 147.83 417.652C149.827 417.769 153.044 416.423 154.93 415.976C164.557 413.696 174.31 411.832 183.886 409.356C200.889 404.958 215.418 395.72 228.717 384.467C283.762 337.89 328.395 279.019 374.059 223.57C395.493 197.543 411.941 167.361 433.408 141.327C448.357 123.197 460.209 104.041 478.399 88.8376C485.595 82.8229 511.92 55.6639 525.384 63.9492C528.149 65.6506 527.549 73.2995 527.617 75.6755C527.94 86.9821 527.505 98.2084 524.187 109.099C516.01 135.946 501.69 160.063 484.461 182.01C470.358 199.975 453.176 215.271 438.035 232.345C425.338 246.662 414.864 262.943 401.819 276.936C376.889 303.68 355.768 333.401 330.823 360.217C317.885 374.126 294.614 387.855 298.277 409.834C299.636 417.989 301.441 418.573 308.966 416.535C331.6 410.405 353.157 403.1 373.421 391.008C392.647 379.536 409.248 365.776 423.517 348.57C442.706 325.43 464.212 304.884 484.461 282.76C513.841 250.66 544.68 219.448 570.215 184.163C590.263 156.461 610.582 129.843 629.006 100.963C636.78 88.7761 641.871 75.2067 654.851 67.9378C663.09 63.324 667.153 69.1809 669.848 77.5102C674.519 91.9473 679.959 108.175 677.506 123.458C673.577 147.941 655.564 171.213 642.567 191.742C627.18 216.045 609.197 238.979 591.673 261.78C574.629 283.957 555.908 305.246 540.939 328.947C530.32 345.761 520.582 362.994 510.546 380.16C500.081 398.06 479.427 420.209 480.313 442.381C480.461 446.081 492.519 435.72 494.273 434.643C519.03 419.441 539.061 397.639 556.255 374.336C575.433 348.346 591.135 320.041 610.818 294.326C627.519 272.507 641.817 249.004 656.367 225.724C668.032 207.06 682.052 189.898 695.215 172.278C708.594 154.369 720.506 135.847 733.026 117.395C749.902 92.5264 776.912 71.2217 802.187 55.334C802.762 54.9729 807.082 51.441 807.532 53.5791C808.971 60.4156 808.642 69.3038 808.489 76.2339C807.622 115.477 788.274 153.537 772.273 188.232C755.433 224.747 736.23 259.606 715.158 293.848C698.373 321.123 679.903 347.26 665.062 375.692C657.157 390.836 649.897 406.538 642.886 422.119C637.484 434.122 650.573 422.599 654.452 420.284C673.88 408.69 690.537 398.096 703.671 379.202C718.726 357.544 733.166 336.115 749.22 315.147C762.673 297.575 770.914 277.104 780.729 257.472C791.617 235.697 803.392 214.429 813.435 192.22C827.492 161.137 846.51 129.911 873.901 108.78C876.149 107.046 884.796 97.4717 885.149 103.994C886.672 132.168 880.626 157.54 872.306 184.163C864.257 209.918 854.669 235.879 843.588 260.504C832.079 286.079 817.466 310.023 806.415 335.807C796.547 358.834 785.292 381.18 777.06 404.888C775.062 410.643 768.418 423.832 777.937 424.671C796.344 426.296 816.352 412.864 829.15 400.98C850.025 381.596 862.772 356.869 875.337 331.739C887.193 308.027 896.957 283.251 908.202 259.227C918.266 237.727 925.412 215.178 937.558 194.613C946.977 178.665 959.497 163.2 970.583 148.346C981.024 134.358 993.002 120.802 1007.6 111.014C1008.49 110.413 1020.93 102.248 1021.56 106.307C1025.1 129.345 1019.1 154.879 1012.78 176.825C995.215 237.844 963.586 294.443 947.609 356.069C943.785 370.818 938.356 385.382 938.356 400.74C938.356 411.859 950.629 406.029 958.139 402.495C978.435 392.944 992.446 372.53 1004.64 354.553C1020.56 331.103 1034.5 303.878 1043.01 276.697C1050.08 254.134 1058 234.914 1069.82 214.237C1081.07 194.543 1090.65 173.583 1103 154.569C1109.18 145.058 1116.24 136.407 1123.82 128.005C1125.86 125.743 1127.69 122.349 1130.76 121.384C1137.78 119.179 1147.93 112.363 1151.18 122.66C1159.46 148.883 1156.43 177.452 1152.14 204.186C1146.76 237.686 1137.81 271.988 1127.09 304.138C1116.66 335.427 1102.72 365.472 1092.39 396.752C1087.9 410.353 1082.69 430.383 1087.05 444.694C1089.87 453.965 1101.46 441.266 1104.6 438.392C1119.87 424.404 1129.41 405.812 1139.7 388.137C1149.45 371.374 1162.45 354.92 1170.97 337.881" stroke="#F3F3F3" stroke-width="101" stroke-linecap="round"/>
</svg>
