<svg width="155" height="48" viewBox="0 0 155 48" fill="none" xmlns="http://www.w3.org/2000/svg">
<path fill-rule="evenodd" clip-rule="evenodd" d="M15.2913 2.38721C18.2653 -2.02339 25.1527 0.0817555 25.1527 5.40132V25.8129C25.1527 28.7905 22.7389 31.2042 19.7614 31.2042H5.99811C1.67925 31.2042 -0.886483 26.3797 1.52805 22.7988L15.2913 2.38721ZM19.3314 24.953L19.3314 8.2148C19.3314 7.79056 18.7821 7.62267 18.5449 7.97442L7.25862 24.7126C7.06606 24.9982 7.27068 25.383 7.61512 25.383H18.9014C19.1389 25.383 19.3314 25.1905 19.3314 24.953ZM26.3579 44.9857C23.3839 49.3963 16.4965 47.2912 16.4965 41.9716L16.4965 36.4003C16.4965 34.7928 17.7997 33.4897 19.4072 33.4897C21.0147 33.4897 22.3178 34.7928 22.3178 36.4003V39.1581C22.3178 39.5824 22.8671 39.7503 23.1043 39.3985L34.3906 22.6603C34.5832 22.3747 34.3785 21.99 34.0341 21.99L29.9105 21.99C28.303 21.99 26.9999 20.6868 26.9999 19.0793C26.9999 17.4718 28.303 16.1687 29.9105 16.1687H35.6511C39.97 16.1687 42.5357 20.9932 40.1212 24.5741L26.3579 44.9857Z" fill="#FF1451" style="fill:#FF1451;fill:color(display-p3 1.0000 0.0784 0.3176);fill-opacity:1;"/>
<path d="M61.3619 30.8934L75.882 11.8898V6.99658H51.6187V13.3452H66.0546L51.3872 32.4542V37.242H76.3029V30.8934H61.3619Z" fill="#FCFAFB" style="fill:#FCFAFB;fill:color(display-p3 0.9882 0.9804 0.9843);fill-opacity:1;"/>
<path d="M87.8095 37.8537C90.3558 37.8537 92.4601 36.9678 94.1226 35.2172V37.242H101.025V15.2223H94.1226V17.2471C92.5022 15.4965 90.3979 14.6107 87.7885 14.6107C84.8003 14.6107 82.275 15.7285 80.2128 17.9431C78.1505 20.1578 77.1193 22.9208 77.1193 26.2322C77.1193 29.5436 78.1505 32.3066 80.2128 34.5212C82.275 36.7358 84.8003 37.8537 87.7885 37.8537H87.8095ZM89.0511 31.716C87.557 31.716 86.3364 31.2098 85.3684 30.1974C84.4004 29.185 83.9164 27.8562 83.9164 26.2111C83.9164 24.587 84.4004 23.2793 85.3684 22.2669C86.3364 21.2545 87.557 20.7483 89.0511 20.7483C90.5662 20.7483 91.8288 21.2545 92.8179 22.2669C93.8069 23.2793 94.312 24.587 94.312 26.2111C94.312 27.8351 93.8069 29.1639 92.8179 30.1974C91.8288 31.2309 90.5662 31.7371 89.03 31.7371L89.0511 31.716Z" fill="#FCFAFB" style="fill:#FCFAFB;fill:color(display-p3 0.9882 0.9804 0.9843);fill-opacity:1;"/>
<path d="M113.758 37.8537C116.304 37.8537 118.409 36.9678 120.071 35.2172V37.242H126.973V15.2223H120.071V17.2471C118.451 15.4965 116.346 14.6107 113.737 14.6107C110.749 14.6107 108.223 15.7285 106.161 17.9431C104.099 20.1578 103.068 22.9208 103.068 26.2322C103.068 29.5436 104.099 32.3066 106.161 34.5212C108.223 36.7358 110.749 37.8537 113.737 37.8537H113.758ZM114.999 31.716C113.505 31.716 112.285 31.2098 111.317 30.1974C110.349 29.185 109.865 27.8562 109.865 26.2111C109.865 24.587 110.349 23.2793 111.317 22.2669C112.285 21.2545 113.505 20.7483 114.999 20.7483C116.515 20.7483 117.777 21.2545 118.766 22.2669C119.755 23.2793 120.26 24.587 120.26 26.2111C120.26 27.8351 119.755 29.1639 118.766 30.1974C117.777 31.2309 116.515 31.7371 114.978 31.7371L114.999 31.716Z" fill="#FCFAFB" style="fill:#FCFAFB;fill:color(display-p3 0.9882 0.9804 0.9843);fill-opacity:1;"/>
<path d="M143.691 14.6107C141.081 14.6107 138.977 15.4965 137.357 17.2471V15.2223H130.454V46.3114H137.357V35.2172C139.019 36.9678 141.123 37.8537 143.67 37.8537C146.658 37.8537 149.183 36.7358 151.245 34.5212C153.308 32.3066 154.339 29.5436 154.339 26.2322C154.339 22.9208 153.308 20.1578 151.245 17.9431C149.183 15.7285 146.658 14.6318 143.67 14.6318L143.691 14.6107ZM142.407 31.7371C140.871 31.7371 139.608 31.2309 138.619 30.2185C137.63 29.2061 137.125 27.8773 137.125 26.2322C137.125 24.6081 137.609 23.3004 138.598 22.288C139.587 21.2756 140.85 20.7694 142.386 20.7694C143.88 20.7694 145.101 21.2756 146.069 22.288C147.037 23.3004 147.521 24.6081 147.521 26.2322C147.521 27.8562 147.037 29.185 146.069 30.2185C145.101 31.252 143.88 31.7582 142.386 31.7582L142.407 31.7371Z" fill="#FCFAFB" style="fill:#FCFAFB;fill:color(display-p3 0.9882 0.9804 0.9843);fill-opacity:1;"/>
</svg>
